SplineFontDB: 3.2
FontName: XBFWINLucidaTypewriter24Bold
FullName: XBF WIN Lucida Typewriter 24 Bold
FamilyName: XBF WIN Lucida Typewriter 24
Weight: Bold
Copyright: Copyright Bigelow & Holmes 1986, 1985.
UComments: "2022-3-6: Created with FontForge (http://fontforge.org)"
Version: 001.000
ItalicAngle: 0
UnderlinePosition: -100
UnderlineWidth: 50
Ascent: 767
Descent: 233
InvalidEm: 0
LayerCount: 2
Layer: 0 0 "Back" 1
Layer: 1 0 "Fore" 0
XUID: [1021 20 883263941 3508631]
StyleMap: 0x0020
FSType: 0
OS2Version: 0
OS2_WeightWidthSlopeOnly: 0
OS2_UseTypoMetrics: 1
CreationTime: 1646621846
ModificationTime: 1646621847
PfmFamily: 48
TTFWeight: 700
TTFWidth: 5
LineGap: 0
VLineGap: 90
Panose: 2 0 8 9 0 0 0 0 0 0
OS2TypoAscent: 767
OS2TypoAOffset: 0
OS2TypoDescent: -233
OS2TypoDOffset: 0
OS2TypoLinegap: 0
OS2WinAscent: 767
OS2WinAOffset: 0
OS2WinDescent: 233
OS2WinDOffset: 0
HheadAscent: 767
HheadAOffset: 0
HheadDescent: -233
HheadDOffset: 0
OS2SubXSize: 650
OS2SubYSize: 700
OS2SubXOff: 0
OS2SubYOff: 140
OS2SupXSize: 650
OS2SupYSize: 700
OS2SupXOff: 0
OS2SupYOff: 480
OS2StrikeYSize: 49
OS2StrikeYPos: 258
OS2Vendor: 'PfEd'
DEI: 91125
Encoding: UnicodeBmp
UnicodeInterp: none
NameList: AGL For New Fonts
DisplaySize: 24
AntiAlias: 1
FitToEm: 0
BeginChars: 65536 881

StartChar: char0
Encoding: 0 0 0
Width: 500
Flags: HW
LayerCount: 2
Back
Fore
SplineSet
36 571 m 1
 36 607 l 1
 71 607 l 1
 71 571 l 1
 36 571 l 1
107 571 m 1
 107 607 l 1
 143 607 l 1
 143 571 l 1
 107 571 l 1
179 571 m 1
 179 607 l 1
 214 607 l 1
 214 571 l 1
 179 571 l 1
250 571 m 1
 250 607 l 1
 286 607 l 1
 286 571 l 1
 250 571 l 1
321 571 m 1
 321 607 l 1
 357 607 l 1
 357 571 l 1
 321 571 l 1
393 571 m 1
 393 607 l 1
 429 607 l 1
 429 571 l 1
 393 571 l 1
36 500 m 1
 36 536 l 1
 71 536 l 1
 71 500 l 1
 36 500 l 1
393 500 m 1
 393 536 l 1
 429 536 l 1
 429 500 l 1
 393 500 l 1
36 429 m 1
 36 464 l 1
 71 464 l 1
 71 429 l 1
 36 429 l 1
393 429 m 1
 393 464 l 1
 429 464 l 1
 429 429 l 1
 393 429 l 1
36 357 m 1
 36 393 l 1
 71 393 l 1
 71 357 l 1
 36 357 l 1
393 357 m 1
 393 393 l 1
 429 393 l 1
 429 357 l 1
 393 357 l 1
36 286 m 1
 36 321 l 1
 71 321 l 1
 71 286 l 1
 36 286 l 1
393 286 m 1
 393 321 l 1
 429 321 l 1
 429 286 l 1
 393 286 l 1
36 214 m 1
 36 250 l 1
 71 250 l 1
 71 214 l 1
 36 214 l 1
393 214 m 1
 393 250 l 1
 429 250 l 1
 429 214 l 1
 393 214 l 1
36 143 m 1
 36 179 l 1
 71 179 l 1
 71 143 l 1
 36 143 l 1
393 143 m 1
 393 179 l 1
 429 179 l 1
 429 143 l 1
 393 143 l 1
36 71 m 1
 36 107 l 1
 71 107 l 1
 71 71 l 1
 36 71 l 1
393 71 m 1
 393 107 l 1
 429 107 l 1
 429 71 l 1
 393 71 l 1
36 0 m 1
 36 36 l 1
 71 36 l 1
 71 0 l 1
 36 0 l 1
107 0 m 1
 107 36 l 1
 143 36 l 1
 143 0 l 1
 107 0 l 1
179 0 m 1
 179 36 l 1
 214 36 l 1
 214 0 l 1
 179 0 l 1
250 0 m 1
 250 36 l 1
 286 36 l 1
 286 0 l 1
 250 0 l 1
321 0 m 1
 321 36 l 1
 357 36 l 1
 357 0 l 1
 321 0 l 1
393 0 m 1
 393 36 l 1
 429 36 l 1
 429 0 l 1
 393 0 l 1
EndSplineSet
EndChar

StartChar: exclam
Encoding: 33 33 2
Width: 500
Flags: HW
LayerCount: 2
Back
Fore
SplineSet
214 571 m 1
 214 607 l 1
 321 607 l 1
 321 571 l 1
 214 571 l 1
214 536 m 1
 214 571 l 1
 321 571 l 1
 321 536 l 1
 214 536 l 1
214 500 m 1
 214 536 l 1
 321 536 l 1
 321 500 l 1
 214 500 l 1
214 464 m 1
 214 500 l 1
 321 500 l 1
 321 464 l 1
 214 464 l 1
214 429 m 1
 214 464 l 1
 321 464 l 1
 321 429 l 1
 214 429 l 1
214 393 m 1
 214 429 l 1
 321 429 l 1
 321 393 l 1
 214 393 l 1
214 357 m 1
 214 393 l 1
 321 393 l 1
 321 357 l 1
 214 357 l 1
214 321 m 1
 214 357 l 1
 321 357 l 1
 321 321 l 1
 214 321 l 1
250 286 m 1
 250 321 l 1
 321 321 l 1
 321 286 l 1
 250 286 l 1
250 250 m 1
 250 286 l 1
 321 286 l 1
 321 250 l 1
 250 250 l 1
250 214 m 1
 250 250 l 1
 321 250 l 1
 321 214 l 1
 250 214 l 1
250 179 m 1
 250 214 l 1
 321 214 l 1
 321 179 l 1
 250 179 l 1
214 36 m 1
 214 71 l 1
 321 71 l 1
 321 36 l 1
 214 36 l 1
214 0 m 1
 214 36 l 1
 321 36 l 1
 321 0 l 1
 214 0 l 1
EndSplineSet
EndChar

StartChar: quotedbl
Encoding: 34 34 3
Width: 500
Flags: HW
LayerCount: 2
Back
Fore
SplineSet
71 607 m 1
 71 643 l 1
 214 643 l 1
 214 607 l 1
 71 607 l 1
321 607 m 1
 321 643 l 1
 464 643 l 1
 464 607 l 1
 321 607 l 1
71 571 m 1
 71 607 l 1
 214 607 l 1
 214 571 l 1
 71 571 l 1
321 571 m 1
 321 607 l 1
 464 607 l 1
 464 571 l 1
 321 571 l 1
71 536 m 1
 71 571 l 1
 214 571 l 1
 214 536 l 1
 71 536 l 1
321 536 m 1
 321 571 l 1
 464 571 l 1
 464 536 l 1
 321 536 l 1
71 500 m 1
 71 536 l 1
 214 536 l 1
 214 500 l 1
 71 500 l 1
321 500 m 1
 321 536 l 1
 464 536 l 1
 464 500 l 1
 321 500 l 1
107 464 m 1
 107 500 l 1
 179 500 l 1
 179 464 l 1
 107 464 l 1
357 464 m 1
 357 500 l 1
 429 500 l 1
 429 464 l 1
 357 464 l 1
107 429 m 1
 107 464 l 1
 179 464 l 1
 179 429 l 1
 107 429 l 1
357 429 m 1
 357 464 l 1
 429 464 l 1
 429 429 l 1
 357 429 l 1
107 393 m 1
 107 429 l 1
 179 429 l 1
 179 393 l 1
 107 393 l 1
357 393 m 1
 357 429 l 1
 429 429 l 1
 429 393 l 1
 357 393 l 1
EndSplineSet
EndChar

StartChar: numbersign
Encoding: 35 35 4
Width: 500
Flags: HW
LayerCount: 2
Back
Fore
SplineSet
214 571 m 1
 214 607 l 1
 321 607 l 1
 321 571 l 1
 214 571 l 1
393 571 m 1
 393 607 l 1
 464 607 l 1
 464 571 l 1
 393 571 l 1
214 536 m 1
 214 571 l 1
 286 571 l 1
 286 536 l 1
 214 536 l 1
357 536 m 1
 357 571 l 1
 429 571 l 1
 429 536 l 1
 357 536 l 1
214 500 m 1
 214 536 l 1
 286 536 l 1
 286 500 l 1
 214 500 l 1
357 500 m 1
 357 536 l 1
 429 536 l 1
 429 500 l 1
 357 500 l 1
179 464 m 1
 179 500 l 1
 286 500 l 1
 286 464 l 1
 179 464 l 1
357 464 m 1
 357 500 l 1
 429 500 l 1
 429 464 l 1
 357 464 l 1
71 429 m 1
 71 464 l 1
 500 464 l 1
 500 429 l 1
 71 429 l 1
71 393 m 1
 71 429 l 1
 500 429 l 1
 500 393 l 1
 71 393 l 1
179 357 m 1
 179 393 l 1
 250 393 l 1
 250 357 l 1
 179 357 l 1
321 357 m 1
 321 393 l 1
 393 393 l 1
 393 357 l 1
 321 357 l 1
143 321 m 1
 143 357 l 1
 214 357 l 1
 214 321 l 1
 143 321 l 1
321 321 m 1
 321 357 l 1
 393 357 l 1
 393 321 l 1
 321 321 l 1
143 286 m 1
 143 321 l 1
 214 321 l 1
 214 286 l 1
 143 286 l 1
286 286 m 1
 286 321 l 1
 357 321 l 1
 357 286 l 1
 286 286 l 1
36 250 m 1
 36 286 l 1
 464 286 l 1
 464 250 l 1
 36 250 l 1
36 214 m 1
 36 250 l 1
 464 250 l 1
 464 214 l 1
 36 214 l 1
107 179 m 1
 107 214 l 1
 179 214 l 1
 179 179 l 1
 107 179 l 1
286 179 m 1
 286 214 l 1
 357 214 l 1
 357 179 l 1
 286 179 l 1
107 143 m 1
 107 179 l 1
 179 179 l 1
 179 143 l 1
 107 143 l 1
250 143 m 1
 250 179 l 1
 321 179 l 1
 321 143 l 1
 250 143 l 1
107 107 m 1
 107 143 l 1
 179 143 l 1
 179 107 l 1
 107 107 l 1
250 107 m 1
 250 143 l 1
 321 143 l 1
 321 107 l 1
 250 107 l 1
107 71 m 1
 107 107 l 1
 179 107 l 1
 179 71 l 1
 107 71 l 1
250 71 m 1
 250 107 l 1
 321 107 l 1
 321 71 l 1
 250 71 l 1
71 36 m 1
 71 71 l 1
 143 71 l 1
 143 36 l 1
 71 36 l 1
250 36 m 1
 250 71 l 1
 321 71 l 1
 321 36 l 1
 250 36 l 1
71 0 m 1
 71 36 l 1
 143 36 l 1
 143 0 l 1
 71 0 l 1
214 0 m 1
 214 36 l 1
 286 36 l 1
 286 0 l 1
 214 0 l 1
EndSplineSet
EndChar

StartChar: dollar
Encoding: 36 36 5
Width: 500
Flags: HW
LayerCount: 2
Back
Fore
SplineSet
214 679 m 1
 214 714 l 1
 286 714 l 1
 286 679 l 1
 214 679 l 1
214 643 m 1
 214 679 l 1
 286 679 l 1
 286 643 l 1
 214 643 l 1
214 607 m 1
 214 643 l 1
 286 643 l 1
 286 607 l 1
 214 607 l 1
143 571 m 1
 143 607 l 1
 393 607 l 1
 393 571 l 1
 143 571 l 1
107 536 m 1
 107 571 l 1
 393 571 l 1
 393 536 l 1
 107 536 l 1
71 500 m 1
 71 536 l 1
 214 536 l 1
 214 500 l 1
 71 500 l 1
357 500 m 1
 357 536 l 1
 393 536 l 1
 393 500 l 1
 357 500 l 1
71 464 m 1
 71 500 l 1
 179 500 l 1
 179 464 l 1
 71 464 l 1
71 429 m 1
 71 464 l 1
 179 464 l 1
 179 429 l 1
 71 429 l 1
71 393 m 1
 71 429 l 1
 214 429 l 1
 214 393 l 1
 71 393 l 1
107 357 m 1
 107 393 l 1
 250 393 l 1
 250 357 l 1
 107 357 l 1
143 321 m 1
 143 357 l 1
 321 357 l 1
 321 321 l 1
 143 321 l 1
179 286 m 1
 179 321 l 1
 357 321 l 1
 357 286 l 1
 179 286 l 1
214 250 m 1
 214 286 l 1
 393 286 l 1
 393 250 l 1
 214 250 l 1
286 214 m 1
 286 250 l 1
 429 250 l 1
 429 214 l 1
 286 214 l 1
321 179 m 1
 321 214 l 1
 429 214 l 1
 429 179 l 1
 321 179 l 1
321 143 m 1
 321 179 l 1
 429 179 l 1
 429 143 l 1
 321 143 l 1
71 107 m 1
 71 143 l 1
 107 143 l 1
 107 107 l 1
 71 107 l 1
321 107 m 1
 321 143 l 1
 429 143 l 1
 429 107 l 1
 321 107 l 1
71 71 m 1
 71 107 l 1
 143 107 l 1
 143 71 l 1
 71 71 l 1
286 71 m 1
 286 107 l 1
 393 107 l 1
 393 71 l 1
 286 71 l 1
71 36 m 1
 71 71 l 1
 393 71 l 1
 393 36 l 1
 71 36 l 1
107 0 m 1
 107 36 l 1
 357 36 l 1
 357 0 l 1
 107 0 l 1
214 -36 m 1
 214 0 l 1
 286 0 l 1
 286 -36 l 1
 214 -36 l 1
214 -71 m 1
 214 -36 l 1
 286 -36 l 1
 286 -71 l 1
 214 -71 l 1
214 -107 m 1
 214 -71 l 1
 286 -71 l 1
 286 -107 l 1
 214 -107 l 1
EndSplineSet
EndChar

StartChar: percent
Encoding: 37 37 6
Width: 500
Flags: HW
LayerCount: 2
Back
Fore
SplineSet
71 571 m 1
 71 607 l 1
 179 607 l 1
 179 571 l 1
 71 571 l 1
393 571 m 1
 393 607 l 1
 500 607 l 1
 500 571 l 1
 393 571 l 1
36 536 m 1
 36 571 l 1
 214 571 l 1
 214 536 l 1
 36 536 l 1
393 536 m 1
 393 571 l 1
 464 571 l 1
 464 536 l 1
 393 536 l 1
0 500 m 1
 0 536 l 1
 71 536 l 1
 71 500 l 1
 0 500 l 1
179 500 m 1
 179 536 l 1
 250 536 l 1
 250 500 l 1
 179 500 l 1
357 500 m 1
 357 536 l 1
 464 536 l 1
 464 500 l 1
 357 500 l 1
0 464 m 1
 0 500 l 1
 71 500 l 1
 71 464 l 1
 0 464 l 1
179 464 m 1
 179 500 l 1
 250 500 l 1
 250 464 l 1
 179 464 l 1
357 464 m 1
 357 500 l 1
 429 500 l 1
 429 464 l 1
 357 464 l 1
0 429 m 1
 0 464 l 1
 71 464 l 1
 71 429 l 1
 0 429 l 1
179 429 m 1
 179 464 l 1
 250 464 l 1
 250 429 l 1
 179 429 l 1
321 429 m 1
 321 464 l 1
 393 464 l 1
 393 429 l 1
 321 429 l 1
0 393 m 1
 0 429 l 1
 71 429 l 1
 71 393 l 1
 0 393 l 1
179 393 m 1
 179 429 l 1
 250 429 l 1
 250 393 l 1
 179 393 l 1
286 393 m 1
 286 429 l 1
 393 429 l 1
 393 393 l 1
 286 393 l 1
36 357 m 1
 36 393 l 1
 214 393 l 1
 214 357 l 1
 36 357 l 1
286 357 m 1
 286 393 l 1
 357 393 l 1
 357 357 l 1
 286 357 l 1
71 321 m 1
 71 357 l 1
 179 357 l 1
 179 321 l 1
 71 321 l 1
250 321 m 1
 250 357 l 1
 321 357 l 1
 321 321 l 1
 250 321 l 1
214 286 m 1
 214 321 l 1
 321 321 l 1
 321 286 l 1
 214 286 l 1
357 286 m 1
 357 321 l 1
 464 321 l 1
 464 286 l 1
 357 286 l 1
214 250 m 1
 214 286 l 1
 286 286 l 1
 286 250 l 1
 214 250 l 1
321 250 m 1
 321 286 l 1
 500 286 l 1
 500 250 l 1
 321 250 l 1
179 214 m 1
 179 250 l 1
 250 250 l 1
 250 214 l 1
 179 214 l 1
286 214 m 1
 286 250 l 1
 357 250 l 1
 357 214 l 1
 286 214 l 1
464 214 m 1
 464 250 l 1
 536 250 l 1
 536 214 l 1
 464 214 l 1
143 179 m 1
 143 214 l 1
 250 214 l 1
 250 179 l 1
 143 179 l 1
286 179 m 1
 286 214 l 1
 357 214 l 1
 357 179 l 1
 286 179 l 1
464 179 m 1
 464 214 l 1
 536 214 l 1
 536 179 l 1
 464 179 l 1
143 143 m 1
 143 179 l 1
 214 179 l 1
 214 143 l 1
 143 143 l 1
286 143 m 1
 286 179 l 1
 357 179 l 1
 357 143 l 1
 286 143 l 1
464 143 m 1
 464 179 l 1
 536 179 l 1
 536 143 l 1
 464 143 l 1
107 107 m 1
 107 143 l 1
 179 143 l 1
 179 107 l 1
 107 107 l 1
286 107 m 1
 286 143 l 1
 357 143 l 1
 357 107 l 1
 286 107 l 1
464 107 m 1
 464 143 l 1
 536 143 l 1
 536 107 l 1
 464 107 l 1
71 71 m 1
 71 107 l 1
 179 107 l 1
 179 71 l 1
 71 71 l 1
286 71 m 1
 286 107 l 1
 357 107 l 1
 357 71 l 1
 286 71 l 1
464 71 m 1
 464 107 l 1
 536 107 l 1
 536 71 l 1
 464 71 l 1
71 36 m 1
 71 71 l 1
 143 71 l 1
 143 36 l 1
 71 36 l 1
321 36 m 1
 321 71 l 1
 500 71 l 1
 500 36 l 1
 321 36 l 1
36 0 m 1
 36 36 l 1
 143 36 l 1
 143 0 l 1
 36 0 l 1
357 0 m 1
 357 36 l 1
 464 36 l 1
 464 0 l 1
 357 0 l 1
EndSplineSet
EndChar

StartChar: ampersand
Encoding: 38 38 7
Width: 500
Flags: HW
LayerCount: 2
Back
Fore
SplineSet
143 571 m 1
 143 607 l 1
 321 607 l 1
 321 571 l 1
 143 571 l 1
107 536 m 1
 107 571 l 1
 357 571 l 1
 357 536 l 1
 107 536 l 1
71 500 m 1
 71 536 l 1
 179 536 l 1
 179 500 l 1
 71 500 l 1
286 500 m 1
 286 536 l 1
 393 536 l 1
 393 500 l 1
 286 500 l 1
71 464 m 1
 71 500 l 1
 179 500 l 1
 179 464 l 1
 71 464 l 1
286 464 m 1
 286 500 l 1
 393 500 l 1
 393 464 l 1
 286 464 l 1
71 429 m 1
 71 464 l 1
 179 464 l 1
 179 429 l 1
 71 429 l 1
286 429 m 1
 286 464 l 1
 393 464 l 1
 393 429 l 1
 286 429 l 1
107 393 m 1
 107 429 l 1
 214 429 l 1
 214 393 l 1
 107 393 l 1
250 393 m 1
 250 429 l 1
 357 429 l 1
 357 393 l 1
 250 393 l 1
107 357 m 1
 107 393 l 1
 357 393 l 1
 357 357 l 1
 107 357 l 1
107 321 m 1
 107 357 l 1
 286 357 l 1
 286 321 l 1
 107 321 l 1
393 321 m 1
 393 357 l 1
 500 357 l 1
 500 321 l 1
 393 321 l 1
71 286 m 1
 71 321 l 1
 286 321 l 1
 286 286 l 1
 71 286 l 1
393 286 m 1
 393 321 l 1
 500 321 l 1
 500 286 l 1
 393 286 l 1
36 250 m 1
 36 286 l 1
 143 286 l 1
 143 250 l 1
 36 250 l 1
179 250 m 1
 179 286 l 1
 286 286 l 1
 286 250 l 1
 179 250 l 1
393 250 m 1
 393 286 l 1
 500 286 l 1
 500 250 l 1
 393 250 l 1
0 214 m 1
 0 250 l 1
 107 250 l 1
 107 214 l 1
 0 214 l 1
179 214 m 1
 179 250 l 1
 321 250 l 1
 321 214 l 1
 179 214 l 1
393 214 m 1
 393 250 l 1
 500 250 l 1
 500 214 l 1
 393 214 l 1
0 179 m 1
 0 214 l 1
 107 214 l 1
 107 179 l 1
 0 179 l 1
214 179 m 1
 214 214 l 1
 321 214 l 1
 321 179 l 1
 214 179 l 1
393 179 m 1
 393 214 l 1
 464 214 l 1
 464 179 l 1
 393 179 l 1
0 143 m 1
 0 179 l 1
 107 179 l 1
 107 143 l 1
 0 143 l 1
214 143 m 1
 214 179 l 1
 464 179 l 1
 464 143 l 1
 214 143 l 1
0 107 m 1
 0 143 l 1
 107 143 l 1
 107 107 l 1
 0 107 l 1
250 107 m 1
 250 143 l 1
 429 143 l 1
 429 107 l 1
 250 107 l 1
36 71 m 1
 36 107 l 1
 143 107 l 1
 143 71 l 1
 36 71 l 1
286 71 m 1
 286 107 l 1
 429 107 l 1
 429 71 l 1
 286 71 l 1
36 36 m 1
 36 71 l 1
 464 71 l 1
 464 36 l 1
 36 36 l 1
107 0 m 1
 107 36 l 1
 286 36 l 1
 286 0 l 1
 107 0 l 1
321 0 m 1
 321 36 l 1
 500 36 l 1
 500 0 l 1
 321 0 l 1
EndSplineSet
EndChar

StartChar: quotesingle
Encoding: 39 39 8
Width: 500
Flags: HW
LayerCount: 2
Back
Fore
SplineSet
179 607 m 1
 179 643 l 1
 321 643 l 1
 321 607 l 1
 179 607 l 1
179 571 m 1
 179 607 l 1
 321 607 l 1
 321 571 l 1
 179 571 l 1
179 536 m 1
 179 571 l 1
 321 571 l 1
 321 536 l 1
 179 536 l 1
179 500 m 1
 179 536 l 1
 321 536 l 1
 321 500 l 1
 179 500 l 1
214 464 m 1
 214 500 l 1
 286 500 l 1
 286 464 l 1
 214 464 l 1
214 429 m 1
 214 464 l 1
 286 464 l 1
 286 429 l 1
 214 429 l 1
214 393 m 1
 214 429 l 1
 286 429 l 1
 286 393 l 1
 214 393 l 1
EndSplineSet
EndChar

StartChar: parenleft
Encoding: 40 40 9
Width: 500
Flags: HW
LayerCount: 2
Back
Fore
SplineSet
393 607 m 1
 393 643 l 1
 464 643 l 1
 464 607 l 1
 393 607 l 1
321 571 m 1
 321 607 l 1
 464 607 l 1
 464 571 l 1
 321 571 l 1
250 536 m 1
 250 571 l 1
 393 571 l 1
 393 536 l 1
 250 536 l 1
214 500 m 1
 214 536 l 1
 357 536 l 1
 357 500 l 1
 214 500 l 1
214 464 m 1
 214 500 l 1
 321 500 l 1
 321 464 l 1
 214 464 l 1
179 429 m 1
 179 464 l 1
 286 464 l 1
 286 429 l 1
 179 429 l 1
179 393 m 1
 179 429 l 1
 286 429 l 1
 286 393 l 1
 179 393 l 1
143 357 m 1
 143 393 l 1
 250 393 l 1
 250 357 l 1
 143 357 l 1
143 321 m 1
 143 357 l 1
 250 357 l 1
 250 321 l 1
 143 321 l 1
143 286 m 1
 143 321 l 1
 250 321 l 1
 250 286 l 1
 143 286 l 1
143 250 m 1
 143 286 l 1
 250 286 l 1
 250 250 l 1
 143 250 l 1
143 214 m 1
 143 250 l 1
 250 250 l 1
 250 214 l 1
 143 214 l 1
143 179 m 1
 143 214 l 1
 250 214 l 1
 250 179 l 1
 143 179 l 1
143 143 m 1
 143 179 l 1
 250 179 l 1
 250 143 l 1
 143 143 l 1
143 107 m 1
 143 143 l 1
 286 143 l 1
 286 107 l 1
 143 107 l 1
179 71 m 1
 179 107 l 1
 286 107 l 1
 286 71 l 1
 179 71 l 1
179 36 m 1
 179 71 l 1
 286 71 l 1
 286 36 l 1
 179 36 l 1
214 0 m 1
 214 36 l 1
 321 36 l 1
 321 0 l 1
 214 0 l 1
214 -36 m 1
 214 0 l 1
 357 0 l 1
 357 -36 l 1
 214 -36 l 1
250 -71 m 1
 250 -36 l 1
 429 -36 l 1
 429 -71 l 1
 250 -71 l 1
321 -107 m 1
 321 -71 l 1
 464 -71 l 1
 464 -107 l 1
 321 -107 l 1
393 -143 m 1
 393 -107 l 1
 464 -107 l 1
 464 -143 l 1
 393 -143 l 1
EndSplineSet
EndChar

StartChar: parenright
Encoding: 41 41 10
Width: 500
Flags: HW
LayerCount: 2
Back
Fore
SplineSet
71 607 m 1
 71 643 l 1
 143 643 l 1
 143 607 l 1
 71 607 l 1
71 571 m 1
 71 607 l 1
 214 607 l 1
 214 571 l 1
 71 571 l 1
107 536 m 1
 107 571 l 1
 286 571 l 1
 286 536 l 1
 107 536 l 1
179 500 m 1
 179 536 l 1
 286 536 l 1
 286 500 l 1
 179 500 l 1
214 464 m 1
 214 500 l 1
 321 500 l 1
 321 464 l 1
 214 464 l 1
250 429 m 1
 250 464 l 1
 357 464 l 1
 357 429 l 1
 250 429 l 1
250 393 m 1
 250 429 l 1
 357 429 l 1
 357 393 l 1
 250 393 l 1
250 357 m 1
 250 393 l 1
 393 393 l 1
 393 357 l 1
 250 357 l 1
286 321 m 1
 286 357 l 1
 393 357 l 1
 393 321 l 1
 286 321 l 1
286 286 m 1
 286 321 l 1
 393 321 l 1
 393 286 l 1
 286 286 l 1
286 250 m 1
 286 286 l 1
 393 286 l 1
 393 250 l 1
 286 250 l 1
286 214 m 1
 286 250 l 1
 393 250 l 1
 393 214 l 1
 286 214 l 1
286 179 m 1
 286 214 l 1
 393 214 l 1
 393 179 l 1
 286 179 l 1
286 143 m 1
 286 179 l 1
 393 179 l 1
 393 143 l 1
 286 143 l 1
286 107 m 1
 286 143 l 1
 393 143 l 1
 393 107 l 1
 286 107 l 1
250 71 m 1
 250 107 l 1
 357 107 l 1
 357 71 l 1
 250 71 l 1
250 36 m 1
 250 71 l 1
 357 71 l 1
 357 36 l 1
 250 36 l 1
214 0 m 1
 214 36 l 1
 321 36 l 1
 321 0 l 1
 214 0 l 1
179 -36 m 1
 179 0 l 1
 321 0 l 1
 321 -36 l 1
 179 -36 l 1
143 -71 m 1
 143 -36 l 1
 286 -36 l 1
 286 -71 l 1
 143 -71 l 1
71 -107 m 1
 71 -71 l 1
 214 -71 l 1
 214 -107 l 1
 71 -107 l 1
71 -143 m 1
 71 -107 l 1
 143 -107 l 1
 143 -143 l 1
 71 -143 l 1
EndSplineSet
EndChar

StartChar: asterisk
Encoding: 42 42 11
Width: 500
Flags: HW
LayerCount: 2
Back
Fore
SplineSet
214 571 m 1
 214 607 l 1
 321 607 l 1
 321 571 l 1
 214 571 l 1
214 536 m 1
 214 571 l 1
 321 571 l 1
 321 536 l 1
 214 536 l 1
107 500 m 1
 107 536 l 1
 143 536 l 1
 143 500 l 1
 107 500 l 1
250 500 m 1
 250 536 l 1
 286 536 l 1
 286 500 l 1
 250 500 l 1
393 500 m 1
 393 536 l 1
 429 536 l 1
 429 500 l 1
 393 500 l 1
107 464 m 1
 107 500 l 1
 179 500 l 1
 179 464 l 1
 107 464 l 1
250 464 m 1
 250 500 l 1
 286 500 l 1
 286 464 l 1
 250 464 l 1
357 464 m 1
 357 500 l 1
 429 500 l 1
 429 464 l 1
 357 464 l 1
71 429 m 1
 71 464 l 1
 214 464 l 1
 214 429 l 1
 71 429 l 1
321 429 m 1
 321 464 l 1
 464 464 l 1
 464 429 l 1
 321 429 l 1
71 393 m 1
 71 429 l 1
 214 429 l 1
 214 393 l 1
 71 393 l 1
321 393 m 1
 321 429 l 1
 464 429 l 1
 464 393 l 1
 321 393 l 1
214 357 m 1
 214 393 l 1
 250 393 l 1
 250 357 l 1
 214 357 l 1
321 357 m 1
 321 393 l 1
 357 393 l 1
 357 357 l 1
 321 357 l 1
179 321 m 1
 179 357 l 1
 250 357 l 1
 250 321 l 1
 179 321 l 1
286 321 m 1
 286 357 l 1
 357 357 l 1
 357 321 l 1
 286 321 l 1
107 286 m 1
 107 321 l 1
 250 321 l 1
 250 286 l 1
 107 286 l 1
286 286 m 1
 286 321 l 1
 393 321 l 1
 393 286 l 1
 286 286 l 1
143 250 m 1
 143 286 l 1
 214 286 l 1
 214 250 l 1
 143 250 l 1
321 250 m 1
 321 286 l 1
 429 286 l 1
 429 250 l 1
 321 250 l 1
179 214 m 1
 179 250 l 1
 214 250 l 1
 214 214 l 1
 179 214 l 1
321 214 m 1
 321 250 l 1
 357 250 l 1
 357 214 l 1
 321 214 l 1
EndSplineSet
EndChar

StartChar: plus
Encoding: 43 43 12
Width: 500
Flags: HW
LayerCount: 2
Back
Fore
SplineSet
214 429 m 1
 214 464 l 1
 286 464 l 1
 286 429 l 1
 214 429 l 1
214 393 m 1
 214 429 l 1
 286 429 l 1
 286 393 l 1
 214 393 l 1
214 357 m 1
 214 393 l 1
 286 393 l 1
 286 357 l 1
 214 357 l 1
214 321 m 1
 214 357 l 1
 286 357 l 1
 286 321 l 1
 214 321 l 1
214 286 m 1
 214 321 l 1
 286 321 l 1
 286 286 l 1
 214 286 l 1
36 250 m 1
 36 286 l 1
 464 286 l 1
 464 250 l 1
 36 250 l 1
36 214 m 1
 36 250 l 1
 464 250 l 1
 464 214 l 1
 36 214 l 1
214 179 m 1
 214 214 l 1
 286 214 l 1
 286 179 l 1
 214 179 l 1
214 143 m 1
 214 179 l 1
 286 179 l 1
 286 143 l 1
 214 143 l 1
214 107 m 1
 214 143 l 1
 286 143 l 1
 286 107 l 1
 214 107 l 1
214 71 m 1
 214 107 l 1
 286 107 l 1
 286 71 l 1
 214 71 l 1
214 36 m 1
 214 71 l 1
 286 71 l 1
 286 36 l 1
 214 36 l 1
214 0 m 1
 214 36 l 1
 286 36 l 1
 286 0 l 1
 214 0 l 1
EndSplineSet
EndChar

StartChar: comma
Encoding: 44 44 13
Width: 500
Flags: HW
LayerCount: 2
Back
Fore
SplineSet
179 143 m 1
 179 179 l 1
 321 179 l 1
 321 143 l 1
 179 143 l 1
179 107 m 1
 179 143 l 1
 321 143 l 1
 321 107 l 1
 179 107 l 1
179 71 m 1
 179 107 l 1
 321 107 l 1
 321 71 l 1
 179 71 l 1
179 36 m 1
 179 71 l 1
 321 71 l 1
 321 36 l 1
 179 36 l 1
179 0 m 1
 179 36 l 1
 321 36 l 1
 321 0 l 1
 179 0 l 1
250 -36 m 1
 250 0 l 1
 321 0 l 1
 321 -36 l 1
 250 -36 l 1
250 -71 m 1
 250 -36 l 1
 321 -36 l 1
 321 -71 l 1
 250 -71 l 1
179 -107 m 1
 179 -71 l 1
 286 -71 l 1
 286 -107 l 1
 179 -107 l 1
179 -143 m 1
 179 -107 l 1
 250 -107 l 1
 250 -143 l 1
 179 -143 l 1
EndSplineSet
EndChar

StartChar: period
Encoding: 46 46 15
Width: 500
Flags: HW
LayerCount: 2
Back
Fore
SplineSet
179 71 m 1
 179 107 l 1
 321 107 l 1
 321 71 l 1
 179 71 l 1
179 36 m 1
 179 71 l 1
 321 71 l 1
 321 36 l 1
 179 36 l 1
179 0 m 1
 179 36 l 1
 321 36 l 1
 321 0 l 1
 179 0 l 1
EndSplineSet
EndChar

StartChar: slash
Encoding: 47 47 16
Width: 500
Flags: HW
LayerCount: 2
Back
Fore
SplineSet
393 607 m 1
 393 643 l 1
 500 643 l 1
 500 607 l 1
 393 607 l 1
393 571 m 1
 393 607 l 1
 464 607 l 1
 464 571 l 1
 393 571 l 1
357 536 m 1
 357 571 l 1
 429 571 l 1
 429 536 l 1
 357 536 l 1
357 500 m 1
 357 536 l 1
 429 536 l 1
 429 500 l 1
 357 500 l 1
321 464 m 1
 321 500 l 1
 393 500 l 1
 393 464 l 1
 321 464 l 1
321 429 m 1
 321 464 l 1
 393 464 l 1
 393 429 l 1
 321 429 l 1
286 393 m 1
 286 429 l 1
 357 429 l 1
 357 393 l 1
 286 393 l 1
286 357 m 1
 286 393 l 1
 357 393 l 1
 357 357 l 1
 286 357 l 1
250 321 m 1
 250 357 l 1
 321 357 l 1
 321 321 l 1
 250 321 l 1
250 286 m 1
 250 321 l 1
 321 321 l 1
 321 286 l 1
 250 286 l 1
214 250 m 1
 214 286 l 1
 286 286 l 1
 286 250 l 1
 214 250 l 1
214 214 m 1
 214 250 l 1
 286 250 l 1
 286 214 l 1
 214 214 l 1
179 179 m 1
 179 214 l 1
 250 214 l 1
 250 179 l 1
 179 179 l 1
179 143 m 1
 179 179 l 1
 250 179 l 1
 250 143 l 1
 179 143 l 1
143 107 m 1
 143 143 l 1
 214 143 l 1
 214 107 l 1
 143 107 l 1
143 71 m 1
 143 107 l 1
 214 107 l 1
 214 71 l 1
 143 71 l 1
107 36 m 1
 107 71 l 1
 179 71 l 1
 179 36 l 1
 107 36 l 1
107 0 m 1
 107 36 l 1
 179 36 l 1
 179 0 l 1
 107 0 l 1
71 -36 m 1
 71 0 l 1
 143 0 l 1
 143 -36 l 1
 71 -36 l 1
71 -71 m 1
 71 -36 l 1
 143 -36 l 1
 143 -71 l 1
 71 -71 l 1
36 -107 m 1
 36 -71 l 1
 107 -71 l 1
 107 -107 l 1
 36 -107 l 1
0 -143 m 1
 0 -107 l 1
 107 -107 l 1
 107 -143 l 1
 0 -143 l 1
EndSplineSet
EndChar

StartChar: zero
Encoding: 48 48 17
Width: 500
Flags: HW
LayerCount: 2
Back
Fore
SplineSet
179 571 m 1
 179 607 l 1
 357 607 l 1
 357 571 l 1
 179 571 l 1
107 536 m 1
 107 571 l 1
 429 571 l 1
 429 536 l 1
 107 536 l 1
107 500 m 1
 107 536 l 1
 214 536 l 1
 214 500 l 1
 107 500 l 1
321 500 m 1
 321 536 l 1
 429 536 l 1
 429 500 l 1
 321 500 l 1
71 464 m 1
 71 500 l 1
 179 500 l 1
 179 464 l 1
 71 464 l 1
357 464 m 1
 357 500 l 1
 464 500 l 1
 464 464 l 1
 357 464 l 1
71 429 m 1
 71 464 l 1
 143 464 l 1
 143 429 l 1
 71 429 l 1
393 429 m 1
 393 464 l 1
 464 464 l 1
 464 429 l 1
 393 429 l 1
36 393 m 1
 36 429 l 1
 143 429 l 1
 143 393 l 1
 36 393 l 1
393 393 m 1
 393 429 l 1
 500 429 l 1
 500 393 l 1
 393 393 l 1
36 357 m 1
 36 393 l 1
 143 393 l 1
 143 357 l 1
 36 357 l 1
393 357 m 1
 393 393 l 1
 500 393 l 1
 500 357 l 1
 393 357 l 1
36 321 m 1
 36 357 l 1
 143 357 l 1
 143 321 l 1
 36 321 l 1
393 321 m 1
 393 357 l 1
 500 357 l 1
 500 321 l 1
 393 321 l 1
36 286 m 1
 36 321 l 1
 143 321 l 1
 143 286 l 1
 36 286 l 1
393 286 m 1
 393 321 l 1
 500 321 l 1
 500 286 l 1
 393 286 l 1
36 250 m 1
 36 286 l 1
 143 286 l 1
 143 250 l 1
 36 250 l 1
393 250 m 1
 393 286 l 1
 500 286 l 1
 500 250 l 1
 393 250 l 1
36 214 m 1
 36 250 l 1
 143 250 l 1
 143 214 l 1
 36 214 l 1
393 214 m 1
 393 250 l 1
 500 250 l 1
 500 214 l 1
 393 214 l 1
36 179 m 1
 36 214 l 1
 143 214 l 1
 143 179 l 1
 36 179 l 1
393 179 m 1
 393 214 l 1
 500 214 l 1
 500 179 l 1
 393 179 l 1
71 143 m 1
 71 179 l 1
 143 179 l 1
 143 143 l 1
 71 143 l 1
393 143 m 1
 393 179 l 1
 464 179 l 1
 464 143 l 1
 393 143 l 1
71 107 m 1
 71 143 l 1
 179 143 l 1
 179 107 l 1
 71 107 l 1
357 107 m 1
 357 143 l 1
 464 143 l 1
 464 107 l 1
 357 107 l 1
107 71 m 1
 107 107 l 1
 214 107 l 1
 214 71 l 1
 107 71 l 1
321 71 m 1
 321 107 l 1
 429 107 l 1
 429 71 l 1
 321 71 l 1
107 36 m 1
 107 71 l 1
 429 71 l 1
 429 36 l 1
 107 36 l 1
179 0 m 1
 179 36 l 1
 357 36 l 1
 357 0 l 1
 179 0 l 1
EndSplineSet
EndChar

StartChar: one
Encoding: 49 49 18
Width: 500
Flags: HW
LayerCount: 2
Back
Fore
SplineSet
107 571 m 1
 107 607 l 1
 321 607 l 1
 321 571 l 1
 107 571 l 1
107 536 m 1
 107 571 l 1
 321 571 l 1
 321 536 l 1
 107 536 l 1
214 500 m 1
 214 536 l 1
 321 536 l 1
 321 500 l 1
 214 500 l 1
214 464 m 1
 214 500 l 1
 321 500 l 1
 321 464 l 1
 214 464 l 1
214 429 m 1
 214 464 l 1
 321 464 l 1
 321 429 l 1
 214 429 l 1
214 393 m 1
 214 429 l 1
 321 429 l 1
 321 393 l 1
 214 393 l 1
214 357 m 1
 214 393 l 1
 321 393 l 1
 321 357 l 1
 214 357 l 1
214 321 m 1
 214 357 l 1
 321 357 l 1
 321 321 l 1
 214 321 l 1
214 286 m 1
 214 321 l 1
 321 321 l 1
 321 286 l 1
 214 286 l 1
214 250 m 1
 214 286 l 1
 321 286 l 1
 321 250 l 1
 214 250 l 1
214 214 m 1
 214 250 l 1
 321 250 l 1
 321 214 l 1
 214 214 l 1
214 179 m 1
 214 214 l 1
 321 214 l 1
 321 179 l 1
 214 179 l 1
214 143 m 1
 214 179 l 1
 321 179 l 1
 321 143 l 1
 214 143 l 1
214 107 m 1
 214 143 l 1
 321 143 l 1
 321 107 l 1
 214 107 l 1
214 71 m 1
 214 107 l 1
 321 107 l 1
 321 71 l 1
 214 71 l 1
107 36 m 1
 107 71 l 1
 429 71 l 1
 429 36 l 1
 107 36 l 1
107 0 m 1
 107 36 l 1
 429 36 l 1
 429 0 l 1
 107 0 l 1
EndSplineSet
EndChar

StartChar: two
Encoding: 50 50 19
Width: 500
Flags: HW
LayerCount: 2
Back
Fore
SplineSet
107 571 m 1
 107 607 l 1
 321 607 l 1
 321 571 l 1
 107 571 l 1
107 536 m 1
 107 571 l 1
 393 571 l 1
 393 536 l 1
 107 536 l 1
107 500 m 1
 107 536 l 1
 143 536 l 1
 143 500 l 1
 107 500 l 1
286 500 m 1
 286 536 l 1
 393 536 l 1
 393 500 l 1
 286 500 l 1
321 464 m 1
 321 500 l 1
 429 500 l 1
 429 464 l 1
 321 464 l 1
321 429 m 1
 321 464 l 1
 429 464 l 1
 429 429 l 1
 321 429 l 1
321 393 m 1
 321 429 l 1
 429 429 l 1
 429 393 l 1
 321 393 l 1
321 357 m 1
 321 393 l 1
 429 393 l 1
 429 357 l 1
 321 357 l 1
286 321 m 1
 286 357 l 1
 393 357 l 1
 393 321 l 1
 286 321 l 1
250 286 m 1
 250 321 l 1
 357 321 l 1
 357 286 l 1
 250 286 l 1
214 250 m 1
 214 286 l 1
 321 286 l 1
 321 250 l 1
 214 250 l 1
179 214 m 1
 179 250 l 1
 286 250 l 1
 286 214 l 1
 179 214 l 1
143 179 m 1
 143 214 l 1
 250 214 l 1
 250 179 l 1
 143 179 l 1
143 143 m 1
 143 179 l 1
 250 179 l 1
 250 143 l 1
 143 143 l 1
107 107 m 1
 107 143 l 1
 214 143 l 1
 214 107 l 1
 107 107 l 1
71 71 m 1
 71 107 l 1
 179 107 l 1
 179 71 l 1
 71 71 l 1
71 36 m 1
 71 71 l 1
 429 71 l 1
 429 36 l 1
 71 36 l 1
71 0 m 1
 71 36 l 1
 429 36 l 1
 429 0 l 1
 71 0 l 1
EndSplineSet
EndChar

StartChar: three
Encoding: 51 51 20
Width: 500
Flags: HW
LayerCount: 2
Back
Fore
SplineSet
143 571 m 1
 143 607 l 1
 357 607 l 1
 357 571 l 1
 143 571 l 1
107 536 m 1
 107 571 l 1
 393 571 l 1
 393 536 l 1
 107 536 l 1
107 500 m 1
 107 536 l 1
 143 536 l 1
 143 500 l 1
 107 500 l 1
286 500 m 1
 286 536 l 1
 429 536 l 1
 429 500 l 1
 286 500 l 1
321 464 m 1
 321 500 l 1
 429 500 l 1
 429 464 l 1
 321 464 l 1
321 429 m 1
 321 464 l 1
 429 464 l 1
 429 429 l 1
 321 429 l 1
321 393 m 1
 321 429 l 1
 429 429 l 1
 429 393 l 1
 321 393 l 1
250 357 m 1
 250 393 l 1
 393 393 l 1
 393 357 l 1
 250 357 l 1
143 321 m 1
 143 357 l 1
 321 357 l 1
 321 321 l 1
 143 321 l 1
143 286 m 1
 143 321 l 1
 357 321 l 1
 357 286 l 1
 143 286 l 1
250 250 m 1
 250 286 l 1
 393 286 l 1
 393 250 l 1
 250 250 l 1
321 214 m 1
 321 250 l 1
 429 250 l 1
 429 214 l 1
 321 214 l 1
321 179 m 1
 321 214 l 1
 429 214 l 1
 429 179 l 1
 321 179 l 1
321 143 m 1
 321 179 l 1
 429 179 l 1
 429 143 l 1
 321 143 l 1
321 107 m 1
 321 143 l 1
 429 143 l 1
 429 107 l 1
 321 107 l 1
107 71 m 1
 107 107 l 1
 143 107 l 1
 143 71 l 1
 107 71 l 1
286 71 m 1
 286 107 l 1
 393 107 l 1
 393 71 l 1
 286 71 l 1
107 36 m 1
 107 71 l 1
 393 71 l 1
 393 36 l 1
 107 36 l 1
107 0 m 1
 107 36 l 1
 321 36 l 1
 321 0 l 1
 107 0 l 1
EndSplineSet
EndChar

StartChar: four
Encoding: 52 52 21
Width: 500
Flags: HW
LayerCount: 2
Back
Fore
SplineSet
286 571 m 1
 286 607 l 1
 393 607 l 1
 393 571 l 1
 286 571 l 1
250 536 m 1
 250 571 l 1
 393 571 l 1
 393 536 l 1
 250 536 l 1
214 500 m 1
 214 536 l 1
 393 536 l 1
 393 500 l 1
 214 500 l 1
214 464 m 1
 214 500 l 1
 393 500 l 1
 393 464 l 1
 214 464 l 1
179 429 m 1
 179 464 l 1
 393 464 l 1
 393 429 l 1
 179 429 l 1
179 393 m 1
 179 429 l 1
 250 429 l 1
 250 393 l 1
 179 393 l 1
286 393 m 1
 286 429 l 1
 393 429 l 1
 393 393 l 1
 286 393 l 1
143 357 m 1
 143 393 l 1
 214 393 l 1
 214 357 l 1
 143 357 l 1
286 357 m 1
 286 393 l 1
 393 393 l 1
 393 357 l 1
 286 357 l 1
143 321 m 1
 143 357 l 1
 214 357 l 1
 214 321 l 1
 143 321 l 1
286 321 m 1
 286 357 l 1
 393 357 l 1
 393 321 l 1
 286 321 l 1
107 286 m 1
 107 321 l 1
 179 321 l 1
 179 286 l 1
 107 286 l 1
286 286 m 1
 286 321 l 1
 393 321 l 1
 393 286 l 1
 286 286 l 1
71 250 m 1
 71 286 l 1
 179 286 l 1
 179 250 l 1
 71 250 l 1
286 250 m 1
 286 286 l 1
 393 286 l 1
 393 250 l 1
 286 250 l 1
71 214 m 1
 71 250 l 1
 464 250 l 1
 464 214 l 1
 71 214 l 1
71 179 m 1
 71 214 l 1
 464 214 l 1
 464 179 l 1
 71 179 l 1
71 143 m 1
 71 179 l 1
 464 179 l 1
 464 143 l 1
 71 143 l 1
286 107 m 1
 286 143 l 1
 393 143 l 1
 393 107 l 1
 286 107 l 1
286 71 m 1
 286 107 l 1
 393 107 l 1
 393 71 l 1
 286 71 l 1
286 36 m 1
 286 71 l 1
 393 71 l 1
 393 36 l 1
 286 36 l 1
286 0 m 1
 286 36 l 1
 393 36 l 1
 393 0 l 1
 286 0 l 1
EndSplineSet
EndChar

StartChar: five
Encoding: 53 53 22
Width: 500
Flags: HW
LayerCount: 2
Back
Fore
SplineSet
107 571 m 1
 107 607 l 1
 429 607 l 1
 429 571 l 1
 107 571 l 1
107 536 m 1
 107 571 l 1
 429 571 l 1
 429 536 l 1
 107 536 l 1
107 500 m 1
 107 536 l 1
 214 536 l 1
 214 500 l 1
 107 500 l 1
107 464 m 1
 107 500 l 1
 214 500 l 1
 214 464 l 1
 107 464 l 1
107 429 m 1
 107 464 l 1
 214 464 l 1
 214 429 l 1
 107 429 l 1
107 393 m 1
 107 429 l 1
 179 429 l 1
 179 393 l 1
 107 393 l 1
107 357 m 1
 107 393 l 1
 286 393 l 1
 286 357 l 1
 107 357 l 1
107 321 m 1
 107 357 l 1
 357 357 l 1
 357 321 l 1
 107 321 l 1
250 286 m 1
 250 321 l 1
 393 321 l 1
 393 286 l 1
 250 286 l 1
286 250 m 1
 286 286 l 1
 429 286 l 1
 429 250 l 1
 286 250 l 1
321 214 m 1
 321 250 l 1
 429 250 l 1
 429 214 l 1
 321 214 l 1
321 179 m 1
 321 214 l 1
 429 214 l 1
 429 179 l 1
 321 179 l 1
321 143 m 1
 321 179 l 1
 429 179 l 1
 429 143 l 1
 321 143 l 1
321 107 m 1
 321 143 l 1
 429 143 l 1
 429 107 l 1
 321 107 l 1
107 71 m 1
 107 107 l 1
 143 107 l 1
 143 71 l 1
 107 71 l 1
286 71 m 1
 286 107 l 1
 393 107 l 1
 393 71 l 1
 286 71 l 1
107 36 m 1
 107 71 l 1
 357 71 l 1
 357 36 l 1
 107 36 l 1
107 0 m 1
 107 36 l 1
 321 36 l 1
 321 0 l 1
 107 0 l 1
EndSplineSet
EndChar

StartChar: six
Encoding: 54 54 23
Width: 500
Flags: HW
LayerCount: 2
Back
Fore
SplineSet
214 571 m 1
 214 607 l 1
 429 607 l 1
 429 571 l 1
 214 571 l 1
143 536 m 1
 143 571 l 1
 429 571 l 1
 429 536 l 1
 143 536 l 1
107 500 m 1
 107 536 l 1
 250 536 l 1
 250 500 l 1
 107 500 l 1
393 500 m 1
 393 536 l 1
 429 536 l 1
 429 500 l 1
 393 500 l 1
71 464 m 1
 71 500 l 1
 179 500 l 1
 179 464 l 1
 71 464 l 1
71 429 m 1
 71 464 l 1
 179 464 l 1
 179 429 l 1
 71 429 l 1
36 393 m 1
 36 429 l 1
 143 429 l 1
 143 393 l 1
 36 393 l 1
36 357 m 1
 36 393 l 1
 143 393 l 1
 143 357 l 1
 36 357 l 1
214 357 m 1
 214 393 l 1
 357 393 l 1
 357 357 l 1
 214 357 l 1
36 321 m 1
 36 357 l 1
 429 357 l 1
 429 321 l 1
 36 321 l 1
36 286 m 1
 36 321 l 1
 179 321 l 1
 179 286 l 1
 36 286 l 1
321 286 m 1
 321 321 l 1
 429 321 l 1
 429 286 l 1
 321 286 l 1
36 250 m 1
 36 286 l 1
 143 286 l 1
 143 250 l 1
 36 250 l 1
357 250 m 1
 357 286 l 1
 464 286 l 1
 464 250 l 1
 357 250 l 1
36 214 m 1
 36 250 l 1
 143 250 l 1
 143 214 l 1
 36 214 l 1
357 214 m 1
 357 250 l 1
 464 250 l 1
 464 214 l 1
 357 214 l 1
36 179 m 1
 36 214 l 1
 143 214 l 1
 143 179 l 1
 36 179 l 1
357 179 m 1
 357 214 l 1
 464 214 l 1
 464 179 l 1
 357 179 l 1
36 143 m 1
 36 179 l 1
 143 179 l 1
 143 143 l 1
 36 143 l 1
357 143 m 1
 357 179 l 1
 464 179 l 1
 464 143 l 1
 357 143 l 1
71 107 m 1
 71 143 l 1
 179 143 l 1
 179 107 l 1
 71 107 l 1
357 107 m 1
 357 143 l 1
 464 143 l 1
 464 107 l 1
 357 107 l 1
71 71 m 1
 71 107 l 1
 179 107 l 1
 179 71 l 1
 71 71 l 1
321 71 m 1
 321 107 l 1
 429 107 l 1
 429 71 l 1
 321 71 l 1
107 36 m 1
 107 71 l 1
 393 71 l 1
 393 36 l 1
 107 36 l 1
179 0 m 1
 179 36 l 1
 357 36 l 1
 357 0 l 1
 179 0 l 1
EndSplineSet
EndChar

StartChar: seven
Encoding: 55 55 24
Width: 500
Flags: HW
LayerCount: 2
Back
Fore
SplineSet
107 571 m 1
 107 607 l 1
 464 607 l 1
 464 571 l 1
 107 571 l 1
107 536 m 1
 107 571 l 1
 464 571 l 1
 464 536 l 1
 107 536 l 1
357 500 m 1
 357 536 l 1
 464 536 l 1
 464 500 l 1
 357 500 l 1
357 464 m 1
 357 500 l 1
 429 500 l 1
 429 464 l 1
 357 464 l 1
321 429 m 1
 321 464 l 1
 429 464 l 1
 429 429 l 1
 321 429 l 1
286 393 m 1
 286 429 l 1
 393 429 l 1
 393 393 l 1
 286 393 l 1
286 357 m 1
 286 393 l 1
 393 393 l 1
 393 357 l 1
 286 357 l 1
250 321 m 1
 250 357 l 1
 357 357 l 1
 357 321 l 1
 250 321 l 1
250 286 m 1
 250 321 l 1
 321 321 l 1
 321 286 l 1
 250 286 l 1
214 250 m 1
 214 286 l 1
 321 286 l 1
 321 250 l 1
 214 250 l 1
214 214 m 1
 214 250 l 1
 286 250 l 1
 286 214 l 1
 214 214 l 1
179 179 m 1
 179 214 l 1
 286 214 l 1
 286 179 l 1
 179 179 l 1
179 143 m 1
 179 179 l 1
 286 179 l 1
 286 143 l 1
 179 143 l 1
179 107 m 1
 179 143 l 1
 250 143 l 1
 250 107 l 1
 179 107 l 1
143 71 m 1
 143 107 l 1
 250 107 l 1
 250 71 l 1
 143 71 l 1
143 36 m 1
 143 71 l 1
 250 71 l 1
 250 36 l 1
 143 36 l 1
143 0 m 1
 143 36 l 1
 250 36 l 1
 250 0 l 1
 143 0 l 1
EndSplineSet
EndChar

StartChar: eight
Encoding: 56 56 25
Width: 500
Flags: HW
LayerCount: 2
Back
Fore
SplineSet
179 571 m 1
 179 607 l 1
 357 607 l 1
 357 571 l 1
 179 571 l 1
107 536 m 1
 107 571 l 1
 393 571 l 1
 393 536 l 1
 107 536 l 1
71 500 m 1
 71 536 l 1
 179 536 l 1
 179 500 l 1
 71 500 l 1
286 500 m 1
 286 536 l 1
 429 536 l 1
 429 500 l 1
 286 500 l 1
71 464 m 1
 71 500 l 1
 179 500 l 1
 179 464 l 1
 71 464 l 1
321 464 m 1
 321 500 l 1
 429 500 l 1
 429 464 l 1
 321 464 l 1
71 429 m 1
 71 464 l 1
 179 464 l 1
 179 429 l 1
 71 429 l 1
321 429 m 1
 321 464 l 1
 429 464 l 1
 429 429 l 1
 321 429 l 1
71 393 m 1
 71 429 l 1
 250 429 l 1
 250 393 l 1
 71 393 l 1
286 393 m 1
 286 429 l 1
 429 429 l 1
 429 393 l 1
 286 393 l 1
107 357 m 1
 107 393 l 1
 393 393 l 1
 393 357 l 1
 107 357 l 1
143 321 m 1
 143 357 l 1
 321 357 l 1
 321 321 l 1
 143 321 l 1
143 286 m 1
 143 321 l 1
 393 321 l 1
 393 286 l 1
 143 286 l 1
71 250 m 1
 71 286 l 1
 429 286 l 1
 429 250 l 1
 71 250 l 1
36 214 m 1
 36 250 l 1
 179 250 l 1
 179 214 l 1
 36 214 l 1
286 214 m 1
 286 250 l 1
 464 250 l 1
 464 214 l 1
 286 214 l 1
36 179 m 1
 36 214 l 1
 143 214 l 1
 143 179 l 1
 36 179 l 1
321 179 m 1
 321 214 l 1
 464 214 l 1
 464 179 l 1
 321 179 l 1
36 143 m 1
 36 179 l 1
 143 179 l 1
 143 143 l 1
 36 143 l 1
357 143 m 1
 357 179 l 1
 464 179 l 1
 464 143 l 1
 357 143 l 1
36 107 m 1
 36 143 l 1
 143 143 l 1
 143 107 l 1
 36 107 l 1
357 107 m 1
 357 143 l 1
 464 143 l 1
 464 107 l 1
 357 107 l 1
36 71 m 1
 36 107 l 1
 179 107 l 1
 179 71 l 1
 36 71 l 1
321 71 m 1
 321 107 l 1
 429 107 l 1
 429 71 l 1
 321 71 l 1
71 36 m 1
 71 71 l 1
 429 71 l 1
 429 36 l 1
 71 36 l 1
143 0 m 1
 143 36 l 1
 357 36 l 1
 357 0 l 1
 143 0 l 1
EndSplineSet
EndChar

StartChar: nine
Encoding: 57 57 26
Width: 500
Flags: HW
LayerCount: 2
Back
Fore
SplineSet
143 571 m 1
 143 607 l 1
 321 607 l 1
 321 571 l 1
 143 571 l 1
107 536 m 1
 107 571 l 1
 393 571 l 1
 393 536 l 1
 107 536 l 1
71 500 m 1
 71 536 l 1
 179 536 l 1
 179 500 l 1
 71 500 l 1
321 500 m 1
 321 536 l 1
 429 536 l 1
 429 500 l 1
 321 500 l 1
36 464 m 1
 36 500 l 1
 143 500 l 1
 143 464 l 1
 36 464 l 1
321 464 m 1
 321 500 l 1
 429 500 l 1
 429 464 l 1
 321 464 l 1
36 429 m 1
 36 464 l 1
 143 464 l 1
 143 429 l 1
 36 429 l 1
357 429 m 1
 357 464 l 1
 464 464 l 1
 464 429 l 1
 357 429 l 1
36 393 m 1
 36 429 l 1
 143 429 l 1
 143 393 l 1
 36 393 l 1
357 393 m 1
 357 429 l 1
 464 429 l 1
 464 393 l 1
 357 393 l 1
36 357 m 1
 36 393 l 1
 143 393 l 1
 143 357 l 1
 36 357 l 1
357 357 m 1
 357 393 l 1
 464 393 l 1
 464 357 l 1
 357 357 l 1
36 321 m 1
 36 357 l 1
 143 357 l 1
 143 321 l 1
 36 321 l 1
357 321 m 1
 357 357 l 1
 464 357 l 1
 464 321 l 1
 357 321 l 1
71 286 m 1
 71 321 l 1
 179 321 l 1
 179 286 l 1
 71 286 l 1
321 286 m 1
 321 321 l 1
 464 321 l 1
 464 286 l 1
 321 286 l 1
71 250 m 1
 71 286 l 1
 464 286 l 1
 464 250 l 1
 71 250 l 1
143 214 m 1
 143 250 l 1
 286 250 l 1
 286 214 l 1
 143 214 l 1
357 214 m 1
 357 250 l 1
 464 250 l 1
 464 214 l 1
 357 214 l 1
357 179 m 1
 357 214 l 1
 464 214 l 1
 464 179 l 1
 357 179 l 1
321 143 m 1
 321 179 l 1
 429 179 l 1
 429 143 l 1
 321 143 l 1
321 107 m 1
 321 143 l 1
 429 143 l 1
 429 107 l 1
 321 107 l 1
71 71 m 1
 71 107 l 1
 107 107 l 1
 107 71 l 1
 71 71 l 1
250 71 m 1
 250 107 l 1
 393 107 l 1
 393 71 l 1
 250 71 l 1
71 36 m 1
 71 71 l 1
 357 71 l 1
 357 36 l 1
 71 36 l 1
71 0 m 1
 71 36 l 1
 286 36 l 1
 286 0 l 1
 71 0 l 1
EndSplineSet
EndChar

StartChar: colon
Encoding: 58 58 27
Width: 500
Flags: HW
LayerCount: 2
Back
Fore
SplineSet
214 429 m 1
 214 464 l 1
 321 464 l 1
 321 429 l 1
 214 429 l 1
214 393 m 1
 214 429 l 1
 321 429 l 1
 321 393 l 1
 214 393 l 1
214 357 m 1
 214 393 l 1
 321 393 l 1
 321 357 l 1
 214 357 l 1
214 71 m 1
 214 107 l 1
 321 107 l 1
 321 71 l 1
 214 71 l 1
214 36 m 1
 214 71 l 1
 321 71 l 1
 321 36 l 1
 214 36 l 1
214 0 m 1
 214 36 l 1
 321 36 l 1
 321 0 l 1
 214 0 l 1
EndSplineSet
EndChar

StartChar: semicolon
Encoding: 59 59 28
Width: 500
Flags: HW
LayerCount: 2
Back
Fore
SplineSet
214 429 m 1
 214 464 l 1
 321 464 l 1
 321 429 l 1
 214 429 l 1
214 393 m 1
 214 429 l 1
 321 429 l 1
 321 393 l 1
 214 393 l 1
214 357 m 1
 214 393 l 1
 321 393 l 1
 321 357 l 1
 214 357 l 1
214 107 m 1
 214 143 l 1
 321 143 l 1
 321 107 l 1
 214 107 l 1
214 71 m 1
 214 107 l 1
 321 107 l 1
 321 71 l 1
 214 71 l 1
214 36 m 1
 214 71 l 1
 321 71 l 1
 321 36 l 1
 214 36 l 1
214 0 m 1
 214 36 l 1
 321 36 l 1
 321 0 l 1
 214 0 l 1
250 -36 m 1
 250 0 l 1
 321 0 l 1
 321 -36 l 1
 250 -36 l 1
250 -71 m 1
 250 -36 l 1
 321 -36 l 1
 321 -71 l 1
 250 -71 l 1
214 -107 m 1
 214 -71 l 1
 321 -71 l 1
 321 -107 l 1
 214 -107 l 1
214 -143 m 1
 214 -107 l 1
 286 -107 l 1
 286 -143 l 1
 214 -143 l 1
EndSplineSet
EndChar

StartChar: less
Encoding: 60 60 29
Width: 500
Flags: HW
LayerCount: 2
Back
Fore
SplineSet
357 429 m 1
 357 464 l 1
 393 464 l 1
 393 429 l 1
 357 429 l 1
321 393 m 1
 321 429 l 1
 393 429 l 1
 393 393 l 1
 321 393 l 1
250 357 m 1
 250 393 l 1
 393 393 l 1
 393 357 l 1
 250 357 l 1
179 321 m 1
 179 357 l 1
 321 357 l 1
 321 321 l 1
 179 321 l 1
107 286 m 1
 107 321 l 1
 286 321 l 1
 286 286 l 1
 107 286 l 1
71 250 m 1
 71 286 l 1
 214 286 l 1
 214 250 l 1
 71 250 l 1
0 214 m 1
 0 250 l 1
 143 250 l 1
 143 214 l 1
 0 214 l 1
71 179 m 1
 71 214 l 1
 214 214 l 1
 214 179 l 1
 71 179 l 1
107 143 m 1
 107 179 l 1
 286 179 l 1
 286 143 l 1
 107 143 l 1
179 107 m 1
 179 143 l 1
 321 143 l 1
 321 107 l 1
 179 107 l 1
250 71 m 1
 250 107 l 1
 393 107 l 1
 393 71 l 1
 250 71 l 1
321 36 m 1
 321 71 l 1
 393 71 l 1
 393 36 l 1
 321 36 l 1
357 0 m 1
 357 36 l 1
 393 36 l 1
 393 0 l 1
 357 0 l 1
EndSplineSet
EndChar

StartChar: equal
Encoding: 61 61 30
Width: 500
Flags: HW
LayerCount: 2
Back
Fore
SplineSet
36 357 m 1
 36 393 l 1
 464 393 l 1
 464 357 l 1
 36 357 l 1
36 321 m 1
 36 357 l 1
 464 357 l 1
 464 321 l 1
 36 321 l 1
36 107 m 1
 36 143 l 1
 464 143 l 1
 464 107 l 1
 36 107 l 1
36 71 m 1
 36 107 l 1
 464 107 l 1
 464 71 l 1
 36 71 l 1
EndSplineSet
EndChar

StartChar: greater
Encoding: 62 62 31
Width: 500
Flags: HW
LayerCount: 2
Back
Fore
SplineSet
36 429 m 1
 36 464 l 1
 71 464 l 1
 71 429 l 1
 36 429 l 1
36 393 m 1
 36 429 l 1
 107 429 l 1
 107 393 l 1
 36 393 l 1
36 357 m 1
 36 393 l 1
 179 393 l 1
 179 357 l 1
 36 357 l 1
107 321 m 1
 107 357 l 1
 250 357 l 1
 250 321 l 1
 107 321 l 1
143 286 m 1
 143 321 l 1
 321 321 l 1
 321 286 l 1
 143 286 l 1
214 250 m 1
 214 286 l 1
 357 286 l 1
 357 250 l 1
 214 250 l 1
286 214 m 1
 286 250 l 1
 429 250 l 1
 429 214 l 1
 286 214 l 1
214 179 m 1
 214 214 l 1
 357 214 l 1
 357 179 l 1
 214 179 l 1
143 143 m 1
 143 179 l 1
 321 179 l 1
 321 143 l 1
 143 143 l 1
107 107 m 1
 107 143 l 1
 250 143 l 1
 250 107 l 1
 107 107 l 1
36 71 m 1
 36 107 l 1
 179 107 l 1
 179 71 l 1
 36 71 l 1
36 36 m 1
 36 71 l 1
 107 71 l 1
 107 36 l 1
 36 36 l 1
36 0 m 1
 36 36 l 1
 71 36 l 1
 71 0 l 1
 36 0 l 1
EndSplineSet
EndChar

StartChar: question
Encoding: 63 63 32
Width: 500
Flags: HW
LayerCount: 2
Back
Fore
SplineSet
107 571 m 1
 107 607 l 1
 357 607 l 1
 357 571 l 1
 107 571 l 1
71 536 m 1
 71 571 l 1
 429 571 l 1
 429 536 l 1
 71 536 l 1
71 500 m 1
 71 536 l 1
 143 536 l 1
 143 500 l 1
 71 500 l 1
321 500 m 1
 321 536 l 1
 464 536 l 1
 464 500 l 1
 321 500 l 1
71 464 m 1
 71 500 l 1
 143 500 l 1
 143 464 l 1
 71 464 l 1
357 464 m 1
 357 500 l 1
 464 500 l 1
 464 464 l 1
 357 464 l 1
71 429 m 1
 71 464 l 1
 143 464 l 1
 143 429 l 1
 71 429 l 1
357 429 m 1
 357 464 l 1
 464 464 l 1
 464 429 l 1
 357 429 l 1
321 393 m 1
 321 429 l 1
 464 429 l 1
 464 393 l 1
 321 393 l 1
286 357 m 1
 286 393 l 1
 429 393 l 1
 429 357 l 1
 286 357 l 1
250 321 m 1
 250 357 l 1
 357 357 l 1
 357 321 l 1
 250 321 l 1
214 286 m 1
 214 321 l 1
 321 321 l 1
 321 286 l 1
 214 286 l 1
179 250 m 1
 179 286 l 1
 286 286 l 1
 286 250 l 1
 179 250 l 1
143 214 m 1
 143 250 l 1
 250 250 l 1
 250 214 l 1
 143 214 l 1
143 179 m 1
 143 214 l 1
 250 214 l 1
 250 179 l 1
 143 179 l 1
143 36 m 1
 143 71 l 1
 250 71 l 1
 250 36 l 1
 143 36 l 1
143 0 m 1
 143 36 l 1
 250 36 l 1
 250 0 l 1
 143 0 l 1
EndSplineSet
EndChar

StartChar: at
Encoding: 64 64 33
Width: 500
Flags: HW
LayerCount: 2
Back
Fore
SplineSet
179 571 m 1
 179 607 l 1
 357 607 l 1
 357 571 l 1
 179 571 l 1
107 536 m 1
 107 571 l 1
 429 571 l 1
 429 536 l 1
 107 536 l 1
71 500 m 1
 71 536 l 1
 214 536 l 1
 214 500 l 1
 71 500 l 1
357 500 m 1
 357 536 l 1
 464 536 l 1
 464 500 l 1
 357 500 l 1
36 464 m 1
 36 500 l 1
 143 500 l 1
 143 464 l 1
 36 464 l 1
393 464 m 1
 393 500 l 1
 464 500 l 1
 464 464 l 1
 393 464 l 1
36 429 m 1
 36 464 l 1
 107 464 l 1
 107 429 l 1
 36 429 l 1
250 429 m 1
 250 464 l 1
 357 464 l 1
 357 429 l 1
 250 429 l 1
393 429 m 1
 393 464 l 1
 464 464 l 1
 464 429 l 1
 393 429 l 1
36 393 m 1
 36 429 l 1
 107 429 l 1
 107 393 l 1
 36 393 l 1
179 393 m 1
 179 429 l 1
 464 429 l 1
 464 393 l 1
 179 393 l 1
0 357 m 1
 0 393 l 1
 71 393 l 1
 71 357 l 1
 0 357 l 1
179 357 m 1
 179 393 l 1
 250 393 l 1
 250 357 l 1
 179 357 l 1
393 357 m 1
 393 393 l 1
 464 393 l 1
 464 357 l 1
 393 357 l 1
0 321 m 1
 0 357 l 1
 71 357 l 1
 71 321 l 1
 0 321 l 1
143 321 m 1
 143 357 l 1
 214 357 l 1
 214 321 l 1
 143 321 l 1
393 321 m 1
 393 357 l 1
 464 357 l 1
 464 321 l 1
 393 321 l 1
0 286 m 1
 0 321 l 1
 71 321 l 1
 71 286 l 1
 0 286 l 1
143 286 m 1
 143 321 l 1
 214 321 l 1
 214 286 l 1
 143 286 l 1
357 286 m 1
 357 321 l 1
 464 321 l 1
 464 286 l 1
 357 286 l 1
0 250 m 1
 0 286 l 1
 71 286 l 1
 71 250 l 1
 0 250 l 1
143 250 m 1
 143 286 l 1
 214 286 l 1
 214 250 l 1
 143 250 l 1
321 250 m 1
 321 286 l 1
 464 286 l 1
 464 250 l 1
 321 250 l 1
0 214 m 1
 0 250 l 1
 71 250 l 1
 71 214 l 1
 0 214 l 1
143 214 m 1
 143 250 l 1
 214 250 l 1
 214 214 l 1
 143 214 l 1
286 214 m 1
 286 250 l 1
 464 250 l 1
 464 214 l 1
 286 214 l 1
0 179 m 1
 0 214 l 1
 71 214 l 1
 71 179 l 1
 0 179 l 1
143 179 m 1
 143 214 l 1
 357 214 l 1
 357 179 l 1
 143 179 l 1
393 179 m 1
 393 214 l 1
 500 214 l 1
 500 179 l 1
 393 179 l 1
36 143 m 1
 36 179 l 1
 107 179 l 1
 107 143 l 1
 36 143 l 1
179 143 m 1
 179 179 l 1
 321 179 l 1
 321 143 l 1
 179 143 l 1
393 143 m 1
 393 179 l 1
 500 179 l 1
 500 143 l 1
 393 143 l 1
36 107 m 1
 36 143 l 1
 143 143 l 1
 143 107 l 1
 36 107 l 1
71 71 m 1
 71 107 l 1
 179 107 l 1
 179 71 l 1
 71 71 l 1
357 71 m 1
 357 107 l 1
 393 107 l 1
 393 71 l 1
 357 71 l 1
107 36 m 1
 107 71 l 1
 393 71 l 1
 393 36 l 1
 107 36 l 1
143 0 m 1
 143 36 l 1
 357 36 l 1
 357 0 l 1
 143 0 l 1
EndSplineSet
EndChar

StartChar: A
Encoding: 65 65 34
Width: 500
Flags: HW
LayerCount: 2
Back
Fore
SplineSet
214 571 m 1
 214 607 l 1
 321 607 l 1
 321 571 l 1
 214 571 l 1
179 536 m 1
 179 571 l 1
 321 571 l 1
 321 536 l 1
 179 536 l 1
179 500 m 1
 179 536 l 1
 357 536 l 1
 357 500 l 1
 179 500 l 1
179 464 m 1
 179 500 l 1
 357 500 l 1
 357 464 l 1
 179 464 l 1
143 429 m 1
 143 464 l 1
 214 464 l 1
 214 429 l 1
 143 429 l 1
250 429 m 1
 250 464 l 1
 357 464 l 1
 357 429 l 1
 250 429 l 1
143 393 m 1
 143 429 l 1
 214 429 l 1
 214 393 l 1
 143 393 l 1
250 393 m 1
 250 429 l 1
 357 429 l 1
 357 393 l 1
 250 393 l 1
143 357 m 1
 143 393 l 1
 214 393 l 1
 214 357 l 1
 143 357 l 1
286 357 m 1
 286 393 l 1
 393 393 l 1
 393 357 l 1
 286 357 l 1
107 321 m 1
 107 357 l 1
 179 357 l 1
 179 321 l 1
 107 321 l 1
286 321 m 1
 286 357 l 1
 393 357 l 1
 393 321 l 1
 286 321 l 1
107 286 m 1
 107 321 l 1
 179 321 l 1
 179 286 l 1
 107 286 l 1
286 286 m 1
 286 321 l 1
 393 321 l 1
 393 286 l 1
 286 286 l 1
107 250 m 1
 107 286 l 1
 179 286 l 1
 179 250 l 1
 107 250 l 1
286 250 m 1
 286 286 l 1
 429 286 l 1
 429 250 l 1
 286 250 l 1
71 214 m 1
 71 250 l 1
 143 250 l 1
 143 214 l 1
 71 214 l 1
321 214 m 1
 321 250 l 1
 429 250 l 1
 429 214 l 1
 321 214 l 1
71 179 m 1
 71 214 l 1
 429 214 l 1
 429 179 l 1
 71 179 l 1
71 143 m 1
 71 179 l 1
 429 179 l 1
 429 143 l 1
 71 143 l 1
36 107 m 1
 36 143 l 1
 107 143 l 1
 107 107 l 1
 36 107 l 1
357 107 m 1
 357 143 l 1
 464 143 l 1
 464 107 l 1
 357 107 l 1
36 71 m 1
 36 107 l 1
 107 107 l 1
 107 71 l 1
 36 71 l 1
357 71 m 1
 357 107 l 1
 464 107 l 1
 464 71 l 1
 357 71 l 1
36 36 m 1
 36 71 l 1
 107 71 l 1
 107 36 l 1
 36 36 l 1
357 36 m 1
 357 71 l 1
 464 71 l 1
 464 36 l 1
 357 36 l 1
0 0 m 1
 0 36 l 1
 71 36 l 1
 71 0 l 1
 0 0 l 1
393 0 m 1
 393 36 l 1
 500 36 l 1
 500 0 l 1
 393 0 l 1
EndSplineSet
EndChar

StartChar: B
Encoding: 66 66 35
Width: 500
Flags: HW
LayerCount: 2
Back
Fore
SplineSet
71 571 m 1
 71 607 l 1
 393 607 l 1
 393 571 l 1
 71 571 l 1
71 536 m 1
 71 571 l 1
 429 571 l 1
 429 536 l 1
 71 536 l 1
71 500 m 1
 71 536 l 1
 179 536 l 1
 179 500 l 1
 71 500 l 1
321 500 m 1
 321 536 l 1
 464 536 l 1
 464 500 l 1
 321 500 l 1
71 464 m 1
 71 500 l 1
 179 500 l 1
 179 464 l 1
 71 464 l 1
357 464 m 1
 357 500 l 1
 464 500 l 1
 464 464 l 1
 357 464 l 1
71 429 m 1
 71 464 l 1
 179 464 l 1
 179 429 l 1
 71 429 l 1
357 429 m 1
 357 464 l 1
 464 464 l 1
 464 429 l 1
 357 429 l 1
71 393 m 1
 71 429 l 1
 179 429 l 1
 179 393 l 1
 71 393 l 1
357 393 m 1
 357 429 l 1
 464 429 l 1
 464 393 l 1
 357 393 l 1
71 357 m 1
 71 393 l 1
 179 393 l 1
 179 357 l 1
 71 357 l 1
286 357 m 1
 286 393 l 1
 429 393 l 1
 429 357 l 1
 286 357 l 1
71 321 m 1
 71 357 l 1
 393 357 l 1
 393 321 l 1
 71 321 l 1
71 286 m 1
 71 321 l 1
 429 321 l 1
 429 286 l 1
 71 286 l 1
71 250 m 1
 71 286 l 1
 179 286 l 1
 179 250 l 1
 71 250 l 1
321 250 m 1
 321 286 l 1
 464 286 l 1
 464 250 l 1
 321 250 l 1
71 214 m 1
 71 250 l 1
 179 250 l 1
 179 214 l 1
 71 214 l 1
357 214 m 1
 357 250 l 1
 500 250 l 1
 500 214 l 1
 357 214 l 1
71 179 m 1
 71 214 l 1
 179 214 l 1
 179 179 l 1
 71 179 l 1
393 179 m 1
 393 214 l 1
 500 214 l 1
 500 179 l 1
 393 179 l 1
71 143 m 1
 71 179 l 1
 179 179 l 1
 179 143 l 1
 71 143 l 1
393 143 m 1
 393 179 l 1
 500 179 l 1
 500 143 l 1
 393 143 l 1
71 107 m 1
 71 143 l 1
 179 143 l 1
 179 107 l 1
 71 107 l 1
393 107 m 1
 393 143 l 1
 500 143 l 1
 500 107 l 1
 393 107 l 1
71 71 m 1
 71 107 l 1
 179 107 l 1
 179 71 l 1
 71 71 l 1
357 71 m 1
 357 107 l 1
 500 107 l 1
 500 71 l 1
 357 71 l 1
71 36 m 1
 71 71 l 1
 464 71 l 1
 464 36 l 1
 71 36 l 1
71 0 m 1
 71 36 l 1
 393 36 l 1
 393 0 l 1
 71 0 l 1
EndSplineSet
EndChar

StartChar: C
Encoding: 67 67 36
Width: 500
Flags: HW
LayerCount: 2
Back
Fore
SplineSet
214 571 m 1
 214 607 l 1
 500 607 l 1
 500 571 l 1
 214 571 l 1
143 536 m 1
 143 571 l 1
 500 571 l 1
 500 536 l 1
 143 536 l 1
107 500 m 1
 107 536 l 1
 250 536 l 1
 250 500 l 1
 107 500 l 1
429 500 m 1
 429 536 l 1
 500 536 l 1
 500 500 l 1
 429 500 l 1
71 464 m 1
 71 500 l 1
 214 500 l 1
 214 464 l 1
 71 464 l 1
71 429 m 1
 71 464 l 1
 179 464 l 1
 179 429 l 1
 71 429 l 1
36 393 m 1
 36 429 l 1
 143 429 l 1
 143 393 l 1
 36 393 l 1
36 357 m 1
 36 393 l 1
 143 393 l 1
 143 357 l 1
 36 357 l 1
36 321 m 1
 36 357 l 1
 143 357 l 1
 143 321 l 1
 36 321 l 1
36 286 m 1
 36 321 l 1
 143 321 l 1
 143 286 l 1
 36 286 l 1
36 250 m 1
 36 286 l 1
 143 286 l 1
 143 250 l 1
 36 250 l 1
36 214 m 1
 36 250 l 1
 143 250 l 1
 143 214 l 1
 36 214 l 1
36 179 m 1
 36 214 l 1
 143 214 l 1
 143 179 l 1
 36 179 l 1
71 143 m 1
 71 179 l 1
 179 179 l 1
 179 143 l 1
 71 143 l 1
71 107 m 1
 71 143 l 1
 214 143 l 1
 214 107 l 1
 71 107 l 1
107 71 m 1
 107 107 l 1
 250 107 l 1
 250 71 l 1
 107 71 l 1
464 71 m 1
 464 107 l 1
 500 107 l 1
 500 71 l 1
 464 71 l 1
143 36 m 1
 143 71 l 1
 500 71 l 1
 500 36 l 1
 143 36 l 1
214 0 m 1
 214 36 l 1
 464 36 l 1
 464 0 l 1
 214 0 l 1
EndSplineSet
EndChar

StartChar: D
Encoding: 68 68 37
Width: 500
Flags: HW
LayerCount: 2
Back
Fore
SplineSet
36 571 m 1
 36 607 l 1
 357 607 l 1
 357 571 l 1
 36 571 l 1
36 536 m 1
 36 571 l 1
 429 571 l 1
 429 536 l 1
 36 536 l 1
36 500 m 1
 36 536 l 1
 143 536 l 1
 143 500 l 1
 36 500 l 1
286 500 m 1
 286 536 l 1
 464 536 l 1
 464 500 l 1
 286 500 l 1
36 464 m 1
 36 500 l 1
 143 500 l 1
 143 464 l 1
 36 464 l 1
357 464 m 1
 357 500 l 1
 464 500 l 1
 464 464 l 1
 357 464 l 1
36 429 m 1
 36 464 l 1
 143 464 l 1
 143 429 l 1
 36 429 l 1
357 429 m 1
 357 464 l 1
 500 464 l 1
 500 429 l 1
 357 429 l 1
36 393 m 1
 36 429 l 1
 143 429 l 1
 143 393 l 1
 36 393 l 1
393 393 m 1
 393 429 l 1
 500 429 l 1
 500 393 l 1
 393 393 l 1
36 357 m 1
 36 393 l 1
 143 393 l 1
 143 357 l 1
 36 357 l 1
393 357 m 1
 393 393 l 1
 500 393 l 1
 500 357 l 1
 393 357 l 1
36 321 m 1
 36 357 l 1
 143 357 l 1
 143 321 l 1
 36 321 l 1
393 321 m 1
 393 357 l 1
 500 357 l 1
 500 321 l 1
 393 321 l 1
36 286 m 1
 36 321 l 1
 143 321 l 1
 143 286 l 1
 36 286 l 1
393 286 m 1
 393 321 l 1
 500 321 l 1
 500 286 l 1
 393 286 l 1
36 250 m 1
 36 286 l 1
 143 286 l 1
 143 250 l 1
 36 250 l 1
393 250 m 1
 393 286 l 1
 500 286 l 1
 500 250 l 1
 393 250 l 1
36 214 m 1
 36 250 l 1
 143 250 l 1
 143 214 l 1
 36 214 l 1
393 214 m 1
 393 250 l 1
 500 250 l 1
 500 214 l 1
 393 214 l 1
36 179 m 1
 36 214 l 1
 143 214 l 1
 143 179 l 1
 36 179 l 1
393 179 m 1
 393 214 l 1
 500 214 l 1
 500 179 l 1
 393 179 l 1
36 143 m 1
 36 179 l 1
 143 179 l 1
 143 143 l 1
 36 143 l 1
357 143 m 1
 357 179 l 1
 464 179 l 1
 464 143 l 1
 357 143 l 1
36 107 m 1
 36 143 l 1
 143 143 l 1
 143 107 l 1
 36 107 l 1
357 107 m 1
 357 143 l 1
 464 143 l 1
 464 107 l 1
 357 107 l 1
36 71 m 1
 36 107 l 1
 143 107 l 1
 143 71 l 1
 36 71 l 1
286 71 m 1
 286 107 l 1
 429 107 l 1
 429 71 l 1
 286 71 l 1
36 36 m 1
 36 71 l 1
 393 71 l 1
 393 36 l 1
 36 36 l 1
36 0 m 1
 36 36 l 1
 321 36 l 1
 321 0 l 1
 36 0 l 1
EndSplineSet
EndChar

StartChar: E
Encoding: 69 69 38
Width: 500
Flags: HW
LayerCount: 2
Back
Fore
SplineSet
71 571 m 1
 71 607 l 1
 429 607 l 1
 429 571 l 1
 71 571 l 1
71 536 m 1
 71 571 l 1
 429 571 l 1
 429 536 l 1
 71 536 l 1
71 500 m 1
 71 536 l 1
 179 536 l 1
 179 500 l 1
 71 500 l 1
71 464 m 1
 71 500 l 1
 179 500 l 1
 179 464 l 1
 71 464 l 1
71 429 m 1
 71 464 l 1
 179 464 l 1
 179 429 l 1
 71 429 l 1
71 393 m 1
 71 429 l 1
 179 429 l 1
 179 393 l 1
 71 393 l 1
71 357 m 1
 71 393 l 1
 179 393 l 1
 179 357 l 1
 71 357 l 1
71 321 m 1
 71 357 l 1
 393 357 l 1
 393 321 l 1
 71 321 l 1
71 286 m 1
 71 321 l 1
 393 321 l 1
 393 286 l 1
 71 286 l 1
71 250 m 1
 71 286 l 1
 179 286 l 1
 179 250 l 1
 71 250 l 1
71 214 m 1
 71 250 l 1
 179 250 l 1
 179 214 l 1
 71 214 l 1
71 179 m 1
 71 214 l 1
 179 214 l 1
 179 179 l 1
 71 179 l 1
71 143 m 1
 71 179 l 1
 179 179 l 1
 179 143 l 1
 71 143 l 1
71 107 m 1
 71 143 l 1
 179 143 l 1
 179 107 l 1
 71 107 l 1
71 71 m 1
 71 107 l 1
 179 107 l 1
 179 71 l 1
 71 71 l 1
71 36 m 1
 71 71 l 1
 464 71 l 1
 464 36 l 1
 71 36 l 1
71 0 m 1
 71 36 l 1
 464 36 l 1
 464 0 l 1
 71 0 l 1
EndSplineSet
EndChar

StartChar: F
Encoding: 70 70 39
Width: 500
Flags: HW
LayerCount: 2
Back
Fore
SplineSet
71 571 m 1
 71 607 l 1
 500 607 l 1
 500 571 l 1
 71 571 l 1
71 536 m 1
 71 571 l 1
 500 571 l 1
 500 536 l 1
 71 536 l 1
71 500 m 1
 71 536 l 1
 179 536 l 1
 179 500 l 1
 71 500 l 1
71 464 m 1
 71 500 l 1
 179 500 l 1
 179 464 l 1
 71 464 l 1
71 429 m 1
 71 464 l 1
 179 464 l 1
 179 429 l 1
 71 429 l 1
71 393 m 1
 71 429 l 1
 179 429 l 1
 179 393 l 1
 71 393 l 1
71 357 m 1
 71 393 l 1
 179 393 l 1
 179 357 l 1
 71 357 l 1
71 321 m 1
 71 357 l 1
 179 357 l 1
 179 321 l 1
 71 321 l 1
71 286 m 1
 71 321 l 1
 464 321 l 1
 464 286 l 1
 71 286 l 1
71 250 m 1
 71 286 l 1
 464 286 l 1
 464 250 l 1
 71 250 l 1
71 214 m 1
 71 250 l 1
 179 250 l 1
 179 214 l 1
 71 214 l 1
71 179 m 1
 71 214 l 1
 179 214 l 1
 179 179 l 1
 71 179 l 1
71 143 m 1
 71 179 l 1
 179 179 l 1
 179 143 l 1
 71 143 l 1
71 107 m 1
 71 143 l 1
 179 143 l 1
 179 107 l 1
 71 107 l 1
71 71 m 1
 71 107 l 1
 179 107 l 1
 179 71 l 1
 71 71 l 1
71 36 m 1
 71 71 l 1
 179 71 l 1
 179 36 l 1
 71 36 l 1
71 0 m 1
 71 36 l 1
 179 36 l 1
 179 0 l 1
 71 0 l 1
EndSplineSet
EndChar

StartChar: G
Encoding: 71 71 40
Width: 500
Flags: HW
LayerCount: 2
Back
Fore
SplineSet
179 571 m 1
 179 607 l 1
 464 607 l 1
 464 571 l 1
 179 571 l 1
107 536 m 1
 107 571 l 1
 500 571 l 1
 500 536 l 1
 107 536 l 1
71 500 m 1
 71 536 l 1
 214 536 l 1
 214 500 l 1
 71 500 l 1
429 500 m 1
 429 536 l 1
 500 536 l 1
 500 500 l 1
 429 500 l 1
36 464 m 1
 36 500 l 1
 179 500 l 1
 179 464 l 1
 36 464 l 1
36 429 m 1
 36 464 l 1
 143 464 l 1
 143 429 l 1
 36 429 l 1
0 393 m 1
 0 429 l 1
 143 429 l 1
 143 393 l 1
 0 393 l 1
0 357 m 1
 0 393 l 1
 107 393 l 1
 107 357 l 1
 0 357 l 1
0 321 m 1
 0 357 l 1
 107 357 l 1
 107 321 l 1
 0 321 l 1
0 286 m 1
 0 321 l 1
 107 321 l 1
 107 286 l 1
 0 286 l 1
0 250 m 1
 0 286 l 1
 107 286 l 1
 107 250 l 1
 0 250 l 1
393 250 m 1
 393 286 l 1
 500 286 l 1
 500 250 l 1
 393 250 l 1
0 214 m 1
 0 250 l 1
 107 250 l 1
 107 214 l 1
 0 214 l 1
393 214 m 1
 393 250 l 1
 500 250 l 1
 500 214 l 1
 393 214 l 1
0 179 m 1
 0 214 l 1
 143 214 l 1
 143 179 l 1
 0 179 l 1
393 179 m 1
 393 214 l 1
 500 214 l 1
 500 179 l 1
 393 179 l 1
36 143 m 1
 36 179 l 1
 143 179 l 1
 143 143 l 1
 36 143 l 1
393 143 m 1
 393 179 l 1
 500 179 l 1
 500 143 l 1
 393 143 l 1
36 107 m 1
 36 143 l 1
 179 143 l 1
 179 107 l 1
 36 107 l 1
393 107 m 1
 393 143 l 1
 500 143 l 1
 500 107 l 1
 393 107 l 1
71 71 m 1
 71 107 l 1
 250 107 l 1
 250 71 l 1
 71 71 l 1
393 71 m 1
 393 107 l 1
 500 107 l 1
 500 71 l 1
 393 71 l 1
107 36 m 1
 107 71 l 1
 500 71 l 1
 500 36 l 1
 107 36 l 1
179 0 m 1
 179 36 l 1
 464 36 l 1
 464 0 l 1
 179 0 l 1
EndSplineSet
EndChar

StartChar: H
Encoding: 72 72 41
Width: 500
Flags: HW
LayerCount: 2
Back
Fore
SplineSet
36 571 m 1
 36 607 l 1
 143 607 l 1
 143 571 l 1
 36 571 l 1
357 571 m 1
 357 607 l 1
 464 607 l 1
 464 571 l 1
 357 571 l 1
36 536 m 1
 36 571 l 1
 143 571 l 1
 143 536 l 1
 36 536 l 1
357 536 m 1
 357 571 l 1
 464 571 l 1
 464 536 l 1
 357 536 l 1
36 500 m 1
 36 536 l 1
 143 536 l 1
 143 500 l 1
 36 500 l 1
357 500 m 1
 357 536 l 1
 464 536 l 1
 464 500 l 1
 357 500 l 1
36 464 m 1
 36 500 l 1
 143 500 l 1
 143 464 l 1
 36 464 l 1
357 464 m 1
 357 500 l 1
 464 500 l 1
 464 464 l 1
 357 464 l 1
36 429 m 1
 36 464 l 1
 143 464 l 1
 143 429 l 1
 36 429 l 1
357 429 m 1
 357 464 l 1
 464 464 l 1
 464 429 l 1
 357 429 l 1
36 393 m 1
 36 429 l 1
 143 429 l 1
 143 393 l 1
 36 393 l 1
357 393 m 1
 357 429 l 1
 464 429 l 1
 464 393 l 1
 357 393 l 1
36 357 m 1
 36 393 l 1
 143 393 l 1
 143 357 l 1
 36 357 l 1
357 357 m 1
 357 393 l 1
 464 393 l 1
 464 357 l 1
 357 357 l 1
36 321 m 1
 36 357 l 1
 464 357 l 1
 464 321 l 1
 36 321 l 1
36 286 m 1
 36 321 l 1
 464 321 l 1
 464 286 l 1
 36 286 l 1
36 250 m 1
 36 286 l 1
 143 286 l 1
 143 250 l 1
 36 250 l 1
357 250 m 1
 357 286 l 1
 464 286 l 1
 464 250 l 1
 357 250 l 1
36 214 m 1
 36 250 l 1
 143 250 l 1
 143 214 l 1
 36 214 l 1
357 214 m 1
 357 250 l 1
 464 250 l 1
 464 214 l 1
 357 214 l 1
36 179 m 1
 36 214 l 1
 143 214 l 1
 143 179 l 1
 36 179 l 1
357 179 m 1
 357 214 l 1
 464 214 l 1
 464 179 l 1
 357 179 l 1
36 143 m 1
 36 179 l 1
 143 179 l 1
 143 143 l 1
 36 143 l 1
357 143 m 1
 357 179 l 1
 464 179 l 1
 464 143 l 1
 357 143 l 1
36 107 m 1
 36 143 l 1
 143 143 l 1
 143 107 l 1
 36 107 l 1
357 107 m 1
 357 143 l 1
 464 143 l 1
 464 107 l 1
 357 107 l 1
36 71 m 1
 36 107 l 1
 143 107 l 1
 143 71 l 1
 36 71 l 1
357 71 m 1
 357 107 l 1
 464 107 l 1
 464 71 l 1
 357 71 l 1
36 36 m 1
 36 71 l 1
 143 71 l 1
 143 36 l 1
 36 36 l 1
357 36 m 1
 357 71 l 1
 464 71 l 1
 464 36 l 1
 357 36 l 1
36 0 m 1
 36 36 l 1
 143 36 l 1
 143 0 l 1
 36 0 l 1
357 0 m 1
 357 36 l 1
 464 36 l 1
 464 0 l 1
 357 0 l 1
EndSplineSet
EndChar

StartChar: I
Encoding: 73 73 42
Width: 500
Flags: HW
LayerCount: 2
Back
Fore
SplineSet
71 571 m 1
 71 607 l 1
 464 607 l 1
 464 571 l 1
 71 571 l 1
71 536 m 1
 71 571 l 1
 464 571 l 1
 464 536 l 1
 71 536 l 1
214 500 m 1
 214 536 l 1
 321 536 l 1
 321 500 l 1
 214 500 l 1
214 464 m 1
 214 500 l 1
 321 500 l 1
 321 464 l 1
 214 464 l 1
214 429 m 1
 214 464 l 1
 321 464 l 1
 321 429 l 1
 214 429 l 1
214 393 m 1
 214 429 l 1
 321 429 l 1
 321 393 l 1
 214 393 l 1
214 357 m 1
 214 393 l 1
 321 393 l 1
 321 357 l 1
 214 357 l 1
214 321 m 1
 214 357 l 1
 321 357 l 1
 321 321 l 1
 214 321 l 1
214 286 m 1
 214 321 l 1
 321 321 l 1
 321 286 l 1
 214 286 l 1
214 250 m 1
 214 286 l 1
 321 286 l 1
 321 250 l 1
 214 250 l 1
214 214 m 1
 214 250 l 1
 321 250 l 1
 321 214 l 1
 214 214 l 1
214 179 m 1
 214 214 l 1
 321 214 l 1
 321 179 l 1
 214 179 l 1
214 143 m 1
 214 179 l 1
 321 179 l 1
 321 143 l 1
 214 143 l 1
214 107 m 1
 214 143 l 1
 321 143 l 1
 321 107 l 1
 214 107 l 1
214 71 m 1
 214 107 l 1
 321 107 l 1
 321 71 l 1
 214 71 l 1
71 36 m 1
 71 71 l 1
 464 71 l 1
 464 36 l 1
 71 36 l 1
71 0 m 1
 71 36 l 1
 464 36 l 1
 464 0 l 1
 71 0 l 1
EndSplineSet
EndChar

StartChar: J
Encoding: 74 74 43
Width: 500
Flags: HW
LayerCount: 2
Back
Fore
SplineSet
107 571 m 1
 107 607 l 1
 429 607 l 1
 429 571 l 1
 107 571 l 1
107 536 m 1
 107 571 l 1
 429 571 l 1
 429 536 l 1
 107 536 l 1
321 500 m 1
 321 536 l 1
 429 536 l 1
 429 500 l 1
 321 500 l 1
321 464 m 1
 321 500 l 1
 429 500 l 1
 429 464 l 1
 321 464 l 1
321 429 m 1
 321 464 l 1
 429 464 l 1
 429 429 l 1
 321 429 l 1
321 393 m 1
 321 429 l 1
 429 429 l 1
 429 393 l 1
 321 393 l 1
321 357 m 1
 321 393 l 1
 429 393 l 1
 429 357 l 1
 321 357 l 1
321 321 m 1
 321 357 l 1
 429 357 l 1
 429 321 l 1
 321 321 l 1
321 286 m 1
 321 321 l 1
 429 321 l 1
 429 286 l 1
 321 286 l 1
321 250 m 1
 321 286 l 1
 429 286 l 1
 429 250 l 1
 321 250 l 1
321 214 m 1
 321 250 l 1
 429 250 l 1
 429 214 l 1
 321 214 l 1
321 179 m 1
 321 214 l 1
 429 214 l 1
 429 179 l 1
 321 179 l 1
321 143 m 1
 321 179 l 1
 429 179 l 1
 429 143 l 1
 321 143 l 1
321 107 m 1
 321 143 l 1
 429 143 l 1
 429 107 l 1
 321 107 l 1
71 71 m 1
 71 107 l 1
 107 107 l 1
 107 71 l 1
 71 71 l 1
286 71 m 1
 286 107 l 1
 393 107 l 1
 393 71 l 1
 286 71 l 1
71 36 m 1
 71 71 l 1
 393 71 l 1
 393 36 l 1
 71 36 l 1
71 0 m 1
 71 36 l 1
 321 36 l 1
 321 0 l 1
 71 0 l 1
EndSplineSet
EndChar

StartChar: K
Encoding: 75 75 44
Width: 500
Flags: HW
LayerCount: 2
Back
Fore
SplineSet
71 571 m 1
 71 607 l 1
 179 607 l 1
 179 571 l 1
 71 571 l 1
393 571 m 1
 393 607 l 1
 500 607 l 1
 500 571 l 1
 393 571 l 1
71 536 m 1
 71 571 l 1
 179 571 l 1
 179 536 l 1
 71 536 l 1
357 536 m 1
 357 571 l 1
 464 571 l 1
 464 536 l 1
 357 536 l 1
71 500 m 1
 71 536 l 1
 179 536 l 1
 179 500 l 1
 71 500 l 1
321 500 m 1
 321 536 l 1
 429 536 l 1
 429 500 l 1
 321 500 l 1
71 464 m 1
 71 500 l 1
 179 500 l 1
 179 464 l 1
 71 464 l 1
286 464 m 1
 286 500 l 1
 393 500 l 1
 393 464 l 1
 286 464 l 1
71 429 m 1
 71 464 l 1
 179 464 l 1
 179 429 l 1
 71 429 l 1
286 429 m 1
 286 464 l 1
 357 464 l 1
 357 429 l 1
 286 429 l 1
71 393 m 1
 71 429 l 1
 179 429 l 1
 179 393 l 1
 71 393 l 1
250 393 m 1
 250 429 l 1
 321 429 l 1
 321 393 l 1
 250 393 l 1
71 357 m 1
 71 393 l 1
 179 393 l 1
 179 357 l 1
 71 357 l 1
214 357 m 1
 214 393 l 1
 321 393 l 1
 321 357 l 1
 214 357 l 1
71 321 m 1
 71 357 l 1
 286 357 l 1
 286 321 l 1
 71 321 l 1
71 286 m 1
 71 321 l 1
 286 321 l 1
 286 286 l 1
 71 286 l 1
71 250 m 1
 71 286 l 1
 321 286 l 1
 321 250 l 1
 71 250 l 1
71 214 m 1
 71 250 l 1
 179 250 l 1
 179 214 l 1
 71 214 l 1
214 214 m 1
 214 250 l 1
 357 250 l 1
 357 214 l 1
 214 214 l 1
71 179 m 1
 71 214 l 1
 179 214 l 1
 179 179 l 1
 71 179 l 1
250 179 m 1
 250 214 l 1
 357 214 l 1
 357 179 l 1
 250 179 l 1
71 143 m 1
 71 179 l 1
 179 179 l 1
 179 143 l 1
 71 143 l 1
250 143 m 1
 250 179 l 1
 393 179 l 1
 393 143 l 1
 250 143 l 1
71 107 m 1
 71 143 l 1
 179 143 l 1
 179 107 l 1
 71 107 l 1
286 107 m 1
 286 143 l 1
 429 143 l 1
 429 107 l 1
 286 107 l 1
71 71 m 1
 71 107 l 1
 179 107 l 1
 179 71 l 1
 71 71 l 1
321 71 m 1
 321 107 l 1
 429 107 l 1
 429 71 l 1
 321 71 l 1
71 36 m 1
 71 71 l 1
 179 71 l 1
 179 36 l 1
 71 36 l 1
321 36 m 1
 321 71 l 1
 464 71 l 1
 464 36 l 1
 321 36 l 1
71 0 m 1
 71 36 l 1
 179 36 l 1
 179 0 l 1
 71 0 l 1
357 0 m 1
 357 36 l 1
 500 36 l 1
 500 0 l 1
 357 0 l 1
EndSplineSet
EndChar

StartChar: L
Encoding: 76 76 45
Width: 500
Flags: HW
LayerCount: 2
Back
Fore
SplineSet
107 571 m 1
 107 607 l 1
 214 607 l 1
 214 571 l 1
 107 571 l 1
107 536 m 1
 107 571 l 1
 214 571 l 1
 214 536 l 1
 107 536 l 1
107 500 m 1
 107 536 l 1
 214 536 l 1
 214 500 l 1
 107 500 l 1
107 464 m 1
 107 500 l 1
 214 500 l 1
 214 464 l 1
 107 464 l 1
107 429 m 1
 107 464 l 1
 214 464 l 1
 214 429 l 1
 107 429 l 1
107 393 m 1
 107 429 l 1
 214 429 l 1
 214 393 l 1
 107 393 l 1
107 357 m 1
 107 393 l 1
 214 393 l 1
 214 357 l 1
 107 357 l 1
107 321 m 1
 107 357 l 1
 214 357 l 1
 214 321 l 1
 107 321 l 1
107 286 m 1
 107 321 l 1
 214 321 l 1
 214 286 l 1
 107 286 l 1
107 250 m 1
 107 286 l 1
 214 286 l 1
 214 250 l 1
 107 250 l 1
107 214 m 1
 107 250 l 1
 214 250 l 1
 214 214 l 1
 107 214 l 1
107 179 m 1
 107 214 l 1
 214 214 l 1
 214 179 l 1
 107 179 l 1
107 143 m 1
 107 179 l 1
 214 179 l 1
 214 143 l 1
 107 143 l 1
107 107 m 1
 107 143 l 1
 214 143 l 1
 214 107 l 1
 107 107 l 1
107 71 m 1
 107 107 l 1
 214 107 l 1
 214 71 l 1
 107 71 l 1
107 36 m 1
 107 71 l 1
 500 71 l 1
 500 36 l 1
 107 36 l 1
107 0 m 1
 107 36 l 1
 500 36 l 1
 500 0 l 1
 107 0 l 1
EndSplineSet
EndChar

StartChar: M
Encoding: 77 77 46
Width: 500
Flags: HW
LayerCount: 2
Back
Fore
SplineSet
36 571 m 1
 36 607 l 1
 179 607 l 1
 179 571 l 1
 36 571 l 1
357 571 m 1
 357 607 l 1
 500 607 l 1
 500 571 l 1
 357 571 l 1
36 536 m 1
 36 571 l 1
 179 571 l 1
 179 536 l 1
 36 536 l 1
357 536 m 1
 357 571 l 1
 500 571 l 1
 500 536 l 1
 357 536 l 1
36 500 m 1
 36 536 l 1
 179 536 l 1
 179 500 l 1
 36 500 l 1
321 500 m 1
 321 536 l 1
 500 536 l 1
 500 500 l 1
 321 500 l 1
36 464 m 1
 36 500 l 1
 179 500 l 1
 179 464 l 1
 36 464 l 1
321 464 m 1
 321 500 l 1
 500 500 l 1
 500 464 l 1
 321 464 l 1
36 429 m 1
 36 464 l 1
 214 464 l 1
 214 429 l 1
 36 429 l 1
321 429 m 1
 321 464 l 1
 500 464 l 1
 500 429 l 1
 321 429 l 1
36 393 m 1
 36 429 l 1
 107 429 l 1
 107 393 l 1
 36 393 l 1
143 393 m 1
 143 429 l 1
 214 429 l 1
 214 393 l 1
 143 393 l 1
321 393 m 1
 321 429 l 1
 500 429 l 1
 500 393 l 1
 321 393 l 1
36 357 m 1
 36 393 l 1
 107 393 l 1
 107 357 l 1
 36 357 l 1
143 357 m 1
 143 393 l 1
 214 393 l 1
 214 357 l 1
 143 357 l 1
321 357 m 1
 321 393 l 1
 500 393 l 1
 500 357 l 1
 321 357 l 1
36 321 m 1
 36 357 l 1
 107 357 l 1
 107 321 l 1
 36 321 l 1
143 321 m 1
 143 357 l 1
 214 357 l 1
 214 321 l 1
 143 321 l 1
286 321 m 1
 286 357 l 1
 357 357 l 1
 357 321 l 1
 286 321 l 1
393 321 m 1
 393 357 l 1
 500 357 l 1
 500 321 l 1
 393 321 l 1
36 286 m 1
 36 321 l 1
 107 321 l 1
 107 286 l 1
 36 286 l 1
143 286 m 1
 143 321 l 1
 214 321 l 1
 214 286 l 1
 143 286 l 1
286 286 m 1
 286 321 l 1
 357 321 l 1
 357 286 l 1
 286 286 l 1
393 286 m 1
 393 321 l 1
 500 321 l 1
 500 286 l 1
 393 286 l 1
36 250 m 1
 36 286 l 1
 107 286 l 1
 107 250 l 1
 36 250 l 1
179 250 m 1
 179 286 l 1
 250 286 l 1
 250 250 l 1
 179 250 l 1
286 250 m 1
 286 286 l 1
 357 286 l 1
 357 250 l 1
 286 250 l 1
393 250 m 1
 393 286 l 1
 500 286 l 1
 500 250 l 1
 393 250 l 1
36 214 m 1
 36 250 l 1
 107 250 l 1
 107 214 l 1
 36 214 l 1
179 214 m 1
 179 250 l 1
 250 250 l 1
 250 214 l 1
 179 214 l 1
286 214 m 1
 286 250 l 1
 357 250 l 1
 357 214 l 1
 286 214 l 1
393 214 m 1
 393 250 l 1
 500 250 l 1
 500 214 l 1
 393 214 l 1
36 179 m 1
 36 214 l 1
 107 214 l 1
 107 179 l 1
 36 179 l 1
179 179 m 1
 179 214 l 1
 321 214 l 1
 321 179 l 1
 179 179 l 1
393 179 m 1
 393 214 l 1
 500 214 l 1
 500 179 l 1
 393 179 l 1
36 143 m 1
 36 179 l 1
 107 179 l 1
 107 143 l 1
 36 143 l 1
179 143 m 1
 179 179 l 1
 321 179 l 1
 321 143 l 1
 179 143 l 1
393 143 m 1
 393 179 l 1
 500 179 l 1
 500 143 l 1
 393 143 l 1
36 107 m 1
 36 143 l 1
 107 143 l 1
 107 107 l 1
 36 107 l 1
179 107 m 1
 179 143 l 1
 321 143 l 1
 321 107 l 1
 179 107 l 1
393 107 m 1
 393 143 l 1
 500 143 l 1
 500 107 l 1
 393 107 l 1
36 71 m 1
 36 107 l 1
 107 107 l 1
 107 71 l 1
 36 71 l 1
214 71 m 1
 214 107 l 1
 321 107 l 1
 321 71 l 1
 214 71 l 1
393 71 m 1
 393 107 l 1
 500 107 l 1
 500 71 l 1
 393 71 l 1
36 36 m 1
 36 71 l 1
 107 71 l 1
 107 36 l 1
 36 36 l 1
214 36 m 1
 214 71 l 1
 286 71 l 1
 286 36 l 1
 214 36 l 1
393 36 m 1
 393 71 l 1
 500 71 l 1
 500 36 l 1
 393 36 l 1
36 0 m 1
 36 36 l 1
 107 36 l 1
 107 0 l 1
 36 0 l 1
393 0 m 1
 393 36 l 1
 500 36 l 1
 500 0 l 1
 393 0 l 1
EndSplineSet
EndChar

StartChar: N
Encoding: 78 78 47
Width: 500
Flags: HW
LayerCount: 2
Back
Fore
SplineSet
36 571 m 1
 36 607 l 1
 143 607 l 1
 143 571 l 1
 36 571 l 1
393 571 m 1
 393 607 l 1
 464 607 l 1
 464 571 l 1
 393 571 l 1
36 536 m 1
 36 571 l 1
 179 571 l 1
 179 536 l 1
 36 536 l 1
393 536 m 1
 393 571 l 1
 464 571 l 1
 464 536 l 1
 393 536 l 1
36 500 m 1
 36 536 l 1
 179 536 l 1
 179 500 l 1
 36 500 l 1
393 500 m 1
 393 536 l 1
 464 536 l 1
 464 500 l 1
 393 500 l 1
36 464 m 1
 36 500 l 1
 214 500 l 1
 214 464 l 1
 36 464 l 1
393 464 m 1
 393 500 l 1
 464 500 l 1
 464 464 l 1
 393 464 l 1
36 429 m 1
 36 464 l 1
 250 464 l 1
 250 429 l 1
 36 429 l 1
393 429 m 1
 393 464 l 1
 464 464 l 1
 464 429 l 1
 393 429 l 1
36 393 m 1
 36 429 l 1
 107 429 l 1
 107 393 l 1
 36 393 l 1
143 393 m 1
 143 429 l 1
 250 429 l 1
 250 393 l 1
 143 393 l 1
393 393 m 1
 393 429 l 1
 464 429 l 1
 464 393 l 1
 393 393 l 1
36 357 m 1
 36 393 l 1
 107 393 l 1
 107 357 l 1
 36 357 l 1
143 357 m 1
 143 393 l 1
 286 393 l 1
 286 357 l 1
 143 357 l 1
393 357 m 1
 393 393 l 1
 464 393 l 1
 464 357 l 1
 393 357 l 1
36 321 m 1
 36 357 l 1
 107 357 l 1
 107 321 l 1
 36 321 l 1
179 321 m 1
 179 357 l 1
 286 357 l 1
 286 321 l 1
 179 321 l 1
393 321 m 1
 393 357 l 1
 464 357 l 1
 464 321 l 1
 393 321 l 1
36 286 m 1
 36 321 l 1
 107 321 l 1
 107 286 l 1
 36 286 l 1
179 286 m 1
 179 321 l 1
 321 321 l 1
 321 286 l 1
 179 286 l 1
393 286 m 1
 393 321 l 1
 464 321 l 1
 464 286 l 1
 393 286 l 1
36 250 m 1
 36 286 l 1
 107 286 l 1
 107 250 l 1
 36 250 l 1
214 250 m 1
 214 286 l 1
 321 286 l 1
 321 250 l 1
 214 250 l 1
393 250 m 1
 393 286 l 1
 464 286 l 1
 464 250 l 1
 393 250 l 1
36 214 m 1
 36 250 l 1
 107 250 l 1
 107 214 l 1
 36 214 l 1
250 214 m 1
 250 250 l 1
 357 250 l 1
 357 214 l 1
 250 214 l 1
393 214 m 1
 393 250 l 1
 464 250 l 1
 464 214 l 1
 393 214 l 1
36 179 m 1
 36 214 l 1
 107 214 l 1
 107 179 l 1
 36 179 l 1
250 179 m 1
 250 214 l 1
 357 214 l 1
 357 179 l 1
 250 179 l 1
393 179 m 1
 393 214 l 1
 464 214 l 1
 464 179 l 1
 393 179 l 1
36 143 m 1
 36 179 l 1
 107 179 l 1
 107 143 l 1
 36 143 l 1
286 143 m 1
 286 179 l 1
 464 179 l 1
 464 143 l 1
 286 143 l 1
36 107 m 1
 36 143 l 1
 107 143 l 1
 107 107 l 1
 36 107 l 1
286 107 m 1
 286 143 l 1
 464 143 l 1
 464 107 l 1
 286 107 l 1
36 71 m 1
 36 107 l 1
 107 107 l 1
 107 71 l 1
 36 71 l 1
321 71 m 1
 321 107 l 1
 464 107 l 1
 464 71 l 1
 321 71 l 1
36 36 m 1
 36 71 l 1
 107 71 l 1
 107 36 l 1
 36 36 l 1
321 36 m 1
 321 71 l 1
 464 71 l 1
 464 36 l 1
 321 36 l 1
36 0 m 1
 36 36 l 1
 107 36 l 1
 107 0 l 1
 36 0 l 1
357 0 m 1
 357 36 l 1
 464 36 l 1
 464 0 l 1
 357 0 l 1
EndSplineSet
EndChar

StartChar: O
Encoding: 79 79 48
Width: 500
Flags: HW
LayerCount: 2
Back
Fore
SplineSet
143 571 m 1
 143 607 l 1
 357 607 l 1
 357 571 l 1
 143 571 l 1
107 536 m 1
 107 571 l 1
 393 571 l 1
 393 536 l 1
 107 536 l 1
71 500 m 1
 71 536 l 1
 179 536 l 1
 179 500 l 1
 71 500 l 1
321 500 m 1
 321 536 l 1
 429 536 l 1
 429 500 l 1
 321 500 l 1
36 464 m 1
 36 500 l 1
 143 500 l 1
 143 464 l 1
 36 464 l 1
357 464 m 1
 357 500 l 1
 464 500 l 1
 464 464 l 1
 357 464 l 1
36 429 m 1
 36 464 l 1
 107 464 l 1
 107 429 l 1
 36 429 l 1
393 429 m 1
 393 464 l 1
 464 464 l 1
 464 429 l 1
 393 429 l 1
0 393 m 1
 0 429 l 1
 107 429 l 1
 107 393 l 1
 0 393 l 1
393 393 m 1
 393 429 l 1
 500 429 l 1
 500 393 l 1
 393 393 l 1
0 357 m 1
 0 393 l 1
 107 393 l 1
 107 357 l 1
 0 357 l 1
393 357 m 1
 393 393 l 1
 500 393 l 1
 500 357 l 1
 393 357 l 1
0 321 m 1
 0 357 l 1
 107 357 l 1
 107 321 l 1
 0 321 l 1
393 321 m 1
 393 357 l 1
 500 357 l 1
 500 321 l 1
 393 321 l 1
0 286 m 1
 0 321 l 1
 107 321 l 1
 107 286 l 1
 0 286 l 1
393 286 m 1
 393 321 l 1
 500 321 l 1
 500 286 l 1
 393 286 l 1
0 250 m 1
 0 286 l 1
 107 286 l 1
 107 250 l 1
 0 250 l 1
393 250 m 1
 393 286 l 1
 500 286 l 1
 500 250 l 1
 393 250 l 1
0 214 m 1
 0 250 l 1
 107 250 l 1
 107 214 l 1
 0 214 l 1
393 214 m 1
 393 250 l 1
 500 250 l 1
 500 214 l 1
 393 214 l 1
0 179 m 1
 0 214 l 1
 107 214 l 1
 107 179 l 1
 0 179 l 1
393 179 m 1
 393 214 l 1
 500 214 l 1
 500 179 l 1
 393 179 l 1
36 143 m 1
 36 179 l 1
 107 179 l 1
 107 143 l 1
 36 143 l 1
393 143 m 1
 393 179 l 1
 464 179 l 1
 464 143 l 1
 393 143 l 1
36 107 m 1
 36 143 l 1
 143 143 l 1
 143 107 l 1
 36 107 l 1
357 107 m 1
 357 143 l 1
 464 143 l 1
 464 107 l 1
 357 107 l 1
71 71 m 1
 71 107 l 1
 179 107 l 1
 179 71 l 1
 71 71 l 1
321 71 m 1
 321 107 l 1
 429 107 l 1
 429 71 l 1
 321 71 l 1
107 36 m 1
 107 71 l 1
 393 71 l 1
 393 36 l 1
 107 36 l 1
143 0 m 1
 143 36 l 1
 357 36 l 1
 357 0 l 1
 143 0 l 1
EndSplineSet
EndChar

StartChar: P
Encoding: 80 80 49
Width: 500
Flags: HW
LayerCount: 2
Back
Fore
SplineSet
71 571 m 1
 71 607 l 1
 393 607 l 1
 393 571 l 1
 71 571 l 1
71 536 m 1
 71 571 l 1
 464 571 l 1
 464 536 l 1
 71 536 l 1
71 500 m 1
 71 536 l 1
 179 536 l 1
 179 500 l 1
 71 500 l 1
357 500 m 1
 357 536 l 1
 500 536 l 1
 500 500 l 1
 357 500 l 1
71 464 m 1
 71 500 l 1
 179 500 l 1
 179 464 l 1
 71 464 l 1
393 464 m 1
 393 500 l 1
 500 500 l 1
 500 464 l 1
 393 464 l 1
71 429 m 1
 71 464 l 1
 179 464 l 1
 179 429 l 1
 71 429 l 1
393 429 m 1
 393 464 l 1
 500 464 l 1
 500 429 l 1
 393 429 l 1
71 393 m 1
 71 429 l 1
 179 429 l 1
 179 393 l 1
 71 393 l 1
393 393 m 1
 393 429 l 1
 500 429 l 1
 500 393 l 1
 393 393 l 1
71 357 m 1
 71 393 l 1
 179 393 l 1
 179 357 l 1
 71 357 l 1
393 357 m 1
 393 393 l 1
 500 393 l 1
 500 357 l 1
 393 357 l 1
71 321 m 1
 71 357 l 1
 179 357 l 1
 179 321 l 1
 71 321 l 1
321 321 m 1
 321 357 l 1
 464 357 l 1
 464 321 l 1
 321 321 l 1
71 286 m 1
 71 321 l 1
 429 321 l 1
 429 286 l 1
 71 286 l 1
71 250 m 1
 71 286 l 1
 393 286 l 1
 393 250 l 1
 71 250 l 1
71 214 m 1
 71 250 l 1
 179 250 l 1
 179 214 l 1
 71 214 l 1
71 179 m 1
 71 214 l 1
 179 214 l 1
 179 179 l 1
 71 179 l 1
71 143 m 1
 71 179 l 1
 179 179 l 1
 179 143 l 1
 71 143 l 1
71 107 m 1
 71 143 l 1
 179 143 l 1
 179 107 l 1
 71 107 l 1
71 71 m 1
 71 107 l 1
 179 107 l 1
 179 71 l 1
 71 71 l 1
71 36 m 1
 71 71 l 1
 179 71 l 1
 179 36 l 1
 71 36 l 1
71 0 m 1
 71 36 l 1
 179 36 l 1
 179 0 l 1
 71 0 l 1
EndSplineSet
EndChar

StartChar: Q
Encoding: 81 81 50
Width: 500
Flags: HW
LayerCount: 2
Back
Fore
SplineSet
143 571 m 1
 143 607 l 1
 357 607 l 1
 357 571 l 1
 143 571 l 1
107 536 m 1
 107 571 l 1
 393 571 l 1
 393 536 l 1
 107 536 l 1
71 500 m 1
 71 536 l 1
 179 536 l 1
 179 500 l 1
 71 500 l 1
321 500 m 1
 321 536 l 1
 429 536 l 1
 429 500 l 1
 321 500 l 1
36 464 m 1
 36 500 l 1
 143 500 l 1
 143 464 l 1
 36 464 l 1
357 464 m 1
 357 500 l 1
 464 500 l 1
 464 464 l 1
 357 464 l 1
36 429 m 1
 36 464 l 1
 107 464 l 1
 107 429 l 1
 36 429 l 1
393 429 m 1
 393 464 l 1
 464 464 l 1
 464 429 l 1
 393 429 l 1
0 393 m 1
 0 429 l 1
 107 429 l 1
 107 393 l 1
 0 393 l 1
393 393 m 1
 393 429 l 1
 500 429 l 1
 500 393 l 1
 393 393 l 1
0 357 m 1
 0 393 l 1
 107 393 l 1
 107 357 l 1
 0 357 l 1
393 357 m 1
 393 393 l 1
 500 393 l 1
 500 357 l 1
 393 357 l 1
0 321 m 1
 0 357 l 1
 107 357 l 1
 107 321 l 1
 0 321 l 1
393 321 m 1
 393 357 l 1
 500 357 l 1
 500 321 l 1
 393 321 l 1
0 286 m 1
 0 321 l 1
 107 321 l 1
 107 286 l 1
 0 286 l 1
393 286 m 1
 393 321 l 1
 500 321 l 1
 500 286 l 1
 393 286 l 1
0 250 m 1
 0 286 l 1
 107 286 l 1
 107 250 l 1
 0 250 l 1
393 250 m 1
 393 286 l 1
 500 286 l 1
 500 250 l 1
 393 250 l 1
0 214 m 1
 0 250 l 1
 107 250 l 1
 107 214 l 1
 0 214 l 1
393 214 m 1
 393 250 l 1
 500 250 l 1
 500 214 l 1
 393 214 l 1
0 179 m 1
 0 214 l 1
 107 214 l 1
 107 179 l 1
 0 179 l 1
393 179 m 1
 393 214 l 1
 500 214 l 1
 500 179 l 1
 393 179 l 1
36 143 m 1
 36 179 l 1
 107 179 l 1
 107 143 l 1
 36 143 l 1
393 143 m 1
 393 179 l 1
 500 179 l 1
 500 143 l 1
 393 143 l 1
36 107 m 1
 36 143 l 1
 143 143 l 1
 143 107 l 1
 36 107 l 1
357 107 m 1
 357 143 l 1
 464 143 l 1
 464 107 l 1
 357 107 l 1
71 71 m 1
 71 107 l 1
 179 107 l 1
 179 71 l 1
 71 71 l 1
321 71 m 1
 321 107 l 1
 464 107 l 1
 464 71 l 1
 321 71 l 1
107 36 m 1
 107 71 l 1
 429 71 l 1
 429 36 l 1
 107 36 l 1
143 0 m 1
 143 36 l 1
 393 36 l 1
 393 0 l 1
 143 0 l 1
286 -36 m 1
 286 0 l 1
 536 0 l 1
 536 -36 l 1
 286 -36 l 1
321 -71 m 1
 321 -36 l 1
 500 -36 l 1
 500 -71 l 1
 321 -71 l 1
357 -107 m 1
 357 -71 l 1
 500 -71 l 1
 500 -107 l 1
 357 -107 l 1
429 -143 m 1
 429 -107 l 1
 464 -107 l 1
 464 -143 l 1
 429 -143 l 1
EndSplineSet
EndChar

StartChar: R
Encoding: 82 82 51
Width: 500
Flags: HW
LayerCount: 2
Back
Fore
SplineSet
71 571 m 1
 71 607 l 1
 393 607 l 1
 393 571 l 1
 71 571 l 1
71 536 m 1
 71 571 l 1
 429 571 l 1
 429 536 l 1
 71 536 l 1
71 500 m 1
 71 536 l 1
 179 536 l 1
 179 500 l 1
 71 500 l 1
321 500 m 1
 321 536 l 1
 464 536 l 1
 464 500 l 1
 321 500 l 1
71 464 m 1
 71 500 l 1
 179 500 l 1
 179 464 l 1
 71 464 l 1
357 464 m 1
 357 500 l 1
 464 500 l 1
 464 464 l 1
 357 464 l 1
71 429 m 1
 71 464 l 1
 179 464 l 1
 179 429 l 1
 71 429 l 1
357 429 m 1
 357 464 l 1
 464 464 l 1
 464 429 l 1
 357 429 l 1
71 393 m 1
 71 429 l 1
 179 429 l 1
 179 393 l 1
 71 393 l 1
357 393 m 1
 357 429 l 1
 464 429 l 1
 464 393 l 1
 357 393 l 1
71 357 m 1
 71 393 l 1
 179 393 l 1
 179 357 l 1
 71 357 l 1
321 357 m 1
 321 393 l 1
 464 393 l 1
 464 357 l 1
 321 357 l 1
71 321 m 1
 71 357 l 1
 179 357 l 1
 179 321 l 1
 71 321 l 1
286 321 m 1
 286 357 l 1
 429 357 l 1
 429 321 l 1
 286 321 l 1
71 286 m 1
 71 321 l 1
 393 321 l 1
 393 286 l 1
 71 286 l 1
71 250 m 1
 71 286 l 1
 357 286 l 1
 357 250 l 1
 71 250 l 1
71 214 m 1
 71 250 l 1
 179 250 l 1
 179 214 l 1
 71 214 l 1
250 214 m 1
 250 250 l 1
 393 250 l 1
 393 214 l 1
 250 214 l 1
71 179 m 1
 71 214 l 1
 179 214 l 1
 179 179 l 1
 71 179 l 1
286 179 m 1
 286 214 l 1
 393 214 l 1
 393 179 l 1
 286 179 l 1
71 143 m 1
 71 179 l 1
 179 179 l 1
 179 143 l 1
 71 143 l 1
286 143 m 1
 286 179 l 1
 429 179 l 1
 429 143 l 1
 286 143 l 1
71 107 m 1
 71 143 l 1
 179 143 l 1
 179 107 l 1
 71 107 l 1
321 107 m 1
 321 143 l 1
 429 143 l 1
 429 107 l 1
 321 107 l 1
71 71 m 1
 71 107 l 1
 179 107 l 1
 179 71 l 1
 71 71 l 1
321 71 m 1
 321 107 l 1
 429 107 l 1
 429 71 l 1
 321 71 l 1
71 36 m 1
 71 71 l 1
 179 71 l 1
 179 36 l 1
 71 36 l 1
357 36 m 1
 357 71 l 1
 464 71 l 1
 464 36 l 1
 357 36 l 1
71 0 m 1
 71 36 l 1
 179 36 l 1
 179 0 l 1
 71 0 l 1
357 0 m 1
 357 36 l 1
 500 36 l 1
 500 0 l 1
 357 0 l 1
EndSplineSet
EndChar

StartChar: S
Encoding: 83 83 52
Width: 500
Flags: HW
LayerCount: 2
Back
Fore
SplineSet
143 571 m 1
 143 607 l 1
 429 607 l 1
 429 571 l 1
 143 571 l 1
71 536 m 1
 71 571 l 1
 429 571 l 1
 429 536 l 1
 71 536 l 1
36 500 m 1
 36 536 l 1
 179 536 l 1
 179 500 l 1
 36 500 l 1
393 500 m 1
 393 536 l 1
 429 536 l 1
 429 500 l 1
 393 500 l 1
36 464 m 1
 36 500 l 1
 143 500 l 1
 143 464 l 1
 36 464 l 1
36 429 m 1
 36 464 l 1
 143 464 l 1
 143 429 l 1
 36 429 l 1
36 393 m 1
 36 429 l 1
 179 429 l 1
 179 393 l 1
 36 393 l 1
71 357 m 1
 71 393 l 1
 250 393 l 1
 250 357 l 1
 71 357 l 1
107 321 m 1
 107 357 l 1
 321 357 l 1
 321 321 l 1
 107 321 l 1
179 286 m 1
 179 321 l 1
 393 321 l 1
 393 286 l 1
 179 286 l 1
214 250 m 1
 214 286 l 1
 429 286 l 1
 429 250 l 1
 214 250 l 1
286 214 m 1
 286 250 l 1
 464 250 l 1
 464 214 l 1
 286 214 l 1
357 179 m 1
 357 214 l 1
 464 214 l 1
 464 179 l 1
 357 179 l 1
357 143 m 1
 357 179 l 1
 464 179 l 1
 464 143 l 1
 357 143 l 1
357 107 m 1
 357 143 l 1
 464 143 l 1
 464 107 l 1
 357 107 l 1
36 71 m 1
 36 107 l 1
 107 107 l 1
 107 71 l 1
 36 71 l 1
321 71 m 1
 321 107 l 1
 429 107 l 1
 429 71 l 1
 321 71 l 1
36 36 m 1
 36 71 l 1
 393 71 l 1
 393 36 l 1
 36 36 l 1
36 0 m 1
 36 36 l 1
 357 36 l 1
 357 0 l 1
 36 0 l 1
EndSplineSet
EndChar

StartChar: T
Encoding: 84 84 53
Width: 500
Flags: HW
LayerCount: 2
Back
Fore
SplineSet
36 571 m 1
 36 607 l 1
 500 607 l 1
 500 571 l 1
 36 571 l 1
36 536 m 1
 36 571 l 1
 500 571 l 1
 500 536 l 1
 36 536 l 1
214 500 m 1
 214 536 l 1
 321 536 l 1
 321 500 l 1
 214 500 l 1
214 464 m 1
 214 500 l 1
 321 500 l 1
 321 464 l 1
 214 464 l 1
214 429 m 1
 214 464 l 1
 321 464 l 1
 321 429 l 1
 214 429 l 1
214 393 m 1
 214 429 l 1
 321 429 l 1
 321 393 l 1
 214 393 l 1
214 357 m 1
 214 393 l 1
 321 393 l 1
 321 357 l 1
 214 357 l 1
214 321 m 1
 214 357 l 1
 321 357 l 1
 321 321 l 1
 214 321 l 1
214 286 m 1
 214 321 l 1
 321 321 l 1
 321 286 l 1
 214 286 l 1
214 250 m 1
 214 286 l 1
 321 286 l 1
 321 250 l 1
 214 250 l 1
214 214 m 1
 214 250 l 1
 321 250 l 1
 321 214 l 1
 214 214 l 1
214 179 m 1
 214 214 l 1
 321 214 l 1
 321 179 l 1
 214 179 l 1
214 143 m 1
 214 179 l 1
 321 179 l 1
 321 143 l 1
 214 143 l 1
214 107 m 1
 214 143 l 1
 321 143 l 1
 321 107 l 1
 214 107 l 1
214 71 m 1
 214 107 l 1
 321 107 l 1
 321 71 l 1
 214 71 l 1
214 36 m 1
 214 71 l 1
 321 71 l 1
 321 36 l 1
 214 36 l 1
214 0 m 1
 214 36 l 1
 321 36 l 1
 321 0 l 1
 214 0 l 1
EndSplineSet
EndChar

StartChar: U
Encoding: 85 85 54
Width: 500
Flags: HW
LayerCount: 2
Back
Fore
SplineSet
36 571 m 1
 36 607 l 1
 143 607 l 1
 143 571 l 1
 36 571 l 1
357 571 m 1
 357 607 l 1
 464 607 l 1
 464 571 l 1
 357 571 l 1
36 536 m 1
 36 571 l 1
 143 571 l 1
 143 536 l 1
 36 536 l 1
357 536 m 1
 357 571 l 1
 464 571 l 1
 464 536 l 1
 357 536 l 1
36 500 m 1
 36 536 l 1
 143 536 l 1
 143 500 l 1
 36 500 l 1
357 500 m 1
 357 536 l 1
 464 536 l 1
 464 500 l 1
 357 500 l 1
36 464 m 1
 36 500 l 1
 143 500 l 1
 143 464 l 1
 36 464 l 1
357 464 m 1
 357 500 l 1
 464 500 l 1
 464 464 l 1
 357 464 l 1
36 429 m 1
 36 464 l 1
 143 464 l 1
 143 429 l 1
 36 429 l 1
357 429 m 1
 357 464 l 1
 464 464 l 1
 464 429 l 1
 357 429 l 1
36 393 m 1
 36 429 l 1
 143 429 l 1
 143 393 l 1
 36 393 l 1
357 393 m 1
 357 429 l 1
 464 429 l 1
 464 393 l 1
 357 393 l 1
36 357 m 1
 36 393 l 1
 143 393 l 1
 143 357 l 1
 36 357 l 1
357 357 m 1
 357 393 l 1
 464 393 l 1
 464 357 l 1
 357 357 l 1
36 321 m 1
 36 357 l 1
 143 357 l 1
 143 321 l 1
 36 321 l 1
357 321 m 1
 357 357 l 1
 464 357 l 1
 464 321 l 1
 357 321 l 1
36 286 m 1
 36 321 l 1
 143 321 l 1
 143 286 l 1
 36 286 l 1
357 286 m 1
 357 321 l 1
 464 321 l 1
 464 286 l 1
 357 286 l 1
36 250 m 1
 36 286 l 1
 143 286 l 1
 143 250 l 1
 36 250 l 1
357 250 m 1
 357 286 l 1
 464 286 l 1
 464 250 l 1
 357 250 l 1
36 214 m 1
 36 250 l 1
 143 250 l 1
 143 214 l 1
 36 214 l 1
357 214 m 1
 357 250 l 1
 464 250 l 1
 464 214 l 1
 357 214 l 1
36 179 m 1
 36 214 l 1
 143 214 l 1
 143 179 l 1
 36 179 l 1
357 179 m 1
 357 214 l 1
 464 214 l 1
 464 179 l 1
 357 179 l 1
36 143 m 1
 36 179 l 1
 143 179 l 1
 143 143 l 1
 36 143 l 1
357 143 m 1
 357 179 l 1
 464 179 l 1
 464 143 l 1
 357 143 l 1
36 107 m 1
 36 143 l 1
 143 143 l 1
 143 107 l 1
 36 107 l 1
357 107 m 1
 357 143 l 1
 464 143 l 1
 464 107 l 1
 357 107 l 1
71 71 m 1
 71 107 l 1
 179 107 l 1
 179 71 l 1
 71 71 l 1
321 71 m 1
 321 107 l 1
 429 107 l 1
 429 71 l 1
 321 71 l 1
71 36 m 1
 71 71 l 1
 429 71 l 1
 429 36 l 1
 71 36 l 1
143 0 m 1
 143 36 l 1
 357 36 l 1
 357 0 l 1
 143 0 l 1
EndSplineSet
EndChar

StartChar: V
Encoding: 86 86 55
Width: 500
Flags: HW
LayerCount: 2
Back
Fore
SplineSet
0 571 m 1
 0 607 l 1
 143 607 l 1
 143 571 l 1
 0 571 l 1
429 571 m 1
 429 607 l 1
 500 607 l 1
 500 571 l 1
 429 571 l 1
36 536 m 1
 36 571 l 1
 143 571 l 1
 143 536 l 1
 36 536 l 1
393 536 m 1
 393 571 l 1
 464 571 l 1
 464 536 l 1
 393 536 l 1
36 500 m 1
 36 536 l 1
 143 536 l 1
 143 500 l 1
 36 500 l 1
393 500 m 1
 393 536 l 1
 464 536 l 1
 464 500 l 1
 393 500 l 1
36 464 m 1
 36 500 l 1
 143 500 l 1
 143 464 l 1
 36 464 l 1
393 464 m 1
 393 500 l 1
 464 500 l 1
 464 464 l 1
 393 464 l 1
71 429 m 1
 71 464 l 1
 179 464 l 1
 179 429 l 1
 71 429 l 1
357 429 m 1
 357 464 l 1
 429 464 l 1
 429 429 l 1
 357 429 l 1
71 393 m 1
 71 429 l 1
 179 429 l 1
 179 393 l 1
 71 393 l 1
357 393 m 1
 357 429 l 1
 429 429 l 1
 429 393 l 1
 357 393 l 1
71 357 m 1
 71 393 l 1
 179 393 l 1
 179 357 l 1
 71 357 l 1
357 357 m 1
 357 393 l 1
 429 393 l 1
 429 357 l 1
 357 357 l 1
71 321 m 1
 71 357 l 1
 214 357 l 1
 214 321 l 1
 71 321 l 1
321 321 m 1
 321 357 l 1
 393 357 l 1
 393 321 l 1
 321 321 l 1
107 286 m 1
 107 321 l 1
 214 321 l 1
 214 286 l 1
 107 286 l 1
321 286 m 1
 321 321 l 1
 393 321 l 1
 393 286 l 1
 321 286 l 1
107 250 m 1
 107 286 l 1
 214 286 l 1
 214 250 l 1
 107 250 l 1
321 250 m 1
 321 286 l 1
 393 286 l 1
 393 250 l 1
 321 250 l 1
107 214 m 1
 107 250 l 1
 214 250 l 1
 214 214 l 1
 107 214 l 1
286 214 m 1
 286 250 l 1
 357 250 l 1
 357 214 l 1
 286 214 l 1
143 179 m 1
 143 214 l 1
 250 214 l 1
 250 179 l 1
 143 179 l 1
286 179 m 1
 286 214 l 1
 357 214 l 1
 357 179 l 1
 286 179 l 1
143 143 m 1
 143 179 l 1
 250 179 l 1
 250 143 l 1
 143 143 l 1
286 143 m 1
 286 179 l 1
 357 179 l 1
 357 143 l 1
 286 143 l 1
143 107 m 1
 143 143 l 1
 321 143 l 1
 321 107 l 1
 143 107 l 1
179 71 m 1
 179 107 l 1
 321 107 l 1
 321 71 l 1
 179 71 l 1
179 36 m 1
 179 71 l 1
 321 71 l 1
 321 36 l 1
 179 36 l 1
179 0 m 1
 179 36 l 1
 286 36 l 1
 286 0 l 1
 179 0 l 1
EndSplineSet
EndChar

StartChar: W
Encoding: 87 87 56
Width: 500
Flags: HW
LayerCount: 2
Back
Fore
SplineSet
0 571 m 1
 0 607 l 1
 107 607 l 1
 107 571 l 1
 0 571 l 1
429 571 m 1
 429 607 l 1
 500 607 l 1
 500 571 l 1
 429 571 l 1
0 536 m 1
 0 571 l 1
 107 571 l 1
 107 536 l 1
 0 536 l 1
214 536 m 1
 214 571 l 1
 321 571 l 1
 321 536 l 1
 214 536 l 1
429 536 m 1
 429 571 l 1
 500 571 l 1
 500 536 l 1
 429 536 l 1
0 500 m 1
 0 536 l 1
 107 536 l 1
 107 500 l 1
 0 500 l 1
214 500 m 1
 214 536 l 1
 321 536 l 1
 321 500 l 1
 214 500 l 1
429 500 m 1
 429 536 l 1
 500 536 l 1
 500 500 l 1
 429 500 l 1
0 464 m 1
 0 500 l 1
 107 500 l 1
 107 464 l 1
 0 464 l 1
214 464 m 1
 214 500 l 1
 321 500 l 1
 321 464 l 1
 214 464 l 1
429 464 m 1
 429 500 l 1
 500 500 l 1
 500 464 l 1
 429 464 l 1
36 429 m 1
 36 464 l 1
 143 464 l 1
 143 429 l 1
 36 429 l 1
214 429 m 1
 214 464 l 1
 357 464 l 1
 357 429 l 1
 214 429 l 1
393 429 m 1
 393 464 l 1
 464 464 l 1
 464 429 l 1
 393 429 l 1
36 393 m 1
 36 429 l 1
 143 429 l 1
 143 393 l 1
 36 393 l 1
179 393 m 1
 179 429 l 1
 357 429 l 1
 357 393 l 1
 179 393 l 1
393 393 m 1
 393 429 l 1
 464 429 l 1
 464 393 l 1
 393 393 l 1
36 357 m 1
 36 393 l 1
 143 393 l 1
 143 357 l 1
 36 357 l 1
179 357 m 1
 179 393 l 1
 357 393 l 1
 357 357 l 1
 179 357 l 1
393 357 m 1
 393 393 l 1
 464 393 l 1
 464 357 l 1
 393 357 l 1
36 321 m 1
 36 357 l 1
 143 357 l 1
 143 321 l 1
 36 321 l 1
179 321 m 1
 179 357 l 1
 357 357 l 1
 357 321 l 1
 179 321 l 1
393 321 m 1
 393 357 l 1
 464 357 l 1
 464 321 l 1
 393 321 l 1
36 286 m 1
 36 321 l 1
 143 321 l 1
 143 286 l 1
 36 286 l 1
179 286 m 1
 179 321 l 1
 250 321 l 1
 250 286 l 1
 179 286 l 1
286 286 m 1
 286 321 l 1
 357 321 l 1
 357 286 l 1
 286 286 l 1
393 286 m 1
 393 321 l 1
 464 321 l 1
 464 286 l 1
 393 286 l 1
36 250 m 1
 36 286 l 1
 250 286 l 1
 250 250 l 1
 36 250 l 1
286 250 m 1
 286 286 l 1
 357 286 l 1
 357 250 l 1
 286 250 l 1
393 250 m 1
 393 286 l 1
 464 286 l 1
 464 250 l 1
 393 250 l 1
36 214 m 1
 36 250 l 1
 214 250 l 1
 214 214 l 1
 36 214 l 1
286 214 m 1
 286 250 l 1
 464 250 l 1
 464 214 l 1
 286 214 l 1
36 179 m 1
 36 214 l 1
 214 214 l 1
 214 179 l 1
 36 179 l 1
286 179 m 1
 286 214 l 1
 464 214 l 1
 464 179 l 1
 286 179 l 1
71 143 m 1
 71 179 l 1
 214 179 l 1
 214 143 l 1
 71 143 l 1
286 143 m 1
 286 179 l 1
 464 179 l 1
 464 143 l 1
 286 143 l 1
71 107 m 1
 71 143 l 1
 214 143 l 1
 214 107 l 1
 71 107 l 1
286 107 m 1
 286 143 l 1
 429 143 l 1
 429 107 l 1
 286 107 l 1
71 71 m 1
 71 107 l 1
 179 107 l 1
 179 71 l 1
 71 71 l 1
321 71 m 1
 321 107 l 1
 429 107 l 1
 429 71 l 1
 321 71 l 1
71 36 m 1
 71 71 l 1
 179 71 l 1
 179 36 l 1
 71 36 l 1
321 36 m 1
 321 71 l 1
 429 71 l 1
 429 36 l 1
 321 36 l 1
71 0 m 1
 71 36 l 1
 179 36 l 1
 179 0 l 1
 71 0 l 1
321 0 m 1
 321 36 l 1
 429 36 l 1
 429 0 l 1
 321 0 l 1
EndSplineSet
EndChar

StartChar: X
Encoding: 88 88 57
Width: 500
Flags: HW
LayerCount: 2
Back
Fore
SplineSet
0 571 m 1
 0 607 l 1
 143 607 l 1
 143 571 l 1
 0 571 l 1
393 571 m 1
 393 607 l 1
 464 607 l 1
 464 571 l 1
 393 571 l 1
36 536 m 1
 36 571 l 1
 179 571 l 1
 179 536 l 1
 36 536 l 1
357 536 m 1
 357 571 l 1
 429 571 l 1
 429 536 l 1
 357 536 l 1
71 500 m 1
 71 536 l 1
 179 536 l 1
 179 500 l 1
 71 500 l 1
357 500 m 1
 357 536 l 1
 429 536 l 1
 429 500 l 1
 357 500 l 1
71 464 m 1
 71 500 l 1
 214 500 l 1
 214 464 l 1
 71 464 l 1
321 464 m 1
 321 500 l 1
 393 500 l 1
 393 464 l 1
 321 464 l 1
107 429 m 1
 107 464 l 1
 214 464 l 1
 214 429 l 1
 107 429 l 1
286 429 m 1
 286 464 l 1
 393 464 l 1
 393 429 l 1
 286 429 l 1
143 393 m 1
 143 429 l 1
 250 429 l 1
 250 393 l 1
 143 393 l 1
286 393 m 1
 286 429 l 1
 357 429 l 1
 357 393 l 1
 286 393 l 1
143 357 m 1
 143 393 l 1
 357 393 l 1
 357 357 l 1
 143 357 l 1
179 321 m 1
 179 357 l 1
 321 357 l 1
 321 321 l 1
 179 321 l 1
179 286 m 1
 179 321 l 1
 321 321 l 1
 321 286 l 1
 179 286 l 1
179 250 m 1
 179 286 l 1
 321 286 l 1
 321 250 l 1
 179 250 l 1
143 214 m 1
 143 250 l 1
 357 250 l 1
 357 214 l 1
 143 214 l 1
143 179 m 1
 143 214 l 1
 214 214 l 1
 214 179 l 1
 143 179 l 1
250 179 m 1
 250 214 l 1
 393 214 l 1
 393 179 l 1
 250 179 l 1
107 143 m 1
 107 179 l 1
 179 179 l 1
 179 143 l 1
 107 143 l 1
286 143 m 1
 286 179 l 1
 393 179 l 1
 393 143 l 1
 286 143 l 1
71 107 m 1
 71 143 l 1
 179 143 l 1
 179 107 l 1
 71 107 l 1
286 107 m 1
 286 143 l 1
 429 143 l 1
 429 107 l 1
 286 107 l 1
71 71 m 1
 71 107 l 1
 143 107 l 1
 143 71 l 1
 71 71 l 1
321 71 m 1
 321 107 l 1
 429 107 l 1
 429 71 l 1
 321 71 l 1
36 36 m 1
 36 71 l 1
 107 71 l 1
 107 36 l 1
 36 36 l 1
321 36 m 1
 321 71 l 1
 464 71 l 1
 464 36 l 1
 321 36 l 1
0 0 m 1
 0 36 l 1
 107 36 l 1
 107 0 l 1
 0 0 l 1
357 0 m 1
 357 36 l 1
 500 36 l 1
 500 0 l 1
 357 0 l 1
EndSplineSet
EndChar

StartChar: Y
Encoding: 89 89 58
Width: 500
Flags: HW
LayerCount: 2
Back
Fore
SplineSet
0 571 m 1
 0 607 l 1
 143 607 l 1
 143 571 l 1
 0 571 l 1
393 571 m 1
 393 607 l 1
 500 607 l 1
 500 571 l 1
 393 571 l 1
36 536 m 1
 36 571 l 1
 143 571 l 1
 143 536 l 1
 36 536 l 1
393 536 m 1
 393 571 l 1
 464 571 l 1
 464 536 l 1
 393 536 l 1
71 500 m 1
 71 536 l 1
 179 536 l 1
 179 500 l 1
 71 500 l 1
357 500 m 1
 357 536 l 1
 429 536 l 1
 429 500 l 1
 357 500 l 1
71 464 m 1
 71 500 l 1
 179 500 l 1
 179 464 l 1
 71 464 l 1
321 464 m 1
 321 500 l 1
 429 500 l 1
 429 464 l 1
 321 464 l 1
107 429 m 1
 107 464 l 1
 214 464 l 1
 214 429 l 1
 107 429 l 1
321 429 m 1
 321 464 l 1
 393 464 l 1
 393 429 l 1
 321 429 l 1
107 393 m 1
 107 429 l 1
 214 429 l 1
 214 393 l 1
 107 393 l 1
286 393 m 1
 286 429 l 1
 393 429 l 1
 393 393 l 1
 286 393 l 1
143 357 m 1
 143 393 l 1
 250 393 l 1
 250 357 l 1
 143 357 l 1
286 357 m 1
 286 393 l 1
 357 393 l 1
 357 357 l 1
 286 357 l 1
143 321 m 1
 143 357 l 1
 321 357 l 1
 321 321 l 1
 143 321 l 1
179 286 m 1
 179 321 l 1
 321 321 l 1
 321 286 l 1
 179 286 l 1
179 250 m 1
 179 286 l 1
 286 286 l 1
 286 250 l 1
 179 250 l 1
179 214 m 1
 179 250 l 1
 286 250 l 1
 286 214 l 1
 179 214 l 1
179 179 m 1
 179 214 l 1
 286 214 l 1
 286 179 l 1
 179 179 l 1
179 143 m 1
 179 179 l 1
 286 179 l 1
 286 143 l 1
 179 143 l 1
179 107 m 1
 179 143 l 1
 286 143 l 1
 286 107 l 1
 179 107 l 1
179 71 m 1
 179 107 l 1
 286 107 l 1
 286 71 l 1
 179 71 l 1
179 36 m 1
 179 71 l 1
 286 71 l 1
 286 36 l 1
 179 36 l 1
179 0 m 1
 179 36 l 1
 286 36 l 1
 286 0 l 1
 179 0 l 1
EndSplineSet
EndChar

StartChar: Z
Encoding: 90 90 59
Width: 500
Flags: HW
LayerCount: 2
Back
Fore
SplineSet
36 571 m 1
 36 607 l 1
 464 607 l 1
 464 571 l 1
 36 571 l 1
36 536 m 1
 36 571 l 1
 464 571 l 1
 464 536 l 1
 36 536 l 1
321 500 m 1
 321 536 l 1
 429 536 l 1
 429 500 l 1
 321 500 l 1
286 464 m 1
 286 500 l 1
 429 500 l 1
 429 464 l 1
 286 464 l 1
286 429 m 1
 286 464 l 1
 393 464 l 1
 393 429 l 1
 286 429 l 1
250 393 m 1
 250 429 l 1
 393 429 l 1
 393 393 l 1
 250 393 l 1
214 357 m 1
 214 393 l 1
 357 393 l 1
 357 357 l 1
 214 357 l 1
214 321 m 1
 214 357 l 1
 321 357 l 1
 321 321 l 1
 214 321 l 1
179 286 m 1
 179 321 l 1
 321 321 l 1
 321 286 l 1
 179 286 l 1
179 250 m 1
 179 286 l 1
 286 286 l 1
 286 250 l 1
 179 250 l 1
143 214 m 1
 143 250 l 1
 286 250 l 1
 286 214 l 1
 143 214 l 1
107 179 m 1
 107 214 l 1
 250 214 l 1
 250 179 l 1
 107 179 l 1
107 143 m 1
 107 179 l 1
 214 179 l 1
 214 143 l 1
 107 143 l 1
71 107 m 1
 71 143 l 1
 214 143 l 1
 214 107 l 1
 71 107 l 1
36 71 m 1
 36 107 l 1
 179 107 l 1
 179 71 l 1
 36 71 l 1
36 36 m 1
 36 71 l 1
 464 71 l 1
 464 36 l 1
 36 36 l 1
36 0 m 1
 36 36 l 1
 464 36 l 1
 464 0 l 1
 36 0 l 1
EndSplineSet
EndChar

StartChar: bracketleft
Encoding: 91 91 60
Width: 500
Flags: HW
LayerCount: 2
Back
Fore
SplineSet
143 607 m 1
 143 643 l 1
 464 643 l 1
 464 607 l 1
 143 607 l 1
143 571 m 1
 143 607 l 1
 464 607 l 1
 464 571 l 1
 143 571 l 1
143 536 m 1
 143 571 l 1
 250 571 l 1
 250 536 l 1
 143 536 l 1
143 500 m 1
 143 536 l 1
 250 536 l 1
 250 500 l 1
 143 500 l 1
143 464 m 1
 143 500 l 1
 250 500 l 1
 250 464 l 1
 143 464 l 1
143 429 m 1
 143 464 l 1
 250 464 l 1
 250 429 l 1
 143 429 l 1
143 393 m 1
 143 429 l 1
 250 429 l 1
 250 393 l 1
 143 393 l 1
143 357 m 1
 143 393 l 1
 250 393 l 1
 250 357 l 1
 143 357 l 1
143 321 m 1
 143 357 l 1
 250 357 l 1
 250 321 l 1
 143 321 l 1
143 286 m 1
 143 321 l 1
 250 321 l 1
 250 286 l 1
 143 286 l 1
143 250 m 1
 143 286 l 1
 250 286 l 1
 250 250 l 1
 143 250 l 1
143 214 m 1
 143 250 l 1
 250 250 l 1
 250 214 l 1
 143 214 l 1
143 179 m 1
 143 214 l 1
 250 214 l 1
 250 179 l 1
 143 179 l 1
143 143 m 1
 143 179 l 1
 250 179 l 1
 250 143 l 1
 143 143 l 1
143 107 m 1
 143 143 l 1
 250 143 l 1
 250 107 l 1
 143 107 l 1
143 71 m 1
 143 107 l 1
 250 107 l 1
 250 71 l 1
 143 71 l 1
143 36 m 1
 143 71 l 1
 250 71 l 1
 250 36 l 1
 143 36 l 1
143 0 m 1
 143 36 l 1
 250 36 l 1
 250 0 l 1
 143 0 l 1
143 -36 m 1
 143 0 l 1
 250 0 l 1
 250 -36 l 1
 143 -36 l 1
143 -71 m 1
 143 -36 l 1
 250 -36 l 1
 250 -71 l 1
 143 -71 l 1
143 -107 m 1
 143 -71 l 1
 464 -71 l 1
 464 -107 l 1
 143 -107 l 1
143 -143 m 1
 143 -107 l 1
 464 -107 l 1
 464 -143 l 1
 143 -143 l 1
EndSplineSet
EndChar

StartChar: backslash
Encoding: 92 92 61
Width: 500
Flags: HW
LayerCount: 2
Back
Fore
SplineSet
0 607 m 1
 0 643 l 1
 107 643 l 1
 107 607 l 1
 0 607 l 1
36 571 m 1
 36 607 l 1
 107 607 l 1
 107 571 l 1
 36 571 l 1
71 536 m 1
 71 571 l 1
 143 571 l 1
 143 536 l 1
 71 536 l 1
71 500 m 1
 71 536 l 1
 143 536 l 1
 143 500 l 1
 71 500 l 1
107 464 m 1
 107 500 l 1
 179 500 l 1
 179 464 l 1
 107 464 l 1
107 429 m 1
 107 464 l 1
 179 464 l 1
 179 429 l 1
 107 429 l 1
143 393 m 1
 143 429 l 1
 214 429 l 1
 214 393 l 1
 143 393 l 1
143 357 m 1
 143 393 l 1
 214 393 l 1
 214 357 l 1
 143 357 l 1
179 321 m 1
 179 357 l 1
 250 357 l 1
 250 321 l 1
 179 321 l 1
179 286 m 1
 179 321 l 1
 250 321 l 1
 250 286 l 1
 179 286 l 1
214 250 m 1
 214 286 l 1
 286 286 l 1
 286 250 l 1
 214 250 l 1
214 214 m 1
 214 250 l 1
 286 250 l 1
 286 214 l 1
 214 214 l 1
250 179 m 1
 250 214 l 1
 321 214 l 1
 321 179 l 1
 250 179 l 1
250 143 m 1
 250 179 l 1
 321 179 l 1
 321 143 l 1
 250 143 l 1
286 107 m 1
 286 143 l 1
 357 143 l 1
 357 107 l 1
 286 107 l 1
286 71 m 1
 286 107 l 1
 357 107 l 1
 357 71 l 1
 286 71 l 1
321 36 m 1
 321 71 l 1
 393 71 l 1
 393 36 l 1
 321 36 l 1
321 0 m 1
 321 36 l 1
 393 36 l 1
 393 0 l 1
 321 0 l 1
357 -36 m 1
 357 0 l 1
 429 0 l 1
 429 -36 l 1
 357 -36 l 1
357 -71 m 1
 357 -36 l 1
 429 -36 l 1
 429 -71 l 1
 357 -71 l 1
393 -107 m 1
 393 -71 l 1
 464 -71 l 1
 464 -107 l 1
 393 -107 l 1
393 -143 m 1
 393 -107 l 1
 500 -107 l 1
 500 -143 l 1
 393 -143 l 1
EndSplineSet
EndChar

StartChar: bracketright
Encoding: 93 93 62
Width: 500
Flags: HW
LayerCount: 2
Back
Fore
SplineSet
36 607 m 1
 36 643 l 1
 357 643 l 1
 357 607 l 1
 36 607 l 1
36 571 m 1
 36 607 l 1
 357 607 l 1
 357 571 l 1
 36 571 l 1
250 536 m 1
 250 571 l 1
 357 571 l 1
 357 536 l 1
 250 536 l 1
250 500 m 1
 250 536 l 1
 357 536 l 1
 357 500 l 1
 250 500 l 1
250 464 m 1
 250 500 l 1
 357 500 l 1
 357 464 l 1
 250 464 l 1
250 429 m 1
 250 464 l 1
 357 464 l 1
 357 429 l 1
 250 429 l 1
250 393 m 1
 250 429 l 1
 357 429 l 1
 357 393 l 1
 250 393 l 1
250 357 m 1
 250 393 l 1
 357 393 l 1
 357 357 l 1
 250 357 l 1
250 321 m 1
 250 357 l 1
 357 357 l 1
 357 321 l 1
 250 321 l 1
250 286 m 1
 250 321 l 1
 357 321 l 1
 357 286 l 1
 250 286 l 1
250 250 m 1
 250 286 l 1
 357 286 l 1
 357 250 l 1
 250 250 l 1
250 214 m 1
 250 250 l 1
 357 250 l 1
 357 214 l 1
 250 214 l 1
250 179 m 1
 250 214 l 1
 357 214 l 1
 357 179 l 1
 250 179 l 1
250 143 m 1
 250 179 l 1
 357 179 l 1
 357 143 l 1
 250 143 l 1
250 107 m 1
 250 143 l 1
 357 143 l 1
 357 107 l 1
 250 107 l 1
250 71 m 1
 250 107 l 1
 357 107 l 1
 357 71 l 1
 250 71 l 1
250 36 m 1
 250 71 l 1
 357 71 l 1
 357 36 l 1
 250 36 l 1
250 0 m 1
 250 36 l 1
 357 36 l 1
 357 0 l 1
 250 0 l 1
250 -36 m 1
 250 0 l 1
 357 0 l 1
 357 -36 l 1
 250 -36 l 1
250 -71 m 1
 250 -36 l 1
 357 -36 l 1
 357 -71 l 1
 250 -71 l 1
36 -107 m 1
 36 -71 l 1
 357 -71 l 1
 357 -107 l 1
 36 -107 l 1
36 -143 m 1
 36 -107 l 1
 357 -107 l 1
 357 -143 l 1
 36 -143 l 1
EndSplineSet
EndChar

StartChar: asciicircum
Encoding: 94 94 63
Width: 500
Flags: HW
LayerCount: 2
Back
Fore
SplineSet
250 536 m 1
 250 571 l 1
 286 571 l 1
 286 536 l 1
 250 536 l 1
214 500 m 1
 214 536 l 1
 286 536 l 1
 286 500 l 1
 214 500 l 1
214 464 m 1
 214 500 l 1
 286 500 l 1
 286 464 l 1
 214 464 l 1
179 429 m 1
 179 464 l 1
 321 464 l 1
 321 429 l 1
 179 429 l 1
179 393 m 1
 179 429 l 1
 321 429 l 1
 321 393 l 1
 179 393 l 1
143 357 m 1
 143 393 l 1
 357 393 l 1
 357 357 l 1
 143 357 l 1
143 321 m 1
 143 357 l 1
 214 357 l 1
 214 321 l 1
 143 321 l 1
286 321 m 1
 286 357 l 1
 357 357 l 1
 357 321 l 1
 286 321 l 1
143 286 m 1
 143 321 l 1
 214 321 l 1
 214 286 l 1
 143 286 l 1
286 286 m 1
 286 321 l 1
 357 321 l 1
 357 286 l 1
 286 286 l 1
107 250 m 1
 107 286 l 1
 179 286 l 1
 179 250 l 1
 107 250 l 1
321 250 m 1
 321 286 l 1
 393 286 l 1
 393 250 l 1
 321 250 l 1
107 214 m 1
 107 250 l 1
 179 250 l 1
 179 214 l 1
 107 214 l 1
321 214 m 1
 321 250 l 1
 393 250 l 1
 393 214 l 1
 321 214 l 1
71 179 m 1
 71 214 l 1
 179 214 l 1
 179 179 l 1
 71 179 l 1
321 179 m 1
 321 214 l 1
 429 214 l 1
 429 179 l 1
 321 179 l 1
71 143 m 1
 71 179 l 1
 143 179 l 1
 143 143 l 1
 71 143 l 1
357 143 m 1
 357 179 l 1
 429 179 l 1
 429 143 l 1
 357 143 l 1
36 107 m 1
 36 143 l 1
 143 143 l 1
 143 107 l 1
 36 107 l 1
357 107 m 1
 357 143 l 1
 464 143 l 1
 464 107 l 1
 357 107 l 1
EndSplineSet
EndChar

StartChar: underscore
Encoding: 95 95 64
Width: 500
Flags: HW
LayerCount: 2
Back
Fore
SplineSet
0 -71 m 1
 0 -36 l 1
 500 -36 l 1
 500 -71 l 1
 0 -71 l 1
0 -107 m 1
 0 -71 l 1
 500 -71 l 1
 500 -107 l 1
 0 -107 l 1
EndSplineSet
EndChar

StartChar: grave
Encoding: 96 96 65
Width: 500
Flags: HW
LayerCount: 2
Back
Fore
SplineSet
143 607 m 1
 143 643 l 1
 286 643 l 1
 286 607 l 1
 143 607 l 1
214 571 m 1
 214 607 l 1
 321 607 l 1
 321 571 l 1
 214 571 l 1
250 536 m 1
 250 571 l 1
 357 571 l 1
 357 536 l 1
 250 536 l 1
EndSplineSet
EndChar

StartChar: a
Encoding: 97 97 66
Width: 500
Flags: HW
LayerCount: 2
Back
Fore
SplineSet
107 429 m 1
 107 464 l 1
 393 464 l 1
 393 429 l 1
 107 429 l 1
71 393 m 1
 71 429 l 1
 429 429 l 1
 429 393 l 1
 71 393 l 1
71 357 m 1
 71 393 l 1
 143 393 l 1
 143 357 l 1
 71 357 l 1
321 357 m 1
 321 393 l 1
 464 393 l 1
 464 357 l 1
 321 357 l 1
357 321 m 1
 357 357 l 1
 464 357 l 1
 464 321 l 1
 357 321 l 1
357 286 m 1
 357 321 l 1
 464 321 l 1
 464 286 l 1
 357 286 l 1
143 250 m 1
 143 286 l 1
 464 286 l 1
 464 250 l 1
 143 250 l 1
71 214 m 1
 71 250 l 1
 464 250 l 1
 464 214 l 1
 71 214 l 1
36 179 m 1
 36 214 l 1
 179 214 l 1
 179 179 l 1
 36 179 l 1
357 179 m 1
 357 214 l 1
 464 214 l 1
 464 179 l 1
 357 179 l 1
36 143 m 1
 36 179 l 1
 143 179 l 1
 143 143 l 1
 36 143 l 1
357 143 m 1
 357 179 l 1
 464 179 l 1
 464 143 l 1
 357 143 l 1
36 107 m 1
 36 143 l 1
 143 143 l 1
 143 107 l 1
 36 107 l 1
357 107 m 1
 357 143 l 1
 464 143 l 1
 464 107 l 1
 357 107 l 1
36 71 m 1
 36 107 l 1
 179 107 l 1
 179 71 l 1
 36 71 l 1
286 71 m 1
 286 107 l 1
 500 107 l 1
 500 71 l 1
 286 71 l 1
71 36 m 1
 71 71 l 1
 500 71 l 1
 500 36 l 1
 71 36 l 1
107 0 m 1
 107 36 l 1
 286 36 l 1
 286 0 l 1
 107 0 l 1
357 0 m 1
 357 36 l 1
 500 36 l 1
 500 0 l 1
 357 0 l 1
EndSplineSet
EndChar

StartChar: b
Encoding: 98 98 67
Width: 500
Flags: HW
LayerCount: 2
Back
Fore
SplineSet
71 607 m 1
 71 643 l 1
 179 643 l 1
 179 607 l 1
 71 607 l 1
71 571 m 1
 71 607 l 1
 179 607 l 1
 179 571 l 1
 71 571 l 1
71 536 m 1
 71 571 l 1
 179 571 l 1
 179 536 l 1
 71 536 l 1
71 500 m 1
 71 536 l 1
 179 536 l 1
 179 500 l 1
 71 500 l 1
71 464 m 1
 71 500 l 1
 179 500 l 1
 179 464 l 1
 71 464 l 1
71 429 m 1
 71 464 l 1
 179 464 l 1
 179 429 l 1
 71 429 l 1
250 429 m 1
 250 464 l 1
 393 464 l 1
 393 429 l 1
 250 429 l 1
71 393 m 1
 71 429 l 1
 179 429 l 1
 179 393 l 1
 71 393 l 1
214 393 m 1
 214 429 l 1
 464 429 l 1
 464 393 l 1
 214 393 l 1
71 357 m 1
 71 393 l 1
 464 393 l 1
 464 357 l 1
 71 357 l 1
71 321 m 1
 71 357 l 1
 250 357 l 1
 250 321 l 1
 71 321 l 1
357 321 m 1
 357 357 l 1
 500 357 l 1
 500 321 l 1
 357 321 l 1
71 286 m 1
 71 321 l 1
 214 321 l 1
 214 286 l 1
 71 286 l 1
393 286 m 1
 393 321 l 1
 500 321 l 1
 500 286 l 1
 393 286 l 1
71 250 m 1
 71 286 l 1
 179 286 l 1
 179 250 l 1
 71 250 l 1
393 250 m 1
 393 286 l 1
 500 286 l 1
 500 250 l 1
 393 250 l 1
71 214 m 1
 71 250 l 1
 179 250 l 1
 179 214 l 1
 71 214 l 1
393 214 m 1
 393 250 l 1
 500 250 l 1
 500 214 l 1
 393 214 l 1
71 179 m 1
 71 214 l 1
 179 214 l 1
 179 179 l 1
 71 179 l 1
393 179 m 1
 393 214 l 1
 500 214 l 1
 500 179 l 1
 393 179 l 1
71 143 m 1
 71 179 l 1
 179 179 l 1
 179 143 l 1
 71 143 l 1
393 143 m 1
 393 179 l 1
 500 179 l 1
 500 143 l 1
 393 143 l 1
71 107 m 1
 71 143 l 1
 179 143 l 1
 179 107 l 1
 71 107 l 1
357 107 m 1
 357 143 l 1
 464 143 l 1
 464 107 l 1
 357 107 l 1
71 71 m 1
 71 107 l 1
 214 107 l 1
 214 71 l 1
 71 71 l 1
321 71 m 1
 321 107 l 1
 464 107 l 1
 464 71 l 1
 321 71 l 1
71 36 m 1
 71 71 l 1
 429 71 l 1
 429 36 l 1
 71 36 l 1
71 0 m 1
 71 36 l 1
 179 36 l 1
 179 0 l 1
 71 0 l 1
214 0 m 1
 214 36 l 1
 393 36 l 1
 393 0 l 1
 214 0 l 1
EndSplineSet
EndChar

StartChar: c
Encoding: 99 99 68
Width: 500
Flags: HW
LayerCount: 2
Back
Fore
SplineSet
179 429 m 1
 179 464 l 1
 464 464 l 1
 464 429 l 1
 179 429 l 1
107 393 m 1
 107 429 l 1
 464 429 l 1
 464 393 l 1
 107 393 l 1
71 357 m 1
 71 393 l 1
 214 393 l 1
 214 357 l 1
 71 357 l 1
393 357 m 1
 393 393 l 1
 464 393 l 1
 464 357 l 1
 393 357 l 1
71 321 m 1
 71 357 l 1
 179 357 l 1
 179 321 l 1
 71 321 l 1
36 286 m 1
 36 321 l 1
 143 321 l 1
 143 286 l 1
 36 286 l 1
36 250 m 1
 36 286 l 1
 143 286 l 1
 143 250 l 1
 36 250 l 1
36 214 m 1
 36 250 l 1
 143 250 l 1
 143 214 l 1
 36 214 l 1
36 179 m 1
 36 214 l 1
 143 214 l 1
 143 179 l 1
 36 179 l 1
36 143 m 1
 36 179 l 1
 143 179 l 1
 143 143 l 1
 36 143 l 1
71 107 m 1
 71 143 l 1
 179 143 l 1
 179 107 l 1
 71 107 l 1
71 71 m 1
 71 107 l 1
 250 107 l 1
 250 71 l 1
 71 71 l 1
429 71 m 1
 429 107 l 1
 464 107 l 1
 464 71 l 1
 429 71 l 1
107 36 m 1
 107 71 l 1
 464 71 l 1
 464 36 l 1
 107 36 l 1
179 0 m 1
 179 36 l 1
 464 36 l 1
 464 0 l 1
 179 0 l 1
EndSplineSet
EndChar

StartChar: d
Encoding: 100 100 69
Width: 500
Flags: HW
LayerCount: 2
Back
Fore
SplineSet
357 607 m 1
 357 643 l 1
 464 643 l 1
 464 607 l 1
 357 607 l 1
357 571 m 1
 357 607 l 1
 464 607 l 1
 464 571 l 1
 357 571 l 1
357 536 m 1
 357 571 l 1
 464 571 l 1
 464 536 l 1
 357 536 l 1
357 500 m 1
 357 536 l 1
 464 536 l 1
 464 500 l 1
 357 500 l 1
357 464 m 1
 357 500 l 1
 464 500 l 1
 464 464 l 1
 357 464 l 1
143 429 m 1
 143 464 l 1
 321 464 l 1
 321 429 l 1
 143 429 l 1
357 429 m 1
 357 464 l 1
 464 464 l 1
 464 429 l 1
 357 429 l 1
107 393 m 1
 107 429 l 1
 464 429 l 1
 464 393 l 1
 107 393 l 1
71 357 m 1
 71 393 l 1
 214 393 l 1
 214 357 l 1
 71 357 l 1
321 357 m 1
 321 393 l 1
 464 393 l 1
 464 357 l 1
 321 357 l 1
71 321 m 1
 71 357 l 1
 179 357 l 1
 179 321 l 1
 71 321 l 1
357 321 m 1
 357 357 l 1
 464 357 l 1
 464 321 l 1
 357 321 l 1
36 286 m 1
 36 321 l 1
 143 321 l 1
 143 286 l 1
 36 286 l 1
357 286 m 1
 357 321 l 1
 464 321 l 1
 464 286 l 1
 357 286 l 1
36 250 m 1
 36 286 l 1
 143 286 l 1
 143 250 l 1
 36 250 l 1
357 250 m 1
 357 286 l 1
 464 286 l 1
 464 250 l 1
 357 250 l 1
36 214 m 1
 36 250 l 1
 143 250 l 1
 143 214 l 1
 36 214 l 1
357 214 m 1
 357 250 l 1
 464 250 l 1
 464 214 l 1
 357 214 l 1
36 179 m 1
 36 214 l 1
 143 214 l 1
 143 179 l 1
 36 179 l 1
357 179 m 1
 357 214 l 1
 464 214 l 1
 464 179 l 1
 357 179 l 1
36 143 m 1
 36 179 l 1
 143 179 l 1
 143 143 l 1
 36 143 l 1
321 143 m 1
 321 179 l 1
 464 179 l 1
 464 143 l 1
 321 143 l 1
36 107 m 1
 36 143 l 1
 179 143 l 1
 179 107 l 1
 36 107 l 1
286 107 m 1
 286 143 l 1
 464 143 l 1
 464 107 l 1
 286 107 l 1
71 71 m 1
 71 107 l 1
 464 107 l 1
 464 71 l 1
 71 71 l 1
71 36 m 1
 71 71 l 1
 321 71 l 1
 321 36 l 1
 71 36 l 1
357 36 m 1
 357 71 l 1
 464 71 l 1
 464 36 l 1
 357 36 l 1
143 0 m 1
 143 36 l 1
 286 36 l 1
 286 0 l 1
 143 0 l 1
357 0 m 1
 357 36 l 1
 464 36 l 1
 464 0 l 1
 357 0 l 1
EndSplineSet
EndChar

StartChar: e
Encoding: 101 101 70
Width: 500
Flags: HW
LayerCount: 2
Back
Fore
SplineSet
179 429 m 1
 179 464 l 1
 393 464 l 1
 393 429 l 1
 179 429 l 1
107 393 m 1
 107 429 l 1
 429 429 l 1
 429 393 l 1
 107 393 l 1
71 357 m 1
 71 393 l 1
 214 393 l 1
 214 357 l 1
 71 357 l 1
357 357 m 1
 357 393 l 1
 464 393 l 1
 464 357 l 1
 357 357 l 1
71 321 m 1
 71 357 l 1
 179 357 l 1
 179 321 l 1
 71 321 l 1
393 321 m 1
 393 357 l 1
 500 357 l 1
 500 321 l 1
 393 321 l 1
36 286 m 1
 36 321 l 1
 143 321 l 1
 143 286 l 1
 36 286 l 1
393 286 m 1
 393 321 l 1
 500 321 l 1
 500 286 l 1
 393 286 l 1
36 250 m 1
 36 286 l 1
 500 286 l 1
 500 250 l 1
 36 250 l 1
36 214 m 1
 36 250 l 1
 500 250 l 1
 500 214 l 1
 36 214 l 1
36 179 m 1
 36 214 l 1
 143 214 l 1
 143 179 l 1
 36 179 l 1
36 143 m 1
 36 179 l 1
 143 179 l 1
 143 143 l 1
 36 143 l 1
71 107 m 1
 71 143 l 1
 179 143 l 1
 179 107 l 1
 71 107 l 1
71 71 m 1
 71 107 l 1
 214 107 l 1
 214 71 l 1
 71 71 l 1
429 71 m 1
 429 107 l 1
 500 107 l 1
 500 71 l 1
 429 71 l 1
107 36 m 1
 107 71 l 1
 500 71 l 1
 500 36 l 1
 107 36 l 1
179 0 m 1
 179 36 l 1
 464 36 l 1
 464 0 l 1
 179 0 l 1
EndSplineSet
EndChar

StartChar: f
Encoding: 102 102 71
Width: 500
Flags: HW
LayerCount: 2
Back
Fore
SplineSet
250 607 m 1
 250 643 l 1
 500 643 l 1
 500 607 l 1
 250 607 l 1
214 571 m 1
 214 607 l 1
 500 607 l 1
 500 571 l 1
 214 571 l 1
179 536 m 1
 179 571 l 1
 286 571 l 1
 286 536 l 1
 179 536 l 1
464 536 m 1
 464 571 l 1
 500 571 l 1
 500 536 l 1
 464 536 l 1
179 500 m 1
 179 536 l 1
 286 536 l 1
 286 500 l 1
 179 500 l 1
179 464 m 1
 179 500 l 1
 286 500 l 1
 286 464 l 1
 179 464 l 1
107 429 m 1
 107 464 l 1
 464 464 l 1
 464 429 l 1
 107 429 l 1
107 393 m 1
 107 429 l 1
 464 429 l 1
 464 393 l 1
 107 393 l 1
179 357 m 1
 179 393 l 1
 286 393 l 1
 286 357 l 1
 179 357 l 1
179 321 m 1
 179 357 l 1
 286 357 l 1
 286 321 l 1
 179 321 l 1
179 286 m 1
 179 321 l 1
 286 321 l 1
 286 286 l 1
 179 286 l 1
179 250 m 1
 179 286 l 1
 286 286 l 1
 286 250 l 1
 179 250 l 1
179 214 m 1
 179 250 l 1
 286 250 l 1
 286 214 l 1
 179 214 l 1
179 179 m 1
 179 214 l 1
 286 214 l 1
 286 179 l 1
 179 179 l 1
179 143 m 1
 179 179 l 1
 286 179 l 1
 286 143 l 1
 179 143 l 1
179 107 m 1
 179 143 l 1
 286 143 l 1
 286 107 l 1
 179 107 l 1
179 71 m 1
 179 107 l 1
 286 107 l 1
 286 71 l 1
 179 71 l 1
179 36 m 1
 179 71 l 1
 286 71 l 1
 286 36 l 1
 179 36 l 1
179 0 m 1
 179 36 l 1
 286 36 l 1
 286 0 l 1
 179 0 l 1
EndSplineSet
EndChar

StartChar: g
Encoding: 103 103 72
Width: 500
Flags: HW
LayerCount: 2
Back
Fore
SplineSet
143 429 m 1
 143 464 l 1
 321 464 l 1
 321 429 l 1
 143 429 l 1
357 429 m 1
 357 464 l 1
 464 464 l 1
 464 429 l 1
 357 429 l 1
107 393 m 1
 107 429 l 1
 464 429 l 1
 464 393 l 1
 107 393 l 1
71 357 m 1
 71 393 l 1
 179 393 l 1
 179 357 l 1
 71 357 l 1
321 357 m 1
 321 393 l 1
 464 393 l 1
 464 357 l 1
 321 357 l 1
71 321 m 1
 71 357 l 1
 179 357 l 1
 179 321 l 1
 71 321 l 1
357 321 m 1
 357 357 l 1
 464 357 l 1
 464 321 l 1
 357 321 l 1
36 286 m 1
 36 321 l 1
 143 321 l 1
 143 286 l 1
 36 286 l 1
357 286 m 1
 357 321 l 1
 464 321 l 1
 464 286 l 1
 357 286 l 1
36 250 m 1
 36 286 l 1
 143 286 l 1
 143 250 l 1
 36 250 l 1
357 250 m 1
 357 286 l 1
 464 286 l 1
 464 250 l 1
 357 250 l 1
36 214 m 1
 36 250 l 1
 143 250 l 1
 143 214 l 1
 36 214 l 1
357 214 m 1
 357 250 l 1
 464 250 l 1
 464 214 l 1
 357 214 l 1
36 179 m 1
 36 214 l 1
 143 214 l 1
 143 179 l 1
 36 179 l 1
357 179 m 1
 357 214 l 1
 464 214 l 1
 464 179 l 1
 357 179 l 1
36 143 m 1
 36 179 l 1
 143 179 l 1
 143 143 l 1
 36 143 l 1
321 143 m 1
 321 179 l 1
 464 179 l 1
 464 143 l 1
 321 143 l 1
36 107 m 1
 36 143 l 1
 179 143 l 1
 179 107 l 1
 36 107 l 1
286 107 m 1
 286 143 l 1
 464 143 l 1
 464 107 l 1
 286 107 l 1
71 71 m 1
 71 107 l 1
 464 107 l 1
 464 71 l 1
 71 71 l 1
71 36 m 1
 71 71 l 1
 321 71 l 1
 321 36 l 1
 71 36 l 1
357 36 m 1
 357 71 l 1
 464 71 l 1
 464 36 l 1
 357 36 l 1
143 0 m 1
 143 36 l 1
 286 36 l 1
 286 0 l 1
 143 0 l 1
357 0 m 1
 357 36 l 1
 464 36 l 1
 464 0 l 1
 357 0 l 1
357 -36 m 1
 357 0 l 1
 464 0 l 1
 464 -36 l 1
 357 -36 l 1
357 -71 m 1
 357 -36 l 1
 429 -36 l 1
 429 -71 l 1
 357 -71 l 1
71 -107 m 1
 71 -71 l 1
 143 -71 l 1
 143 -107 l 1
 71 -107 l 1
321 -107 m 1
 321 -71 l 1
 429 -71 l 1
 429 -107 l 1
 321 -107 l 1
71 -143 m 1
 71 -107 l 1
 393 -107 l 1
 393 -143 l 1
 71 -143 l 1
143 -179 m 1
 143 -143 l 1
 357 -143 l 1
 357 -179 l 1
 143 -179 l 1
EndSplineSet
EndChar

StartChar: h
Encoding: 104 104 73
Width: 500
Flags: HW
LayerCount: 2
Back
Fore
SplineSet
71 607 m 1
 71 643 l 1
 179 643 l 1
 179 607 l 1
 71 607 l 1
71 571 m 1
 71 607 l 1
 179 607 l 1
 179 571 l 1
 71 571 l 1
71 536 m 1
 71 571 l 1
 179 571 l 1
 179 536 l 1
 71 536 l 1
71 500 m 1
 71 536 l 1
 179 536 l 1
 179 500 l 1
 71 500 l 1
71 464 m 1
 71 500 l 1
 179 500 l 1
 179 464 l 1
 71 464 l 1
71 429 m 1
 71 464 l 1
 179 464 l 1
 179 429 l 1
 71 429 l 1
250 429 m 1
 250 464 l 1
 393 464 l 1
 393 429 l 1
 250 429 l 1
71 393 m 1
 71 429 l 1
 179 429 l 1
 179 393 l 1
 71 393 l 1
214 393 m 1
 214 429 l 1
 429 429 l 1
 429 393 l 1
 214 393 l 1
71 357 m 1
 71 393 l 1
 464 393 l 1
 464 357 l 1
 71 357 l 1
71 321 m 1
 71 357 l 1
 250 357 l 1
 250 321 l 1
 71 321 l 1
357 321 m 1
 357 357 l 1
 464 357 l 1
 464 321 l 1
 357 321 l 1
71 286 m 1
 71 321 l 1
 179 321 l 1
 179 286 l 1
 71 286 l 1
357 286 m 1
 357 321 l 1
 464 321 l 1
 464 286 l 1
 357 286 l 1
71 250 m 1
 71 286 l 1
 179 286 l 1
 179 250 l 1
 71 250 l 1
357 250 m 1
 357 286 l 1
 464 286 l 1
 464 250 l 1
 357 250 l 1
71 214 m 1
 71 250 l 1
 179 250 l 1
 179 214 l 1
 71 214 l 1
357 214 m 1
 357 250 l 1
 464 250 l 1
 464 214 l 1
 357 214 l 1
71 179 m 1
 71 214 l 1
 179 214 l 1
 179 179 l 1
 71 179 l 1
357 179 m 1
 357 214 l 1
 464 214 l 1
 464 179 l 1
 357 179 l 1
71 143 m 1
 71 179 l 1
 179 179 l 1
 179 143 l 1
 71 143 l 1
357 143 m 1
 357 179 l 1
 464 179 l 1
 464 143 l 1
 357 143 l 1
71 107 m 1
 71 143 l 1
 179 143 l 1
 179 107 l 1
 71 107 l 1
357 107 m 1
 357 143 l 1
 464 143 l 1
 464 107 l 1
 357 107 l 1
71 71 m 1
 71 107 l 1
 179 107 l 1
 179 71 l 1
 71 71 l 1
357 71 m 1
 357 107 l 1
 464 107 l 1
 464 71 l 1
 357 71 l 1
71 36 m 1
 71 71 l 1
 179 71 l 1
 179 36 l 1
 71 36 l 1
357 36 m 1
 357 71 l 1
 464 71 l 1
 464 36 l 1
 357 36 l 1
71 0 m 1
 71 36 l 1
 179 36 l 1
 179 0 l 1
 71 0 l 1
357 0 m 1
 357 36 l 1
 464 36 l 1
 464 0 l 1
 357 0 l 1
EndSplineSet
EndChar

StartChar: i
Encoding: 105 105 74
Width: 500
Flags: HW
LayerCount: 2
Back
Fore
SplineSet
250 607 m 1
 250 643 l 1
 357 643 l 1
 357 607 l 1
 250 607 l 1
250 571 m 1
 250 607 l 1
 357 607 l 1
 357 571 l 1
 250 571 l 1
250 536 m 1
 250 571 l 1
 357 571 l 1
 357 536 l 1
 250 536 l 1
71 429 m 1
 71 464 l 1
 357 464 l 1
 357 429 l 1
 71 429 l 1
71 393 m 1
 71 429 l 1
 357 429 l 1
 357 393 l 1
 71 393 l 1
250 357 m 1
 250 393 l 1
 357 393 l 1
 357 357 l 1
 250 357 l 1
250 321 m 1
 250 357 l 1
 357 357 l 1
 357 321 l 1
 250 321 l 1
250 286 m 1
 250 321 l 1
 357 321 l 1
 357 286 l 1
 250 286 l 1
250 250 m 1
 250 286 l 1
 357 286 l 1
 357 250 l 1
 250 250 l 1
250 214 m 1
 250 250 l 1
 357 250 l 1
 357 214 l 1
 250 214 l 1
250 179 m 1
 250 214 l 1
 357 214 l 1
 357 179 l 1
 250 179 l 1
250 143 m 1
 250 179 l 1
 357 179 l 1
 357 143 l 1
 250 143 l 1
250 107 m 1
 250 143 l 1
 357 143 l 1
 357 107 l 1
 250 107 l 1
250 71 m 1
 250 107 l 1
 357 107 l 1
 357 71 l 1
 250 71 l 1
250 36 m 1
 250 71 l 1
 357 71 l 1
 357 36 l 1
 250 36 l 1
250 0 m 1
 250 36 l 1
 357 36 l 1
 357 0 l 1
 250 0 l 1
EndSplineSet
EndChar

StartChar: j
Encoding: 106 106 75
Width: 500
Flags: HW
LayerCount: 2
Back
Fore
SplineSet
286 607 m 1
 286 643 l 1
 393 643 l 1
 393 607 l 1
 286 607 l 1
286 571 m 1
 286 607 l 1
 393 607 l 1
 393 571 l 1
 286 571 l 1
286 536 m 1
 286 571 l 1
 393 571 l 1
 393 536 l 1
 286 536 l 1
107 429 m 1
 107 464 l 1
 393 464 l 1
 393 429 l 1
 107 429 l 1
107 393 m 1
 107 429 l 1
 393 429 l 1
 393 393 l 1
 107 393 l 1
286 357 m 1
 286 393 l 1
 393 393 l 1
 393 357 l 1
 286 357 l 1
286 321 m 1
 286 357 l 1
 393 357 l 1
 393 321 l 1
 286 321 l 1
286 286 m 1
 286 321 l 1
 393 321 l 1
 393 286 l 1
 286 286 l 1
286 250 m 1
 286 286 l 1
 393 286 l 1
 393 250 l 1
 286 250 l 1
286 214 m 1
 286 250 l 1
 393 250 l 1
 393 214 l 1
 286 214 l 1
286 179 m 1
 286 214 l 1
 393 214 l 1
 393 179 l 1
 286 179 l 1
286 143 m 1
 286 179 l 1
 393 179 l 1
 393 143 l 1
 286 143 l 1
286 107 m 1
 286 143 l 1
 393 143 l 1
 393 107 l 1
 286 107 l 1
286 71 m 1
 286 107 l 1
 393 107 l 1
 393 71 l 1
 286 71 l 1
286 36 m 1
 286 71 l 1
 393 71 l 1
 393 36 l 1
 286 36 l 1
286 0 m 1
 286 36 l 1
 393 36 l 1
 393 0 l 1
 286 0 l 1
286 -36 m 1
 286 0 l 1
 393 0 l 1
 393 -36 l 1
 286 -36 l 1
286 -71 m 1
 286 -36 l 1
 393 -36 l 1
 393 -71 l 1
 286 -71 l 1
71 -107 m 1
 71 -71 l 1
 107 -71 l 1
 107 -107 l 1
 71 -107 l 1
250 -107 m 1
 250 -71 l 1
 393 -71 l 1
 393 -107 l 1
 250 -107 l 1
71 -143 m 1
 71 -107 l 1
 357 -107 l 1
 357 -143 l 1
 71 -143 l 1
71 -179 m 1
 71 -143 l 1
 321 -143 l 1
 321 -179 l 1
 71 -179 l 1
EndSplineSet
EndChar

StartChar: k
Encoding: 107 107 76
Width: 500
Flags: HW
LayerCount: 2
Back
Fore
SplineSet
71 607 m 1
 71 643 l 1
 179 643 l 1
 179 607 l 1
 71 607 l 1
71 571 m 1
 71 607 l 1
 179 607 l 1
 179 571 l 1
 71 571 l 1
71 536 m 1
 71 571 l 1
 179 571 l 1
 179 536 l 1
 71 536 l 1
71 500 m 1
 71 536 l 1
 179 536 l 1
 179 500 l 1
 71 500 l 1
71 464 m 1
 71 500 l 1
 179 500 l 1
 179 464 l 1
 71 464 l 1
71 429 m 1
 71 464 l 1
 179 464 l 1
 179 429 l 1
 71 429 l 1
357 429 m 1
 357 464 l 1
 464 464 l 1
 464 429 l 1
 357 429 l 1
71 393 m 1
 71 429 l 1
 179 429 l 1
 179 393 l 1
 71 393 l 1
321 393 m 1
 321 429 l 1
 393 429 l 1
 393 393 l 1
 321 393 l 1
71 357 m 1
 71 393 l 1
 179 393 l 1
 179 357 l 1
 71 357 l 1
286 357 m 1
 286 393 l 1
 393 393 l 1
 393 357 l 1
 286 357 l 1
71 321 m 1
 71 357 l 1
 179 357 l 1
 179 321 l 1
 71 321 l 1
250 321 m 1
 250 357 l 1
 357 357 l 1
 357 321 l 1
 250 321 l 1
71 286 m 1
 71 321 l 1
 179 321 l 1
 179 286 l 1
 71 286 l 1
250 286 m 1
 250 321 l 1
 321 321 l 1
 321 286 l 1
 250 286 l 1
71 250 m 1
 71 286 l 1
 179 286 l 1
 179 250 l 1
 71 250 l 1
214 250 m 1
 214 286 l 1
 286 286 l 1
 286 250 l 1
 214 250 l 1
71 214 m 1
 71 250 l 1
 321 250 l 1
 321 214 l 1
 71 214 l 1
71 179 m 1
 71 214 l 1
 179 214 l 1
 179 179 l 1
 71 179 l 1
214 179 m 1
 214 214 l 1
 357 214 l 1
 357 179 l 1
 214 179 l 1
71 143 m 1
 71 179 l 1
 179 179 l 1
 179 143 l 1
 71 143 l 1
250 143 m 1
 250 179 l 1
 393 179 l 1
 393 143 l 1
 250 143 l 1
71 107 m 1
 71 143 l 1
 179 143 l 1
 179 107 l 1
 71 107 l 1
286 107 m 1
 286 143 l 1
 393 143 l 1
 393 107 l 1
 286 107 l 1
71 71 m 1
 71 107 l 1
 179 107 l 1
 179 71 l 1
 71 71 l 1
286 71 m 1
 286 107 l 1
 429 107 l 1
 429 71 l 1
 286 71 l 1
71 36 m 1
 71 71 l 1
 179 71 l 1
 179 36 l 1
 71 36 l 1
321 36 m 1
 321 71 l 1
 464 71 l 1
 464 36 l 1
 321 36 l 1
71 0 m 1
 71 36 l 1
 179 36 l 1
 179 0 l 1
 71 0 l 1
357 0 m 1
 357 36 l 1
 500 36 l 1
 500 0 l 1
 357 0 l 1
EndSplineSet
EndChar

StartChar: l
Encoding: 108 108 77
Width: 500
Flags: HW
LayerCount: 2
Back
Fore
SplineSet
36 607 m 1
 36 643 l 1
 321 643 l 1
 321 607 l 1
 36 607 l 1
36 571 m 1
 36 607 l 1
 321 607 l 1
 321 571 l 1
 36 571 l 1
214 536 m 1
 214 571 l 1
 321 571 l 1
 321 536 l 1
 214 536 l 1
214 500 m 1
 214 536 l 1
 321 536 l 1
 321 500 l 1
 214 500 l 1
214 464 m 1
 214 500 l 1
 321 500 l 1
 321 464 l 1
 214 464 l 1
214 429 m 1
 214 464 l 1
 321 464 l 1
 321 429 l 1
 214 429 l 1
214 393 m 1
 214 429 l 1
 321 429 l 1
 321 393 l 1
 214 393 l 1
214 357 m 1
 214 393 l 1
 321 393 l 1
 321 357 l 1
 214 357 l 1
214 321 m 1
 214 357 l 1
 321 357 l 1
 321 321 l 1
 214 321 l 1
214 286 m 1
 214 321 l 1
 321 321 l 1
 321 286 l 1
 214 286 l 1
214 250 m 1
 214 286 l 1
 321 286 l 1
 321 250 l 1
 214 250 l 1
214 214 m 1
 214 250 l 1
 321 250 l 1
 321 214 l 1
 214 214 l 1
214 179 m 1
 214 214 l 1
 321 214 l 1
 321 179 l 1
 214 179 l 1
214 143 m 1
 214 179 l 1
 321 179 l 1
 321 143 l 1
 214 143 l 1
214 107 m 1
 214 143 l 1
 321 143 l 1
 321 107 l 1
 214 107 l 1
214 71 m 1
 214 107 l 1
 321 107 l 1
 321 71 l 1
 214 71 l 1
214 36 m 1
 214 71 l 1
 321 71 l 1
 321 36 l 1
 214 36 l 1
214 0 m 1
 214 36 l 1
 321 36 l 1
 321 0 l 1
 214 0 l 1
EndSplineSet
EndChar

StartChar: m
Encoding: 109 109 78
Width: 500
Flags: HW
LayerCount: 2
Back
Fore
SplineSet
36 429 m 1
 36 464 l 1
 143 464 l 1
 143 429 l 1
 36 429 l 1
214 429 m 1
 214 464 l 1
 286 464 l 1
 286 429 l 1
 214 429 l 1
357 429 m 1
 357 464 l 1
 464 464 l 1
 464 429 l 1
 357 429 l 1
36 393 m 1
 36 429 l 1
 143 429 l 1
 143 393 l 1
 36 393 l 1
179 393 m 1
 179 429 l 1
 321 429 l 1
 321 393 l 1
 179 393 l 1
357 393 m 1
 357 429 l 1
 500 429 l 1
 500 393 l 1
 357 393 l 1
36 357 m 1
 36 393 l 1
 500 393 l 1
 500 357 l 1
 36 357 l 1
36 321 m 1
 36 357 l 1
 179 357 l 1
 179 321 l 1
 36 321 l 1
214 321 m 1
 214 357 l 1
 357 357 l 1
 357 321 l 1
 214 321 l 1
393 321 m 1
 393 357 l 1
 500 357 l 1
 500 321 l 1
 393 321 l 1
36 286 m 1
 36 321 l 1
 143 321 l 1
 143 286 l 1
 36 286 l 1
214 286 m 1
 214 321 l 1
 321 321 l 1
 321 286 l 1
 214 286 l 1
393 286 m 1
 393 321 l 1
 500 321 l 1
 500 286 l 1
 393 286 l 1
36 250 m 1
 36 286 l 1
 143 286 l 1
 143 250 l 1
 36 250 l 1
214 250 m 1
 214 286 l 1
 321 286 l 1
 321 250 l 1
 214 250 l 1
393 250 m 1
 393 286 l 1
 500 286 l 1
 500 250 l 1
 393 250 l 1
36 214 m 1
 36 250 l 1
 143 250 l 1
 143 214 l 1
 36 214 l 1
214 214 m 1
 214 250 l 1
 321 250 l 1
 321 214 l 1
 214 214 l 1
393 214 m 1
 393 250 l 1
 500 250 l 1
 500 214 l 1
 393 214 l 1
36 179 m 1
 36 214 l 1
 143 214 l 1
 143 179 l 1
 36 179 l 1
214 179 m 1
 214 214 l 1
 321 214 l 1
 321 179 l 1
 214 179 l 1
393 179 m 1
 393 214 l 1
 500 214 l 1
 500 179 l 1
 393 179 l 1
36 143 m 1
 36 179 l 1
 143 179 l 1
 143 143 l 1
 36 143 l 1
214 143 m 1
 214 179 l 1
 321 179 l 1
 321 143 l 1
 214 143 l 1
393 143 m 1
 393 179 l 1
 500 179 l 1
 500 143 l 1
 393 143 l 1
36 107 m 1
 36 143 l 1
 143 143 l 1
 143 107 l 1
 36 107 l 1
214 107 m 1
 214 143 l 1
 321 143 l 1
 321 107 l 1
 214 107 l 1
393 107 m 1
 393 143 l 1
 500 143 l 1
 500 107 l 1
 393 107 l 1
36 71 m 1
 36 107 l 1
 143 107 l 1
 143 71 l 1
 36 71 l 1
214 71 m 1
 214 107 l 1
 321 107 l 1
 321 71 l 1
 214 71 l 1
393 71 m 1
 393 107 l 1
 500 107 l 1
 500 71 l 1
 393 71 l 1
36 36 m 1
 36 71 l 1
 143 71 l 1
 143 36 l 1
 36 36 l 1
214 36 m 1
 214 71 l 1
 321 71 l 1
 321 36 l 1
 214 36 l 1
393 36 m 1
 393 71 l 1
 500 71 l 1
 500 36 l 1
 393 36 l 1
36 0 m 1
 36 36 l 1
 143 36 l 1
 143 0 l 1
 36 0 l 1
214 0 m 1
 214 36 l 1
 321 36 l 1
 321 0 l 1
 214 0 l 1
393 0 m 1
 393 36 l 1
 500 36 l 1
 500 0 l 1
 393 0 l 1
EndSplineSet
EndChar

StartChar: n
Encoding: 110 110 79
Width: 500
Flags: HW
LayerCount: 2
Back
Fore
SplineSet
71 429 m 1
 71 464 l 1
 179 464 l 1
 179 429 l 1
 71 429 l 1
250 429 m 1
 250 464 l 1
 393 464 l 1
 393 429 l 1
 250 429 l 1
71 393 m 1
 71 429 l 1
 179 429 l 1
 179 393 l 1
 71 393 l 1
214 393 m 1
 214 429 l 1
 429 429 l 1
 429 393 l 1
 214 393 l 1
71 357 m 1
 71 393 l 1
 464 393 l 1
 464 357 l 1
 71 357 l 1
71 321 m 1
 71 357 l 1
 250 357 l 1
 250 321 l 1
 71 321 l 1
357 321 m 1
 357 357 l 1
 464 357 l 1
 464 321 l 1
 357 321 l 1
71 286 m 1
 71 321 l 1
 179 321 l 1
 179 286 l 1
 71 286 l 1
357 286 m 1
 357 321 l 1
 464 321 l 1
 464 286 l 1
 357 286 l 1
71 250 m 1
 71 286 l 1
 179 286 l 1
 179 250 l 1
 71 250 l 1
357 250 m 1
 357 286 l 1
 464 286 l 1
 464 250 l 1
 357 250 l 1
71 214 m 1
 71 250 l 1
 179 250 l 1
 179 214 l 1
 71 214 l 1
357 214 m 1
 357 250 l 1
 464 250 l 1
 464 214 l 1
 357 214 l 1
71 179 m 1
 71 214 l 1
 179 214 l 1
 179 179 l 1
 71 179 l 1
357 179 m 1
 357 214 l 1
 464 214 l 1
 464 179 l 1
 357 179 l 1
71 143 m 1
 71 179 l 1
 179 179 l 1
 179 143 l 1
 71 143 l 1
357 143 m 1
 357 179 l 1
 464 179 l 1
 464 143 l 1
 357 143 l 1
71 107 m 1
 71 143 l 1
 179 143 l 1
 179 107 l 1
 71 107 l 1
357 107 m 1
 357 143 l 1
 464 143 l 1
 464 107 l 1
 357 107 l 1
71 71 m 1
 71 107 l 1
 179 107 l 1
 179 71 l 1
 71 71 l 1
357 71 m 1
 357 107 l 1
 464 107 l 1
 464 71 l 1
 357 71 l 1
71 36 m 1
 71 71 l 1
 179 71 l 1
 179 36 l 1
 71 36 l 1
357 36 m 1
 357 71 l 1
 464 71 l 1
 464 36 l 1
 357 36 l 1
71 0 m 1
 71 36 l 1
 179 36 l 1
 179 0 l 1
 71 0 l 1
357 0 m 1
 357 36 l 1
 464 36 l 1
 464 0 l 1
 357 0 l 1
EndSplineSet
EndChar

StartChar: o
Encoding: 111 111 80
Width: 500
Flags: HW
LayerCount: 2
Back
Fore
SplineSet
179 429 m 1
 179 464 l 1
 357 464 l 1
 357 429 l 1
 179 429 l 1
107 393 m 1
 107 429 l 1
 429 429 l 1
 429 393 l 1
 107 393 l 1
71 357 m 1
 71 393 l 1
 214 393 l 1
 214 357 l 1
 71 357 l 1
321 357 m 1
 321 393 l 1
 464 393 l 1
 464 357 l 1
 321 357 l 1
71 321 m 1
 71 357 l 1
 179 357 l 1
 179 321 l 1
 71 321 l 1
357 321 m 1
 357 357 l 1
 464 357 l 1
 464 321 l 1
 357 321 l 1
36 286 m 1
 36 321 l 1
 143 321 l 1
 143 286 l 1
 36 286 l 1
393 286 m 1
 393 321 l 1
 500 321 l 1
 500 286 l 1
 393 286 l 1
36 250 m 1
 36 286 l 1
 143 286 l 1
 143 250 l 1
 36 250 l 1
393 250 m 1
 393 286 l 1
 500 286 l 1
 500 250 l 1
 393 250 l 1
36 214 m 1
 36 250 l 1
 143 250 l 1
 143 214 l 1
 36 214 l 1
393 214 m 1
 393 250 l 1
 500 250 l 1
 500 214 l 1
 393 214 l 1
36 179 m 1
 36 214 l 1
 143 214 l 1
 143 179 l 1
 36 179 l 1
393 179 m 1
 393 214 l 1
 500 214 l 1
 500 179 l 1
 393 179 l 1
36 143 m 1
 36 179 l 1
 143 179 l 1
 143 143 l 1
 36 143 l 1
393 143 m 1
 393 179 l 1
 500 179 l 1
 500 143 l 1
 393 143 l 1
71 107 m 1
 71 143 l 1
 179 143 l 1
 179 107 l 1
 71 107 l 1
357 107 m 1
 357 143 l 1
 464 143 l 1
 464 107 l 1
 357 107 l 1
71 71 m 1
 71 107 l 1
 214 107 l 1
 214 71 l 1
 71 71 l 1
321 71 m 1
 321 107 l 1
 464 107 l 1
 464 71 l 1
 321 71 l 1
107 36 m 1
 107 71 l 1
 429 71 l 1
 429 36 l 1
 107 36 l 1
179 0 m 1
 179 36 l 1
 357 36 l 1
 357 0 l 1
 179 0 l 1
EndSplineSet
EndChar

StartChar: p
Encoding: 112 112 81
Width: 500
Flags: HW
LayerCount: 2
Back
Fore
SplineSet
36 429 m 1
 36 464 l 1
 143 464 l 1
 143 429 l 1
 36 429 l 1
214 429 m 1
 214 464 l 1
 357 464 l 1
 357 429 l 1
 214 429 l 1
36 393 m 1
 36 429 l 1
 143 429 l 1
 143 393 l 1
 36 393 l 1
179 393 m 1
 179 429 l 1
 429 429 l 1
 429 393 l 1
 179 393 l 1
36 357 m 1
 36 393 l 1
 429 393 l 1
 429 357 l 1
 36 357 l 1
36 321 m 1
 36 357 l 1
 214 357 l 1
 214 321 l 1
 36 321 l 1
321 321 m 1
 321 357 l 1
 464 357 l 1
 464 321 l 1
 321 321 l 1
36 286 m 1
 36 321 l 1
 179 321 l 1
 179 286 l 1
 36 286 l 1
357 286 m 1
 357 321 l 1
 464 321 l 1
 464 286 l 1
 357 286 l 1
36 250 m 1
 36 286 l 1
 143 286 l 1
 143 250 l 1
 36 250 l 1
357 250 m 1
 357 286 l 1
 464 286 l 1
 464 250 l 1
 357 250 l 1
36 214 m 1
 36 250 l 1
 143 250 l 1
 143 214 l 1
 36 214 l 1
357 214 m 1
 357 250 l 1
 464 250 l 1
 464 214 l 1
 357 214 l 1
36 179 m 1
 36 214 l 1
 143 214 l 1
 143 179 l 1
 36 179 l 1
357 179 m 1
 357 214 l 1
 464 214 l 1
 464 179 l 1
 357 179 l 1
36 143 m 1
 36 179 l 1
 143 179 l 1
 143 143 l 1
 36 143 l 1
357 143 m 1
 357 179 l 1
 464 179 l 1
 464 143 l 1
 357 143 l 1
36 107 m 1
 36 143 l 1
 143 143 l 1
 143 107 l 1
 36 107 l 1
321 107 m 1
 321 143 l 1
 429 143 l 1
 429 107 l 1
 321 107 l 1
36 71 m 1
 36 107 l 1
 179 107 l 1
 179 71 l 1
 36 71 l 1
286 71 m 1
 286 107 l 1
 429 107 l 1
 429 71 l 1
 286 71 l 1
36 36 m 1
 36 71 l 1
 393 71 l 1
 393 36 l 1
 36 36 l 1
36 0 m 1
 36 36 l 1
 143 36 l 1
 143 0 l 1
 36 0 l 1
179 0 m 1
 179 36 l 1
 357 36 l 1
 357 0 l 1
 179 0 l 1
36 -36 m 1
 36 0 l 1
 143 0 l 1
 143 -36 l 1
 36 -36 l 1
36 -71 m 1
 36 -36 l 1
 143 -36 l 1
 143 -71 l 1
 36 -71 l 1
36 -107 m 1
 36 -71 l 1
 143 -71 l 1
 143 -107 l 1
 36 -107 l 1
36 -143 m 1
 36 -107 l 1
 143 -107 l 1
 143 -143 l 1
 36 -143 l 1
36 -179 m 1
 36 -143 l 1
 143 -143 l 1
 143 -179 l 1
 36 -179 l 1
EndSplineSet
EndChar

StartChar: q
Encoding: 113 113 82
Width: 500
Flags: HW
LayerCount: 2
Back
Fore
SplineSet
143 429 m 1
 143 464 l 1
 321 464 l 1
 321 429 l 1
 143 429 l 1
357 429 m 1
 357 464 l 1
 464 464 l 1
 464 429 l 1
 357 429 l 1
107 393 m 1
 107 429 l 1
 464 429 l 1
 464 393 l 1
 107 393 l 1
71 357 m 1
 71 393 l 1
 214 393 l 1
 214 357 l 1
 71 357 l 1
321 357 m 1
 321 393 l 1
 464 393 l 1
 464 357 l 1
 321 357 l 1
71 321 m 1
 71 357 l 1
 179 357 l 1
 179 321 l 1
 71 321 l 1
357 321 m 1
 357 357 l 1
 464 357 l 1
 464 321 l 1
 357 321 l 1
36 286 m 1
 36 321 l 1
 143 321 l 1
 143 286 l 1
 36 286 l 1
357 286 m 1
 357 321 l 1
 464 321 l 1
 464 286 l 1
 357 286 l 1
36 250 m 1
 36 286 l 1
 143 286 l 1
 143 250 l 1
 36 250 l 1
357 250 m 1
 357 286 l 1
 464 286 l 1
 464 250 l 1
 357 250 l 1
36 214 m 1
 36 250 l 1
 143 250 l 1
 143 214 l 1
 36 214 l 1
357 214 m 1
 357 250 l 1
 464 250 l 1
 464 214 l 1
 357 214 l 1
36 179 m 1
 36 214 l 1
 143 214 l 1
 143 179 l 1
 36 179 l 1
357 179 m 1
 357 214 l 1
 464 214 l 1
 464 179 l 1
 357 179 l 1
36 143 m 1
 36 179 l 1
 143 179 l 1
 143 143 l 1
 36 143 l 1
321 143 m 1
 321 179 l 1
 464 179 l 1
 464 143 l 1
 321 143 l 1
36 107 m 1
 36 143 l 1
 179 143 l 1
 179 107 l 1
 36 107 l 1
286 107 m 1
 286 143 l 1
 464 143 l 1
 464 107 l 1
 286 107 l 1
71 71 m 1
 71 107 l 1
 464 107 l 1
 464 71 l 1
 71 71 l 1
71 36 m 1
 71 71 l 1
 321 71 l 1
 321 36 l 1
 71 36 l 1
357 36 m 1
 357 71 l 1
 464 71 l 1
 464 36 l 1
 357 36 l 1
143 0 m 1
 143 36 l 1
 286 36 l 1
 286 0 l 1
 143 0 l 1
357 0 m 1
 357 36 l 1
 464 36 l 1
 464 0 l 1
 357 0 l 1
357 -36 m 1
 357 0 l 1
 464 0 l 1
 464 -36 l 1
 357 -36 l 1
357 -71 m 1
 357 -36 l 1
 464 -36 l 1
 464 -71 l 1
 357 -71 l 1
357 -107 m 1
 357 -71 l 1
 464 -71 l 1
 464 -107 l 1
 357 -107 l 1
357 -143 m 1
 357 -107 l 1
 464 -107 l 1
 464 -143 l 1
 357 -143 l 1
357 -179 m 1
 357 -143 l 1
 464 -143 l 1
 464 -179 l 1
 357 -179 l 1
EndSplineSet
EndChar

StartChar: r
Encoding: 114 114 83
Width: 500
Flags: HW
LayerCount: 2
Back
Fore
SplineSet
107 429 m 1
 107 464 l 1
 214 464 l 1
 214 429 l 1
 107 429 l 1
286 429 m 1
 286 464 l 1
 464 464 l 1
 464 429 l 1
 286 429 l 1
107 393 m 1
 107 429 l 1
 214 429 l 1
 214 393 l 1
 107 393 l 1
250 393 m 1
 250 429 l 1
 464 429 l 1
 464 393 l 1
 250 393 l 1
107 357 m 1
 107 393 l 1
 464 393 l 1
 464 357 l 1
 107 357 l 1
107 321 m 1
 107 357 l 1
 286 357 l 1
 286 321 l 1
 107 321 l 1
393 321 m 1
 393 357 l 1
 464 357 l 1
 464 321 l 1
 393 321 l 1
107 286 m 1
 107 321 l 1
 250 321 l 1
 250 286 l 1
 107 286 l 1
393 286 m 1
 393 321 l 1
 464 321 l 1
 464 286 l 1
 393 286 l 1
107 250 m 1
 107 286 l 1
 214 286 l 1
 214 250 l 1
 107 250 l 1
107 214 m 1
 107 250 l 1
 214 250 l 1
 214 214 l 1
 107 214 l 1
107 179 m 1
 107 214 l 1
 214 214 l 1
 214 179 l 1
 107 179 l 1
107 143 m 1
 107 179 l 1
 214 179 l 1
 214 143 l 1
 107 143 l 1
107 107 m 1
 107 143 l 1
 214 143 l 1
 214 107 l 1
 107 107 l 1
107 71 m 1
 107 107 l 1
 214 107 l 1
 214 71 l 1
 107 71 l 1
107 36 m 1
 107 71 l 1
 214 71 l 1
 214 36 l 1
 107 36 l 1
107 0 m 1
 107 36 l 1
 214 36 l 1
 214 0 l 1
 107 0 l 1
EndSplineSet
EndChar

StartChar: s
Encoding: 115 115 84
Width: 500
Flags: HW
LayerCount: 2
Back
Fore
SplineSet
179 429 m 1
 179 464 l 1
 429 464 l 1
 429 429 l 1
 179 429 l 1
107 393 m 1
 107 429 l 1
 429 429 l 1
 429 393 l 1
 107 393 l 1
71 357 m 1
 71 393 l 1
 214 393 l 1
 214 357 l 1
 71 357 l 1
393 357 m 1
 393 393 l 1
 429 393 l 1
 429 357 l 1
 393 357 l 1
71 321 m 1
 71 357 l 1
 214 357 l 1
 214 321 l 1
 71 321 l 1
71 286 m 1
 71 321 l 1
 250 321 l 1
 250 286 l 1
 71 286 l 1
107 250 m 1
 107 286 l 1
 357 286 l 1
 357 250 l 1
 107 250 l 1
143 214 m 1
 143 250 l 1
 429 250 l 1
 429 214 l 1
 143 214 l 1
250 179 m 1
 250 214 l 1
 464 214 l 1
 464 179 l 1
 250 179 l 1
321 143 m 1
 321 179 l 1
 464 179 l 1
 464 143 l 1
 321 143 l 1
357 107 m 1
 357 143 l 1
 464 143 l 1
 464 107 l 1
 357 107 l 1
71 71 m 1
 71 107 l 1
 143 107 l 1
 143 71 l 1
 71 71 l 1
321 71 m 1
 321 107 l 1
 464 107 l 1
 464 71 l 1
 321 71 l 1
71 36 m 1
 71 71 l 1
 429 71 l 1
 429 36 l 1
 71 36 l 1
107 0 m 1
 107 36 l 1
 357 36 l 1
 357 0 l 1
 107 0 l 1
EndSplineSet
EndChar

StartChar: t
Encoding: 116 116 85
Width: 500
Flags: HW
LayerCount: 2
Back
Fore
SplineSet
179 536 m 1
 179 571 l 1
 286 571 l 1
 286 536 l 1
 179 536 l 1
179 500 m 1
 179 536 l 1
 286 536 l 1
 286 500 l 1
 179 500 l 1
179 464 m 1
 179 500 l 1
 286 500 l 1
 286 464 l 1
 179 464 l 1
71 429 m 1
 71 464 l 1
 464 464 l 1
 464 429 l 1
 71 429 l 1
71 393 m 1
 71 429 l 1
 464 429 l 1
 464 393 l 1
 71 393 l 1
179 357 m 1
 179 393 l 1
 286 393 l 1
 286 357 l 1
 179 357 l 1
179 321 m 1
 179 357 l 1
 286 357 l 1
 286 321 l 1
 179 321 l 1
179 286 m 1
 179 321 l 1
 286 321 l 1
 286 286 l 1
 179 286 l 1
179 250 m 1
 179 286 l 1
 286 286 l 1
 286 250 l 1
 179 250 l 1
179 214 m 1
 179 250 l 1
 286 250 l 1
 286 214 l 1
 179 214 l 1
179 179 m 1
 179 214 l 1
 286 214 l 1
 286 179 l 1
 179 179 l 1
179 143 m 1
 179 179 l 1
 286 179 l 1
 286 143 l 1
 179 143 l 1
179 107 m 1
 179 143 l 1
 286 143 l 1
 286 107 l 1
 179 107 l 1
179 71 m 1
 179 107 l 1
 321 107 l 1
 321 71 l 1
 179 71 l 1
429 71 m 1
 429 107 l 1
 464 107 l 1
 464 71 l 1
 429 71 l 1
214 36 m 1
 214 71 l 1
 464 71 l 1
 464 36 l 1
 214 36 l 1
250 0 m 1
 250 36 l 1
 464 36 l 1
 464 0 l 1
 250 0 l 1
EndSplineSet
EndChar

StartChar: u
Encoding: 117 117 86
Width: 500
Flags: HW
LayerCount: 2
Back
Fore
SplineSet
71 429 m 1
 71 464 l 1
 179 464 l 1
 179 429 l 1
 71 429 l 1
357 429 m 1
 357 464 l 1
 464 464 l 1
 464 429 l 1
 357 429 l 1
71 393 m 1
 71 429 l 1
 179 429 l 1
 179 393 l 1
 71 393 l 1
357 393 m 1
 357 429 l 1
 464 429 l 1
 464 393 l 1
 357 393 l 1
71 357 m 1
 71 393 l 1
 179 393 l 1
 179 357 l 1
 71 357 l 1
357 357 m 1
 357 393 l 1
 464 393 l 1
 464 357 l 1
 357 357 l 1
71 321 m 1
 71 357 l 1
 179 357 l 1
 179 321 l 1
 71 321 l 1
357 321 m 1
 357 357 l 1
 464 357 l 1
 464 321 l 1
 357 321 l 1
71 286 m 1
 71 321 l 1
 179 321 l 1
 179 286 l 1
 71 286 l 1
357 286 m 1
 357 321 l 1
 464 321 l 1
 464 286 l 1
 357 286 l 1
71 250 m 1
 71 286 l 1
 179 286 l 1
 179 250 l 1
 71 250 l 1
357 250 m 1
 357 286 l 1
 464 286 l 1
 464 250 l 1
 357 250 l 1
71 214 m 1
 71 250 l 1
 179 250 l 1
 179 214 l 1
 71 214 l 1
357 214 m 1
 357 250 l 1
 464 250 l 1
 464 214 l 1
 357 214 l 1
71 179 m 1
 71 214 l 1
 179 214 l 1
 179 179 l 1
 71 179 l 1
357 179 m 1
 357 214 l 1
 464 214 l 1
 464 179 l 1
 357 179 l 1
71 143 m 1
 71 179 l 1
 179 179 l 1
 179 143 l 1
 71 143 l 1
357 143 m 1
 357 179 l 1
 464 179 l 1
 464 143 l 1
 357 143 l 1
71 107 m 1
 71 143 l 1
 179 143 l 1
 179 107 l 1
 71 107 l 1
286 107 m 1
 286 143 l 1
 464 143 l 1
 464 107 l 1
 286 107 l 1
71 71 m 1
 71 107 l 1
 464 107 l 1
 464 71 l 1
 71 71 l 1
107 36 m 1
 107 71 l 1
 321 71 l 1
 321 36 l 1
 107 36 l 1
357 36 m 1
 357 71 l 1
 464 71 l 1
 464 36 l 1
 357 36 l 1
143 0 m 1
 143 36 l 1
 286 36 l 1
 286 0 l 1
 143 0 l 1
357 0 m 1
 357 36 l 1
 464 36 l 1
 464 0 l 1
 357 0 l 1
EndSplineSet
EndChar

StartChar: v
Encoding: 118 118 87
Width: 500
Flags: HW
LayerCount: 2
Back
Fore
SplineSet
0 429 m 1
 0 464 l 1
 143 464 l 1
 143 429 l 1
 0 429 l 1
393 429 m 1
 393 464 l 1
 500 464 l 1
 500 429 l 1
 393 429 l 1
36 393 m 1
 36 429 l 1
 143 429 l 1
 143 393 l 1
 36 393 l 1
393 393 m 1
 393 429 l 1
 464 429 l 1
 464 393 l 1
 393 393 l 1
36 357 m 1
 36 393 l 1
 143 393 l 1
 143 357 l 1
 36 357 l 1
393 357 m 1
 393 393 l 1
 464 393 l 1
 464 357 l 1
 393 357 l 1
71 321 m 1
 71 357 l 1
 179 357 l 1
 179 321 l 1
 71 321 l 1
357 321 m 1
 357 357 l 1
 429 357 l 1
 429 321 l 1
 357 321 l 1
71 286 m 1
 71 321 l 1
 179 321 l 1
 179 286 l 1
 71 286 l 1
357 286 m 1
 357 321 l 1
 429 321 l 1
 429 286 l 1
 357 286 l 1
71 250 m 1
 71 286 l 1
 214 286 l 1
 214 250 l 1
 71 250 l 1
321 250 m 1
 321 286 l 1
 429 286 l 1
 429 250 l 1
 321 250 l 1
107 214 m 1
 107 250 l 1
 214 250 l 1
 214 214 l 1
 107 214 l 1
321 214 m 1
 321 250 l 1
 393 250 l 1
 393 214 l 1
 321 214 l 1
107 179 m 1
 107 214 l 1
 214 214 l 1
 214 179 l 1
 107 179 l 1
321 179 m 1
 321 214 l 1
 393 214 l 1
 393 179 l 1
 321 179 l 1
143 143 m 1
 143 179 l 1
 250 179 l 1
 250 143 l 1
 143 143 l 1
286 143 m 1
 286 179 l 1
 357 179 l 1
 357 143 l 1
 286 143 l 1
143 107 m 1
 143 143 l 1
 250 143 l 1
 250 107 l 1
 143 107 l 1
286 107 m 1
 286 143 l 1
 357 143 l 1
 357 107 l 1
 286 107 l 1
143 71 m 1
 143 107 l 1
 321 107 l 1
 321 71 l 1
 143 71 l 1
179 36 m 1
 179 71 l 1
 321 71 l 1
 321 36 l 1
 179 36 l 1
179 0 m 1
 179 36 l 1
 321 36 l 1
 321 0 l 1
 179 0 l 1
EndSplineSet
EndChar

StartChar: w
Encoding: 119 119 88
Width: 500
Flags: HW
LayerCount: 2
Back
Fore
SplineSet
0 429 m 1
 0 464 l 1
 107 464 l 1
 107 429 l 1
 0 429 l 1
429 429 m 1
 429 464 l 1
 500 464 l 1
 500 429 l 1
 429 429 l 1
0 393 m 1
 0 429 l 1
 107 429 l 1
 107 393 l 1
 0 393 l 1
214 393 m 1
 214 429 l 1
 321 429 l 1
 321 393 l 1
 214 393 l 1
429 393 m 1
 429 429 l 1
 500 429 l 1
 500 393 l 1
 429 393 l 1
0 357 m 1
 0 393 l 1
 107 393 l 1
 107 357 l 1
 0 357 l 1
214 357 m 1
 214 393 l 1
 321 393 l 1
 321 357 l 1
 214 357 l 1
429 357 m 1
 429 393 l 1
 500 393 l 1
 500 357 l 1
 429 357 l 1
36 321 m 1
 36 357 l 1
 143 357 l 1
 143 321 l 1
 36 321 l 1
179 321 m 1
 179 357 l 1
 321 357 l 1
 321 321 l 1
 179 321 l 1
393 321 m 1
 393 357 l 1
 464 357 l 1
 464 321 l 1
 393 321 l 1
36 286 m 1
 36 321 l 1
 143 321 l 1
 143 286 l 1
 36 286 l 1
179 286 m 1
 179 321 l 1
 357 321 l 1
 357 286 l 1
 179 286 l 1
393 286 m 1
 393 321 l 1
 464 321 l 1
 464 286 l 1
 393 286 l 1
36 250 m 1
 36 286 l 1
 143 286 l 1
 143 250 l 1
 36 250 l 1
179 250 m 1
 179 286 l 1
 357 286 l 1
 357 250 l 1
 179 250 l 1
393 250 m 1
 393 286 l 1
 464 286 l 1
 464 250 l 1
 393 250 l 1
36 214 m 1
 36 250 l 1
 357 250 l 1
 357 214 l 1
 36 214 l 1
393 214 m 1
 393 250 l 1
 464 250 l 1
 464 214 l 1
 393 214 l 1
36 179 m 1
 36 214 l 1
 214 214 l 1
 214 179 l 1
 36 179 l 1
286 179 m 1
 286 214 l 1
 357 214 l 1
 357 179 l 1
 286 179 l 1
393 179 m 1
 393 214 l 1
 464 214 l 1
 464 179 l 1
 393 179 l 1
36 143 m 1
 36 179 l 1
 214 179 l 1
 214 143 l 1
 36 143 l 1
286 143 m 1
 286 179 l 1
 464 179 l 1
 464 143 l 1
 286 143 l 1
71 107 m 1
 71 143 l 1
 214 143 l 1
 214 107 l 1
 71 107 l 1
286 107 m 1
 286 143 l 1
 429 143 l 1
 429 107 l 1
 286 107 l 1
71 71 m 1
 71 107 l 1
 179 107 l 1
 179 71 l 1
 71 71 l 1
286 71 m 1
 286 107 l 1
 429 107 l 1
 429 71 l 1
 286 71 l 1
71 36 m 1
 71 71 l 1
 179 71 l 1
 179 36 l 1
 71 36 l 1
321 36 m 1
 321 71 l 1
 429 71 l 1
 429 36 l 1
 321 36 l 1
71 0 m 1
 71 36 l 1
 179 36 l 1
 179 0 l 1
 71 0 l 1
321 0 m 1
 321 36 l 1
 429 36 l 1
 429 0 l 1
 321 0 l 1
EndSplineSet
EndChar

StartChar: x
Encoding: 120 120 89
Width: 500
Flags: HW
LayerCount: 2
Back
Fore
SplineSet
36 429 m 1
 36 464 l 1
 179 464 l 1
 179 429 l 1
 36 429 l 1
393 429 m 1
 393 464 l 1
 464 464 l 1
 464 429 l 1
 393 429 l 1
71 393 m 1
 71 429 l 1
 214 429 l 1
 214 393 l 1
 71 393 l 1
357 393 m 1
 357 429 l 1
 429 429 l 1
 429 393 l 1
 357 393 l 1
107 357 m 1
 107 393 l 1
 250 393 l 1
 250 357 l 1
 107 357 l 1
321 357 m 1
 321 393 l 1
 429 393 l 1
 429 357 l 1
 321 357 l 1
143 321 m 1
 143 357 l 1
 250 357 l 1
 250 321 l 1
 143 321 l 1
286 321 m 1
 286 357 l 1
 393 357 l 1
 393 321 l 1
 286 321 l 1
179 286 m 1
 179 321 l 1
 357 321 l 1
 357 286 l 1
 179 286 l 1
179 250 m 1
 179 286 l 1
 321 286 l 1
 321 250 l 1
 179 250 l 1
214 214 m 1
 214 250 l 1
 321 250 l 1
 321 214 l 1
 214 214 l 1
179 179 m 1
 179 214 l 1
 357 214 l 1
 357 179 l 1
 179 179 l 1
143 143 m 1
 143 179 l 1
 393 179 l 1
 393 143 l 1
 143 143 l 1
143 107 m 1
 143 143 l 1
 214 143 l 1
 214 107 l 1
 143 107 l 1
286 107 m 1
 286 143 l 1
 393 143 l 1
 393 107 l 1
 286 107 l 1
107 71 m 1
 107 107 l 1
 179 107 l 1
 179 71 l 1
 107 71 l 1
286 71 m 1
 286 107 l 1
 429 107 l 1
 429 71 l 1
 286 71 l 1
71 36 m 1
 71 71 l 1
 179 71 l 1
 179 36 l 1
 71 36 l 1
321 36 m 1
 321 71 l 1
 464 71 l 1
 464 36 l 1
 321 36 l 1
36 0 m 1
 36 36 l 1
 143 36 l 1
 143 0 l 1
 36 0 l 1
357 0 m 1
 357 36 l 1
 500 36 l 1
 500 0 l 1
 357 0 l 1
EndSplineSet
EndChar

StartChar: y
Encoding: 121 121 90
Width: 500
Flags: HW
LayerCount: 2
Back
Fore
SplineSet
0 429 m 1
 0 464 l 1
 143 464 l 1
 143 429 l 1
 0 429 l 1
393 429 m 1
 393 464 l 1
 500 464 l 1
 500 429 l 1
 393 429 l 1
36 393 m 1
 36 429 l 1
 143 429 l 1
 143 393 l 1
 36 393 l 1
393 393 m 1
 393 429 l 1
 464 429 l 1
 464 393 l 1
 393 393 l 1
36 357 m 1
 36 393 l 1
 179 393 l 1
 179 357 l 1
 36 357 l 1
357 357 m 1
 357 393 l 1
 464 393 l 1
 464 357 l 1
 357 357 l 1
71 321 m 1
 71 357 l 1
 179 357 l 1
 179 321 l 1
 71 321 l 1
357 321 m 1
 357 357 l 1
 429 357 l 1
 429 321 l 1
 357 321 l 1
71 286 m 1
 71 321 l 1
 214 321 l 1
 214 286 l 1
 71 286 l 1
357 286 m 1
 357 321 l 1
 429 321 l 1
 429 286 l 1
 357 286 l 1
107 250 m 1
 107 286 l 1
 214 286 l 1
 214 250 l 1
 107 250 l 1
321 250 m 1
 321 286 l 1
 393 286 l 1
 393 250 l 1
 321 250 l 1
107 214 m 1
 107 250 l 1
 250 250 l 1
 250 214 l 1
 107 214 l 1
321 214 m 1
 321 250 l 1
 393 250 l 1
 393 214 l 1
 321 214 l 1
143 179 m 1
 143 214 l 1
 250 214 l 1
 250 179 l 1
 143 179 l 1
286 179 m 1
 286 214 l 1
 357 214 l 1
 357 179 l 1
 286 179 l 1
143 143 m 1
 143 179 l 1
 250 179 l 1
 250 143 l 1
 143 143 l 1
286 143 m 1
 286 179 l 1
 357 179 l 1
 357 143 l 1
 286 143 l 1
179 107 m 1
 179 143 l 1
 357 143 l 1
 357 107 l 1
 179 107 l 1
179 71 m 1
 179 107 l 1
 321 107 l 1
 321 71 l 1
 179 71 l 1
214 36 m 1
 214 71 l 1
 321 71 l 1
 321 36 l 1
 214 36 l 1
214 0 m 1
 214 36 l 1
 286 36 l 1
 286 0 l 1
 214 0 l 1
214 -36 m 1
 214 0 l 1
 286 0 l 1
 286 -36 l 1
 214 -36 l 1
179 -71 m 1
 179 -36 l 1
 250 -36 l 1
 250 -71 l 1
 179 -71 l 1
179 -107 m 1
 179 -71 l 1
 250 -71 l 1
 250 -107 l 1
 179 -107 l 1
36 -143 m 1
 36 -107 l 1
 214 -107 l 1
 214 -143 l 1
 36 -143 l 1
36 -179 m 1
 36 -143 l 1
 179 -143 l 1
 179 -179 l 1
 36 -179 l 1
EndSplineSet
EndChar

StartChar: z
Encoding: 122 122 91
Width: 500
Flags: HW
LayerCount: 2
Back
Fore
SplineSet
36 429 m 1
 36 464 l 1
 464 464 l 1
 464 429 l 1
 36 429 l 1
36 393 m 1
 36 429 l 1
 464 429 l 1
 464 393 l 1
 36 393 l 1
286 357 m 1
 286 393 l 1
 429 393 l 1
 429 357 l 1
 286 357 l 1
286 321 m 1
 286 357 l 1
 393 357 l 1
 393 321 l 1
 286 321 l 1
250 286 m 1
 250 321 l 1
 393 321 l 1
 393 286 l 1
 250 286 l 1
214 250 m 1
 214 286 l 1
 357 286 l 1
 357 250 l 1
 214 250 l 1
179 214 m 1
 179 250 l 1
 321 250 l 1
 321 214 l 1
 179 214 l 1
143 179 m 1
 143 214 l 1
 286 214 l 1
 286 179 l 1
 143 179 l 1
107 143 m 1
 107 179 l 1
 250 179 l 1
 250 143 l 1
 107 143 l 1
71 107 m 1
 71 143 l 1
 214 143 l 1
 214 107 l 1
 71 107 l 1
36 71 m 1
 36 107 l 1
 179 107 l 1
 179 71 l 1
 36 71 l 1
36 36 m 1
 36 71 l 1
 464 71 l 1
 464 36 l 1
 36 36 l 1
36 0 m 1
 36 36 l 1
 464 36 l 1
 464 0 l 1
 36 0 l 1
EndSplineSet
EndChar

StartChar: braceleft
Encoding: 123 123 92
Width: 500
Flags: HW
LayerCount: 2
Back
Fore
SplineSet
286 607 m 1
 286 643 l 1
 464 643 l 1
 464 607 l 1
 286 607 l 1
214 571 m 1
 214 607 l 1
 464 607 l 1
 464 571 l 1
 214 571 l 1
214 536 m 1
 214 571 l 1
 321 571 l 1
 321 536 l 1
 214 536 l 1
214 500 m 1
 214 536 l 1
 321 536 l 1
 321 500 l 1
 214 500 l 1
214 464 m 1
 214 500 l 1
 321 500 l 1
 321 464 l 1
 214 464 l 1
250 429 m 1
 250 464 l 1
 357 464 l 1
 357 429 l 1
 250 429 l 1
250 393 m 1
 250 429 l 1
 357 429 l 1
 357 393 l 1
 250 393 l 1
250 357 m 1
 250 393 l 1
 357 393 l 1
 357 357 l 1
 250 357 l 1
250 321 m 1
 250 357 l 1
 357 357 l 1
 357 321 l 1
 250 321 l 1
250 286 m 1
 250 321 l 1
 321 321 l 1
 321 286 l 1
 250 286 l 1
107 250 m 1
 107 286 l 1
 286 286 l 1
 286 250 l 1
 107 250 l 1
107 214 m 1
 107 250 l 1
 286 250 l 1
 286 214 l 1
 107 214 l 1
250 179 m 1
 250 214 l 1
 321 214 l 1
 321 179 l 1
 250 179 l 1
250 143 m 1
 250 179 l 1
 357 179 l 1
 357 143 l 1
 250 143 l 1
250 107 m 1
 250 143 l 1
 357 143 l 1
 357 107 l 1
 250 107 l 1
250 71 m 1
 250 107 l 1
 357 107 l 1
 357 71 l 1
 250 71 l 1
214 36 m 1
 214 71 l 1
 357 71 l 1
 357 36 l 1
 214 36 l 1
214 0 m 1
 214 36 l 1
 321 36 l 1
 321 0 l 1
 214 0 l 1
214 -36 m 1
 214 0 l 1
 321 0 l 1
 321 -36 l 1
 214 -36 l 1
214 -71 m 1
 214 -36 l 1
 321 -36 l 1
 321 -71 l 1
 214 -71 l 1
214 -107 m 1
 214 -71 l 1
 464 -71 l 1
 464 -107 l 1
 214 -107 l 1
286 -143 m 1
 286 -107 l 1
 464 -107 l 1
 464 -143 l 1
 286 -143 l 1
EndSplineSet
EndChar

StartChar: bar
Encoding: 124 124 93
Width: 500
Flags: HW
LayerCount: 2
Back
Fore
SplineSet
214 607 m 1
 214 643 l 1
 286 643 l 1
 286 607 l 1
 214 607 l 1
214 571 m 1
 214 607 l 1
 286 607 l 1
 286 571 l 1
 214 571 l 1
214 536 m 1
 214 571 l 1
 286 571 l 1
 286 536 l 1
 214 536 l 1
214 500 m 1
 214 536 l 1
 286 536 l 1
 286 500 l 1
 214 500 l 1
214 464 m 1
 214 500 l 1
 286 500 l 1
 286 464 l 1
 214 464 l 1
214 429 m 1
 214 464 l 1
 286 464 l 1
 286 429 l 1
 214 429 l 1
214 393 m 1
 214 429 l 1
 286 429 l 1
 286 393 l 1
 214 393 l 1
214 357 m 1
 214 393 l 1
 286 393 l 1
 286 357 l 1
 214 357 l 1
214 321 m 1
 214 357 l 1
 286 357 l 1
 286 321 l 1
 214 321 l 1
214 286 m 1
 214 321 l 1
 286 321 l 1
 286 286 l 1
 214 286 l 1
214 250 m 1
 214 286 l 1
 286 286 l 1
 286 250 l 1
 214 250 l 1
214 214 m 1
 214 250 l 1
 286 250 l 1
 286 214 l 1
 214 214 l 1
214 179 m 1
 214 214 l 1
 286 214 l 1
 286 179 l 1
 214 179 l 1
214 143 m 1
 214 179 l 1
 286 179 l 1
 286 143 l 1
 214 143 l 1
214 107 m 1
 214 143 l 1
 286 143 l 1
 286 107 l 1
 214 107 l 1
214 71 m 1
 214 107 l 1
 286 107 l 1
 286 71 l 1
 214 71 l 1
214 36 m 1
 214 71 l 1
 286 71 l 1
 286 36 l 1
 214 36 l 1
214 0 m 1
 214 36 l 1
 286 36 l 1
 286 0 l 1
 214 0 l 1
214 -36 m 1
 214 0 l 1
 286 0 l 1
 286 -36 l 1
 214 -36 l 1
214 -71 m 1
 214 -36 l 1
 286 -36 l 1
 286 -71 l 1
 214 -71 l 1
214 -107 m 1
 214 -71 l 1
 286 -71 l 1
 286 -107 l 1
 214 -107 l 1
214 -143 m 1
 214 -107 l 1
 286 -107 l 1
 286 -143 l 1
 214 -143 l 1
EndSplineSet
EndChar

StartChar: braceright
Encoding: 125 125 94
Width: 500
Flags: HW
LayerCount: 2
Back
Fore
SplineSet
71 607 m 1
 71 643 l 1
 250 643 l 1
 250 607 l 1
 71 607 l 1
71 571 m 1
 71 607 l 1
 321 607 l 1
 321 571 l 1
 71 571 l 1
214 536 m 1
 214 571 l 1
 321 571 l 1
 321 536 l 1
 214 536 l 1
214 500 m 1
 214 536 l 1
 321 536 l 1
 321 500 l 1
 214 500 l 1
214 464 m 1
 214 500 l 1
 321 500 l 1
 321 464 l 1
 214 464 l 1
179 429 m 1
 179 464 l 1
 321 464 l 1
 321 429 l 1
 179 429 l 1
179 393 m 1
 179 429 l 1
 286 429 l 1
 286 393 l 1
 179 393 l 1
179 357 m 1
 179 393 l 1
 286 393 l 1
 286 357 l 1
 179 357 l 1
179 321 m 1
 179 357 l 1
 286 357 l 1
 286 321 l 1
 179 321 l 1
214 286 m 1
 214 321 l 1
 286 321 l 1
 286 286 l 1
 214 286 l 1
250 250 m 1
 250 286 l 1
 429 286 l 1
 429 250 l 1
 250 250 l 1
250 214 m 1
 250 250 l 1
 429 250 l 1
 429 214 l 1
 250 214 l 1
214 179 m 1
 214 214 l 1
 286 214 l 1
 286 179 l 1
 214 179 l 1
179 143 m 1
 179 179 l 1
 286 179 l 1
 286 143 l 1
 179 143 l 1
179 107 m 1
 179 143 l 1
 286 143 l 1
 286 107 l 1
 179 107 l 1
179 71 m 1
 179 107 l 1
 286 107 l 1
 286 71 l 1
 179 71 l 1
179 36 m 1
 179 71 l 1
 286 71 l 1
 286 36 l 1
 179 36 l 1
214 0 m 1
 214 36 l 1
 321 36 l 1
 321 0 l 1
 214 0 l 1
214 -36 m 1
 214 0 l 1
 321 0 l 1
 321 -36 l 1
 214 -36 l 1
214 -71 m 1
 214 -36 l 1
 321 -36 l 1
 321 -71 l 1
 214 -71 l 1
71 -107 m 1
 71 -71 l 1
 321 -71 l 1
 321 -107 l 1
 71 -107 l 1
71 -143 m 1
 71 -107 l 1
 250 -107 l 1
 250 -143 l 1
 71 -143 l 1
EndSplineSet
EndChar

StartChar: asciitilde
Encoding: 126 126 95
Width: 500
Flags: HW
LayerCount: 2
Back
Fore
SplineSet
107 286 m 1
 107 321 l 1
 214 321 l 1
 214 286 l 1
 107 286 l 1
393 286 m 1
 393 321 l 1
 464 321 l 1
 464 286 l 1
 393 286 l 1
71 250 m 1
 71 286 l 1
 250 286 l 1
 250 250 l 1
 71 250 l 1
393 250 m 1
 393 286 l 1
 464 286 l 1
 464 250 l 1
 393 250 l 1
36 214 m 1
 36 250 l 1
 107 250 l 1
 107 214 l 1
 36 214 l 1
179 214 m 1
 179 250 l 1
 321 250 l 1
 321 214 l 1
 179 214 l 1
393 214 m 1
 393 250 l 1
 464 250 l 1
 464 214 l 1
 393 214 l 1
36 179 m 1
 36 214 l 1
 107 214 l 1
 107 179 l 1
 36 179 l 1
250 179 m 1
 250 214 l 1
 429 214 l 1
 429 179 l 1
 250 179 l 1
36 143 m 1
 36 179 l 1
 107 179 l 1
 107 143 l 1
 36 143 l 1
286 143 m 1
 286 179 l 1
 393 179 l 1
 393 143 l 1
 286 143 l 1
EndSplineSet
EndChar

StartChar: exclamdown
Encoding: 161 161 97
Width: 500
Flags: HW
LayerCount: 2
Back
Fore
SplineSet
214 429 m 1
 214 464 l 1
 321 464 l 1
 321 429 l 1
 214 429 l 1
214 393 m 1
 214 429 l 1
 321 429 l 1
 321 393 l 1
 214 393 l 1
214 357 m 1
 214 393 l 1
 321 393 l 1
 321 357 l 1
 214 357 l 1
250 250 m 1
 250 286 l 1
 321 286 l 1
 321 250 l 1
 250 250 l 1
250 214 m 1
 250 250 l 1
 321 250 l 1
 321 214 l 1
 250 214 l 1
250 179 m 1
 250 214 l 1
 321 214 l 1
 321 179 l 1
 250 179 l 1
250 143 m 1
 250 179 l 1
 321 179 l 1
 321 143 l 1
 250 143 l 1
250 107 m 1
 250 143 l 1
 321 143 l 1
 321 107 l 1
 250 107 l 1
214 71 m 1
 214 107 l 1
 321 107 l 1
 321 71 l 1
 214 71 l 1
214 36 m 1
 214 71 l 1
 321 71 l 1
 321 36 l 1
 214 36 l 1
214 0 m 1
 214 36 l 1
 321 36 l 1
 321 0 l 1
 214 0 l 1
214 -36 m 1
 214 0 l 1
 321 0 l 1
 321 -36 l 1
 214 -36 l 1
214 -71 m 1
 214 -36 l 1
 321 -36 l 1
 321 -71 l 1
 214 -71 l 1
214 -107 m 1
 214 -71 l 1
 321 -71 l 1
 321 -107 l 1
 214 -107 l 1
214 -143 m 1
 214 -107 l 1
 321 -107 l 1
 321 -143 l 1
 214 -143 l 1
214 -179 m 1
 214 -143 l 1
 321 -143 l 1
 321 -179 l 1
 214 -179 l 1
EndSplineSet
EndChar

StartChar: cent
Encoding: 162 162 98
Width: 500
Flags: HW
LayerCount: 2
Back
Fore
SplineSet
286 571 m 1
 286 607 l 1
 357 607 l 1
 357 571 l 1
 286 571 l 1
286 536 m 1
 286 571 l 1
 357 571 l 1
 357 536 l 1
 286 536 l 1
250 500 m 1
 250 536 l 1
 464 536 l 1
 464 500 l 1
 250 500 l 1
179 464 m 1
 179 500 l 1
 464 500 l 1
 464 464 l 1
 179 464 l 1
143 429 m 1
 143 464 l 1
 250 464 l 1
 250 429 l 1
 143 429 l 1
393 429 m 1
 393 464 l 1
 464 464 l 1
 464 429 l 1
 393 429 l 1
107 393 m 1
 107 429 l 1
 214 429 l 1
 214 393 l 1
 107 393 l 1
71 357 m 1
 71 393 l 1
 179 393 l 1
 179 357 l 1
 71 357 l 1
71 321 m 1
 71 357 l 1
 179 357 l 1
 179 321 l 1
 71 321 l 1
71 286 m 1
 71 321 l 1
 179 321 l 1
 179 286 l 1
 71 286 l 1
71 250 m 1
 71 286 l 1
 179 286 l 1
 179 250 l 1
 71 250 l 1
71 214 m 1
 71 250 l 1
 179 250 l 1
 179 214 l 1
 71 214 l 1
107 179 m 1
 107 214 l 1
 214 214 l 1
 214 179 l 1
 107 179 l 1
107 143 m 1
 107 179 l 1
 250 179 l 1
 250 143 l 1
 107 143 l 1
429 143 m 1
 429 179 l 1
 464 179 l 1
 464 143 l 1
 429 143 l 1
143 107 m 1
 143 143 l 1
 464 143 l 1
 464 107 l 1
 143 107 l 1
214 71 m 1
 214 107 l 1
 464 107 l 1
 464 71 l 1
 214 71 l 1
286 36 m 1
 286 71 l 1
 357 71 l 1
 357 36 l 1
 286 36 l 1
286 0 m 1
 286 36 l 1
 357 36 l 1
 357 0 l 1
 286 0 l 1
EndSplineSet
EndChar

StartChar: sterling
Encoding: 163 163 99
Width: 500
Flags: HW
LayerCount: 2
Back
Fore
SplineSet
250 571 m 1
 250 607 l 1
 429 607 l 1
 429 571 l 1
 250 571 l 1
214 536 m 1
 214 571 l 1
 429 571 l 1
 429 536 l 1
 214 536 l 1
179 500 m 1
 179 536 l 1
 286 536 l 1
 286 500 l 1
 179 500 l 1
179 464 m 1
 179 500 l 1
 286 500 l 1
 286 464 l 1
 179 464 l 1
179 429 m 1
 179 464 l 1
 286 464 l 1
 286 429 l 1
 179 429 l 1
179 393 m 1
 179 429 l 1
 286 429 l 1
 286 393 l 1
 179 393 l 1
179 357 m 1
 179 393 l 1
 286 393 l 1
 286 357 l 1
 179 357 l 1
107 321 m 1
 107 357 l 1
 357 357 l 1
 357 321 l 1
 107 321 l 1
107 286 m 1
 107 321 l 1
 357 321 l 1
 357 286 l 1
 107 286 l 1
179 250 m 1
 179 286 l 1
 286 286 l 1
 286 250 l 1
 179 250 l 1
179 214 m 1
 179 250 l 1
 286 250 l 1
 286 214 l 1
 179 214 l 1
179 179 m 1
 179 214 l 1
 286 214 l 1
 286 179 l 1
 179 179 l 1
179 143 m 1
 179 179 l 1
 286 179 l 1
 286 143 l 1
 179 143 l 1
179 107 m 1
 179 143 l 1
 250 143 l 1
 250 107 l 1
 179 107 l 1
143 71 m 1
 143 107 l 1
 250 107 l 1
 250 71 l 1
 143 71 l 1
107 36 m 1
 107 71 l 1
 429 71 l 1
 429 36 l 1
 107 36 l 1
107 0 m 1
 107 36 l 1
 429 36 l 1
 429 0 l 1
 107 0 l 1
EndSplineSet
EndChar

StartChar: currency
Encoding: 164 164 100
Width: 500
Flags: HW
LayerCount: 2
Back
Fore
SplineSet
71 500 m 1
 71 536 l 1
 143 536 l 1
 143 500 l 1
 71 500 l 1
393 500 m 1
 393 536 l 1
 464 536 l 1
 464 500 l 1
 393 500 l 1
36 464 m 1
 36 500 l 1
 500 500 l 1
 500 464 l 1
 36 464 l 1
36 429 m 1
 36 464 l 1
 464 464 l 1
 464 429 l 1
 36 429 l 1
71 393 m 1
 71 429 l 1
 214 429 l 1
 214 393 l 1
 71 393 l 1
321 393 m 1
 321 429 l 1
 429 429 l 1
 429 393 l 1
 321 393 l 1
71 357 m 1
 71 393 l 1
 179 393 l 1
 179 357 l 1
 71 357 l 1
357 357 m 1
 357 393 l 1
 464 393 l 1
 464 357 l 1
 357 357 l 1
71 321 m 1
 71 357 l 1
 143 357 l 1
 143 321 l 1
 71 321 l 1
393 321 m 1
 393 357 l 1
 464 357 l 1
 464 321 l 1
 393 321 l 1
71 286 m 1
 71 321 l 1
 143 321 l 1
 143 286 l 1
 71 286 l 1
393 286 m 1
 393 321 l 1
 464 321 l 1
 464 286 l 1
 393 286 l 1
71 250 m 1
 71 286 l 1
 143 286 l 1
 143 250 l 1
 71 250 l 1
393 250 m 1
 393 286 l 1
 464 286 l 1
 464 250 l 1
 393 250 l 1
71 214 m 1
 71 250 l 1
 179 250 l 1
 179 214 l 1
 71 214 l 1
357 214 m 1
 357 250 l 1
 464 250 l 1
 464 214 l 1
 357 214 l 1
71 179 m 1
 71 214 l 1
 214 214 l 1
 214 179 l 1
 71 179 l 1
321 179 m 1
 321 214 l 1
 429 214 l 1
 429 179 l 1
 321 179 l 1
36 143 m 1
 36 179 l 1
 464 179 l 1
 464 143 l 1
 36 143 l 1
36 107 m 1
 36 143 l 1
 500 143 l 1
 500 107 l 1
 36 107 l 1
71 71 m 1
 71 107 l 1
 143 107 l 1
 143 71 l 1
 71 71 l 1
429 71 m 1
 429 107 l 1
 464 107 l 1
 464 71 l 1
 429 71 l 1
EndSplineSet
EndChar

StartChar: yen
Encoding: 165 165 101
Width: 500
Flags: HW
LayerCount: 2
Back
Fore
SplineSet
0 571 m 1
 0 607 l 1
 143 607 l 1
 143 571 l 1
 0 571 l 1
393 571 m 1
 393 607 l 1
 500 607 l 1
 500 571 l 1
 393 571 l 1
36 536 m 1
 36 571 l 1
 179 571 l 1
 179 536 l 1
 36 536 l 1
357 536 m 1
 357 571 l 1
 464 571 l 1
 464 536 l 1
 357 536 l 1
71 500 m 1
 71 536 l 1
 179 536 l 1
 179 500 l 1
 71 500 l 1
357 500 m 1
 357 536 l 1
 429 536 l 1
 429 500 l 1
 357 500 l 1
71 464 m 1
 71 500 l 1
 214 500 l 1
 214 464 l 1
 71 464 l 1
321 464 m 1
 321 500 l 1
 393 500 l 1
 393 464 l 1
 321 464 l 1
107 429 m 1
 107 464 l 1
 250 464 l 1
 250 429 l 1
 107 429 l 1
286 429 m 1
 286 464 l 1
 393 464 l 1
 393 429 l 1
 286 429 l 1
143 393 m 1
 143 429 l 1
 357 429 l 1
 357 393 l 1
 143 393 l 1
143 357 m 1
 143 393 l 1
 321 393 l 1
 321 357 l 1
 143 357 l 1
179 321 m 1
 179 357 l 1
 286 357 l 1
 286 321 l 1
 179 321 l 1
71 286 m 1
 71 321 l 1
 393 321 l 1
 393 286 l 1
 71 286 l 1
71 250 m 1
 71 286 l 1
 393 286 l 1
 393 250 l 1
 71 250 l 1
179 214 m 1
 179 250 l 1
 286 250 l 1
 286 214 l 1
 179 214 l 1
71 179 m 1
 71 214 l 1
 393 214 l 1
 393 179 l 1
 71 179 l 1
71 143 m 1
 71 179 l 1
 393 179 l 1
 393 143 l 1
 71 143 l 1
179 107 m 1
 179 143 l 1
 286 143 l 1
 286 107 l 1
 179 107 l 1
179 71 m 1
 179 107 l 1
 286 107 l 1
 286 71 l 1
 179 71 l 1
179 36 m 1
 179 71 l 1
 286 71 l 1
 286 36 l 1
 179 36 l 1
179 0 m 1
 179 36 l 1
 286 36 l 1
 286 0 l 1
 179 0 l 1
EndSplineSet
EndChar

StartChar: brokenbar
Encoding: 166 166 102
Width: 500
Flags: HW
LayerCount: 2
Back
Fore
SplineSet
214 607 m 1
 214 643 l 1
 286 643 l 1
 286 607 l 1
 214 607 l 1
214 571 m 1
 214 607 l 1
 286 607 l 1
 286 571 l 1
 214 571 l 1
214 536 m 1
 214 571 l 1
 286 571 l 1
 286 536 l 1
 214 536 l 1
214 500 m 1
 214 536 l 1
 286 536 l 1
 286 500 l 1
 214 500 l 1
214 464 m 1
 214 500 l 1
 286 500 l 1
 286 464 l 1
 214 464 l 1
214 429 m 1
 214 464 l 1
 286 464 l 1
 286 429 l 1
 214 429 l 1
214 393 m 1
 214 429 l 1
 286 429 l 1
 286 393 l 1
 214 393 l 1
214 357 m 1
 214 393 l 1
 286 393 l 1
 286 357 l 1
 214 357 l 1
214 321 m 1
 214 357 l 1
 286 357 l 1
 286 321 l 1
 214 321 l 1
214 143 m 1
 214 179 l 1
 286 179 l 1
 286 143 l 1
 214 143 l 1
214 107 m 1
 214 143 l 1
 286 143 l 1
 286 107 l 1
 214 107 l 1
214 71 m 1
 214 107 l 1
 286 107 l 1
 286 71 l 1
 214 71 l 1
214 36 m 1
 214 71 l 1
 286 71 l 1
 286 36 l 1
 214 36 l 1
214 0 m 1
 214 36 l 1
 286 36 l 1
 286 0 l 1
 214 0 l 1
214 -36 m 1
 214 0 l 1
 286 0 l 1
 286 -36 l 1
 214 -36 l 1
214 -71 m 1
 214 -36 l 1
 286 -36 l 1
 286 -71 l 1
 214 -71 l 1
214 -107 m 1
 214 -71 l 1
 286 -71 l 1
 286 -107 l 1
 214 -107 l 1
214 -143 m 1
 214 -107 l 1
 286 -107 l 1
 286 -143 l 1
 214 -143 l 1
EndSplineSet
EndChar

StartChar: section
Encoding: 167 167 103
Width: 500
Flags: HW
LayerCount: 2
Back
Fore
SplineSet
179 571 m 1
 179 607 l 1
 393 607 l 1
 393 571 l 1
 179 571 l 1
107 536 m 1
 107 571 l 1
 393 571 l 1
 393 536 l 1
 107 536 l 1
71 500 m 1
 71 536 l 1
 179 536 l 1
 179 500 l 1
 71 500 l 1
357 500 m 1
 357 536 l 1
 393 536 l 1
 393 500 l 1
 357 500 l 1
71 464 m 1
 71 500 l 1
 179 500 l 1
 179 464 l 1
 71 464 l 1
71 429 m 1
 71 464 l 1
 179 464 l 1
 179 429 l 1
 71 429 l 1
71 393 m 1
 71 429 l 1
 214 429 l 1
 214 393 l 1
 71 393 l 1
107 357 m 1
 107 393 l 1
 286 393 l 1
 286 357 l 1
 107 357 l 1
143 321 m 1
 143 357 l 1
 357 357 l 1
 357 321 l 1
 143 321 l 1
107 286 m 1
 107 321 l 1
 179 321 l 1
 179 286 l 1
 107 286 l 1
250 286 m 1
 250 321 l 1
 393 321 l 1
 393 286 l 1
 250 286 l 1
71 250 m 1
 71 286 l 1
 143 286 l 1
 143 250 l 1
 71 250 l 1
321 250 m 1
 321 286 l 1
 429 286 l 1
 429 250 l 1
 321 250 l 1
71 214 m 1
 71 250 l 1
 143 250 l 1
 143 214 l 1
 71 214 l 1
357 214 m 1
 357 250 l 1
 429 250 l 1
 429 214 l 1
 357 214 l 1
71 179 m 1
 71 214 l 1
 143 214 l 1
 143 179 l 1
 71 179 l 1
357 179 m 1
 357 214 l 1
 429 214 l 1
 429 179 l 1
 357 179 l 1
71 143 m 1
 71 179 l 1
 214 179 l 1
 214 143 l 1
 71 143 l 1
357 143 m 1
 357 179 l 1
 429 179 l 1
 429 143 l 1
 357 143 l 1
107 107 m 1
 107 143 l 1
 286 143 l 1
 286 107 l 1
 107 107 l 1
321 107 m 1
 321 143 l 1
 393 143 l 1
 393 107 l 1
 321 107 l 1
143 71 m 1
 143 107 l 1
 357 107 l 1
 357 71 l 1
 143 71 l 1
179 36 m 1
 179 71 l 1
 393 71 l 1
 393 36 l 1
 179 36 l 1
250 0 m 1
 250 36 l 1
 429 36 l 1
 429 0 l 1
 250 0 l 1
321 -36 m 1
 321 0 l 1
 429 0 l 1
 429 -36 l 1
 321 -36 l 1
321 -71 m 1
 321 -36 l 1
 429 -36 l 1
 429 -71 l 1
 321 -71 l 1
71 -107 m 1
 71 -71 l 1
 143 -71 l 1
 143 -107 l 1
 71 -107 l 1
286 -107 m 1
 286 -71 l 1
 429 -71 l 1
 429 -107 l 1
 286 -107 l 1
71 -143 m 1
 71 -107 l 1
 393 -107 l 1
 393 -143 l 1
 71 -143 l 1
71 -179 m 1
 71 -143 l 1
 321 -143 l 1
 321 -179 l 1
 71 -179 l 1
EndSplineSet
EndChar

StartChar: dieresis
Encoding: 168 168 104
Width: 500
Flags: HW
LayerCount: 2
Back
Fore
SplineSet
143 571 m 1
 143 607 l 1
 250 607 l 1
 250 571 l 1
 143 571 l 1
286 571 m 1
 286 607 l 1
 393 607 l 1
 393 571 l 1
 286 571 l 1
143 536 m 1
 143 571 l 1
 250 571 l 1
 250 536 l 1
 143 536 l 1
286 536 m 1
 286 571 l 1
 393 571 l 1
 393 536 l 1
 286 536 l 1
EndSplineSet
EndChar

StartChar: copyright
Encoding: 169 169 105
Width: 500
Flags: HW
LayerCount: 2
Back
Fore
SplineSet
179 571 m 1
 179 607 l 1
 357 607 l 1
 357 571 l 1
 179 571 l 1
107 536 m 1
 107 571 l 1
 429 571 l 1
 429 536 l 1
 107 536 l 1
71 500 m 1
 71 536 l 1
 179 536 l 1
 179 500 l 1
 71 500 l 1
357 500 m 1
 357 536 l 1
 464 536 l 1
 464 500 l 1
 357 500 l 1
71 464 m 1
 71 500 l 1
 143 500 l 1
 143 464 l 1
 71 464 l 1
393 464 m 1
 393 500 l 1
 464 500 l 1
 464 464 l 1
 393 464 l 1
36 429 m 1
 36 464 l 1
 107 464 l 1
 107 429 l 1
 36 429 l 1
214 429 m 1
 214 464 l 1
 357 464 l 1
 357 429 l 1
 214 429 l 1
429 429 m 1
 429 464 l 1
 500 464 l 1
 500 429 l 1
 429 429 l 1
36 393 m 1
 36 429 l 1
 107 429 l 1
 107 393 l 1
 36 393 l 1
179 393 m 1
 179 429 l 1
 357 429 l 1
 357 393 l 1
 179 393 l 1
429 393 m 1
 429 429 l 1
 500 429 l 1
 500 393 l 1
 429 393 l 1
36 357 m 1
 36 393 l 1
 107 393 l 1
 107 357 l 1
 36 357 l 1
143 357 m 1
 143 393 l 1
 214 393 l 1
 214 357 l 1
 143 357 l 1
321 357 m 1
 321 393 l 1
 357 393 l 1
 357 357 l 1
 321 357 l 1
429 357 m 1
 429 393 l 1
 500 393 l 1
 500 357 l 1
 429 357 l 1
36 321 m 1
 36 357 l 1
 107 357 l 1
 107 321 l 1
 36 321 l 1
143 321 m 1
 143 357 l 1
 214 357 l 1
 214 321 l 1
 143 321 l 1
429 321 m 1
 429 357 l 1
 500 357 l 1
 500 321 l 1
 429 321 l 1
36 286 m 1
 36 321 l 1
 107 321 l 1
 107 286 l 1
 36 286 l 1
143 286 m 1
 143 321 l 1
 214 321 l 1
 214 286 l 1
 143 286 l 1
429 286 m 1
 429 321 l 1
 500 321 l 1
 500 286 l 1
 429 286 l 1
36 250 m 1
 36 286 l 1
 107 286 l 1
 107 250 l 1
 36 250 l 1
143 250 m 1
 143 286 l 1
 214 286 l 1
 214 250 l 1
 143 250 l 1
429 250 m 1
 429 286 l 1
 500 286 l 1
 500 250 l 1
 429 250 l 1
36 214 m 1
 36 250 l 1
 107 250 l 1
 107 214 l 1
 36 214 l 1
143 214 m 1
 143 250 l 1
 214 250 l 1
 214 214 l 1
 143 214 l 1
321 214 m 1
 321 250 l 1
 357 250 l 1
 357 214 l 1
 321 214 l 1
429 214 m 1
 429 250 l 1
 500 250 l 1
 500 214 l 1
 429 214 l 1
36 179 m 1
 36 214 l 1
 107 214 l 1
 107 179 l 1
 36 179 l 1
179 179 m 1
 179 214 l 1
 357 214 l 1
 357 179 l 1
 179 179 l 1
429 179 m 1
 429 214 l 1
 500 214 l 1
 500 179 l 1
 429 179 l 1
36 143 m 1
 36 179 l 1
 143 179 l 1
 143 143 l 1
 36 143 l 1
214 143 m 1
 214 179 l 1
 357 179 l 1
 357 143 l 1
 214 143 l 1
393 143 m 1
 393 179 l 1
 500 179 l 1
 500 143 l 1
 393 143 l 1
71 107 m 1
 71 143 l 1
 143 143 l 1
 143 107 l 1
 71 107 l 1
393 107 m 1
 393 143 l 1
 464 143 l 1
 464 107 l 1
 393 107 l 1
71 71 m 1
 71 107 l 1
 179 107 l 1
 179 71 l 1
 71 71 l 1
357 71 m 1
 357 107 l 1
 464 107 l 1
 464 71 l 1
 357 71 l 1
107 36 m 1
 107 71 l 1
 429 71 l 1
 429 36 l 1
 107 36 l 1
179 0 m 1
 179 36 l 1
 357 36 l 1
 357 0 l 1
 179 0 l 1
EndSplineSet
EndChar

StartChar: ordfeminine
Encoding: 170 170 106
Width: 500
Flags: HW
LayerCount: 2
Back
Fore
SplineSet
107 571 m 1
 107 607 l 1
 357 607 l 1
 357 571 l 1
 107 571 l 1
71 536 m 1
 71 571 l 1
 429 571 l 1
 429 536 l 1
 71 536 l 1
71 500 m 1
 71 536 l 1
 143 536 l 1
 143 500 l 1
 71 500 l 1
357 500 m 1
 357 536 l 1
 429 536 l 1
 429 500 l 1
 357 500 l 1
143 464 m 1
 143 500 l 1
 429 500 l 1
 429 464 l 1
 143 464 l 1
107 429 m 1
 107 464 l 1
 429 464 l 1
 429 429 l 1
 107 429 l 1
71 393 m 1
 71 429 l 1
 143 429 l 1
 143 393 l 1
 71 393 l 1
357 393 m 1
 357 429 l 1
 429 429 l 1
 429 393 l 1
 357 393 l 1
71 357 m 1
 71 393 l 1
 143 393 l 1
 143 357 l 1
 71 357 l 1
321 357 m 1
 321 393 l 1
 429 393 l 1
 429 357 l 1
 321 357 l 1
71 321 m 1
 71 357 l 1
 464 357 l 1
 464 321 l 1
 71 321 l 1
107 286 m 1
 107 321 l 1
 286 321 l 1
 286 286 l 1
 107 286 l 1
357 286 m 1
 357 321 l 1
 464 321 l 1
 464 286 l 1
 357 286 l 1
EndSplineSet
EndChar

StartChar: guillemotleft
Encoding: 171 171 107
Width: 500
Flags: HW
LayerCount: 2
Back
Fore
SplineSet
214 393 m 1
 214 429 l 1
 250 429 l 1
 250 393 l 1
 214 393 l 1
429 393 m 1
 429 429 l 1
 464 429 l 1
 464 393 l 1
 429 393 l 1
179 357 m 1
 179 393 l 1
 286 393 l 1
 286 357 l 1
 179 357 l 1
393 357 m 1
 393 393 l 1
 500 393 l 1
 500 357 l 1
 393 357 l 1
143 321 m 1
 143 357 l 1
 250 357 l 1
 250 321 l 1
 143 321 l 1
357 321 m 1
 357 357 l 1
 464 357 l 1
 464 321 l 1
 357 321 l 1
143 286 m 1
 143 321 l 1
 214 321 l 1
 214 286 l 1
 143 286 l 1
321 286 m 1
 321 321 l 1
 429 321 l 1
 429 286 l 1
 321 286 l 1
107 250 m 1
 107 286 l 1
 214 286 l 1
 214 250 l 1
 107 250 l 1
321 250 m 1
 321 286 l 1
 393 286 l 1
 393 250 l 1
 321 250 l 1
36 214 m 1
 36 250 l 1
 179 250 l 1
 179 214 l 1
 36 214 l 1
250 214 m 1
 250 250 l 1
 393 250 l 1
 393 214 l 1
 250 214 l 1
71 179 m 1
 71 214 l 1
 214 214 l 1
 214 179 l 1
 71 179 l 1
286 179 m 1
 286 214 l 1
 429 214 l 1
 429 179 l 1
 286 179 l 1
107 143 m 1
 107 179 l 1
 250 179 l 1
 250 143 l 1
 107 143 l 1
321 143 m 1
 321 179 l 1
 464 179 l 1
 464 143 l 1
 321 143 l 1
143 107 m 1
 143 143 l 1
 250 143 l 1
 250 107 l 1
 143 107 l 1
357 107 m 1
 357 143 l 1
 464 143 l 1
 464 107 l 1
 357 107 l 1
179 71 m 1
 179 107 l 1
 286 107 l 1
 286 71 l 1
 179 71 l 1
393 71 m 1
 393 107 l 1
 500 107 l 1
 500 71 l 1
 393 71 l 1
214 36 m 1
 214 71 l 1
 250 71 l 1
 250 36 l 1
 214 36 l 1
429 36 m 1
 429 71 l 1
 464 71 l 1
 464 36 l 1
 429 36 l 1
EndSplineSet
EndChar

StartChar: logicalnot
Encoding: 172 172 108
Width: 500
Flags: HW
LayerCount: 2
Back
Fore
SplineSet
36 250 m 1
 36 286 l 1
 464 286 l 1
 464 250 l 1
 36 250 l 1
36 214 m 1
 36 250 l 1
 464 250 l 1
 464 214 l 1
 36 214 l 1
393 179 m 1
 393 214 l 1
 464 214 l 1
 464 179 l 1
 393 179 l 1
393 143 m 1
 393 179 l 1
 464 179 l 1
 464 143 l 1
 393 143 l 1
393 107 m 1
 393 143 l 1
 464 143 l 1
 464 107 l 1
 393 107 l 1
393 71 m 1
 393 107 l 1
 464 107 l 1
 464 71 l 1
 393 71 l 1
EndSplineSet
EndChar

StartChar: hyphen
Encoding: 45 45 109
Width: 500
Flags: HW
LayerCount: 2
Back
Fore
SplineSet
36 179 m 1
 36 214 l 1
 464 214 l 1
 464 179 l 1
 36 179 l 1
36 143 m 1
 36 179 l 1
 464 179 l 1
 464 143 l 1
 36 143 l 1
EndSplineSet
EndChar

StartChar: registered
Encoding: 174 174 110
Width: 500
Flags: HW
LayerCount: 2
Back
Fore
SplineSet
179 571 m 1
 179 607 l 1
 357 607 l 1
 357 571 l 1
 179 571 l 1
107 536 m 1
 107 571 l 1
 429 571 l 1
 429 536 l 1
 107 536 l 1
71 500 m 1
 71 536 l 1
 179 536 l 1
 179 500 l 1
 71 500 l 1
357 500 m 1
 357 536 l 1
 464 536 l 1
 464 500 l 1
 357 500 l 1
71 464 m 1
 71 500 l 1
 143 500 l 1
 143 464 l 1
 71 464 l 1
179 464 m 1
 179 500 l 1
 357 500 l 1
 357 464 l 1
 179 464 l 1
393 464 m 1
 393 500 l 1
 464 500 l 1
 464 464 l 1
 393 464 l 1
36 429 m 1
 36 464 l 1
 107 464 l 1
 107 429 l 1
 36 429 l 1
179 429 m 1
 179 464 l 1
 250 464 l 1
 250 429 l 1
 179 429 l 1
286 429 m 1
 286 464 l 1
 357 464 l 1
 357 429 l 1
 286 429 l 1
429 429 m 1
 429 464 l 1
 500 464 l 1
 500 429 l 1
 429 429 l 1
36 393 m 1
 36 429 l 1
 107 429 l 1
 107 393 l 1
 36 393 l 1
179 393 m 1
 179 429 l 1
 250 429 l 1
 250 393 l 1
 179 393 l 1
286 393 m 1
 286 429 l 1
 357 429 l 1
 357 393 l 1
 286 393 l 1
429 393 m 1
 429 429 l 1
 500 429 l 1
 500 393 l 1
 429 393 l 1
36 357 m 1
 36 393 l 1
 107 393 l 1
 107 357 l 1
 36 357 l 1
179 357 m 1
 179 393 l 1
 321 393 l 1
 321 357 l 1
 179 357 l 1
429 357 m 1
 429 393 l 1
 500 393 l 1
 500 357 l 1
 429 357 l 1
36 321 m 1
 36 357 l 1
 107 357 l 1
 107 321 l 1
 36 321 l 1
179 321 m 1
 179 357 l 1
 250 357 l 1
 250 321 l 1
 179 321 l 1
286 321 m 1
 286 357 l 1
 357 357 l 1
 357 321 l 1
 286 321 l 1
429 321 m 1
 429 357 l 1
 500 357 l 1
 500 321 l 1
 429 321 l 1
71 286 m 1
 71 321 l 1
 143 321 l 1
 143 286 l 1
 71 286 l 1
179 286 m 1
 179 321 l 1
 250 321 l 1
 250 286 l 1
 179 286 l 1
286 286 m 1
 286 321 l 1
 357 321 l 1
 357 286 l 1
 286 286 l 1
393 286 m 1
 393 321 l 1
 464 321 l 1
 464 286 l 1
 393 286 l 1
71 250 m 1
 71 286 l 1
 179 286 l 1
 179 250 l 1
 71 250 l 1
357 250 m 1
 357 286 l 1
 464 286 l 1
 464 250 l 1
 357 250 l 1
107 214 m 1
 107 250 l 1
 429 250 l 1
 429 214 l 1
 107 214 l 1
179 179 m 1
 179 214 l 1
 357 214 l 1
 357 179 l 1
 179 179 l 1
EndSplineSet
EndChar

StartChar: degree
Encoding: 176 176 112
Width: 500
Flags: HW
LayerCount: 2
Back
Fore
SplineSet
214 571 m 1
 214 607 l 1
 286 607 l 1
 286 571 l 1
 214 571 l 1
179 536 m 1
 179 571 l 1
 214 571 l 1
 214 536 l 1
 179 536 l 1
286 536 m 1
 286 571 l 1
 321 571 l 1
 321 536 l 1
 286 536 l 1
179 500 m 1
 179 536 l 1
 214 536 l 1
 214 500 l 1
 179 500 l 1
286 500 m 1
 286 536 l 1
 321 536 l 1
 321 500 l 1
 286 500 l 1
214 464 m 1
 214 500 l 1
 286 500 l 1
 286 464 l 1
 214 464 l 1
EndSplineSet
EndChar

StartChar: plusminus
Encoding: 177 177 113
Width: 500
Flags: HW
LayerCount: 2
Back
Fore
SplineSet
214 429 m 1
 214 464 l 1
 286 464 l 1
 286 429 l 1
 214 429 l 1
214 393 m 1
 214 429 l 1
 286 429 l 1
 286 393 l 1
 214 393 l 1
214 357 m 1
 214 393 l 1
 286 393 l 1
 286 357 l 1
 214 357 l 1
36 321 m 1
 36 357 l 1
 464 357 l 1
 464 321 l 1
 36 321 l 1
36 286 m 1
 36 321 l 1
 464 321 l 1
 464 286 l 1
 36 286 l 1
214 250 m 1
 214 286 l 1
 286 286 l 1
 286 250 l 1
 214 250 l 1
214 214 m 1
 214 250 l 1
 286 250 l 1
 286 214 l 1
 214 214 l 1
214 179 m 1
 214 214 l 1
 286 214 l 1
 286 179 l 1
 214 179 l 1
214 143 m 1
 214 179 l 1
 286 179 l 1
 286 143 l 1
 214 143 l 1
36 36 m 1
 36 71 l 1
 464 71 l 1
 464 36 l 1
 36 36 l 1
36 0 m 1
 36 36 l 1
 464 36 l 1
 464 0 l 1
 36 0 l 1
EndSplineSet
EndChar

StartChar: twosuperior
Encoding: 178 178 114
Width: 500
Flags: HW
LayerCount: 2
Back
Fore
SplineSet
-107 571 m 1
 -107 607 l 1
 36 607 l 1
 36 571 l 1
 -107 571 l 1
-107 536 m 1
 -107 571 l 1
 71 571 l 1
 71 536 l 1
 -107 536 l 1
0 500 m 1
 0 536 l 1
 71 536 l 1
 71 500 l 1
 0 500 l 1
0 464 m 1
 0 500 l 1
 71 500 l 1
 71 464 l 1
 0 464 l 1
-36 429 m 1
 -36 464 l 1
 71 464 l 1
 71 429 l 1
 -36 429 l 1
-71 393 m 1
 -71 429 l 1
 36 429 l 1
 36 393 l 1
 -71 393 l 1
-107 357 m 1
 -107 393 l 1
 0 393 l 1
 0 357 l 1
 -107 357 l 1
-107 321 m 1
 -107 357 l 1
 71 357 l 1
 71 321 l 1
 -107 321 l 1
-107 286 m 1
 -107 321 l 1
 71 321 l 1
 71 286 l 1
 -107 286 l 1
EndSplineSet
EndChar

StartChar: threesuperior
Encoding: 179 179 115
Width: 500
Flags: HW
LayerCount: 2
Back
Fore
SplineSet
-107 571 m 1
 -107 607 l 1
 36 607 l 1
 36 571 l 1
 -107 571 l 1
-107 536 m 1
 -107 571 l 1
 71 571 l 1
 71 536 l 1
 -107 536 l 1
0 500 m 1
 0 536 l 1
 71 536 l 1
 71 500 l 1
 0 500 l 1
-71 464 m 1
 -71 500 l 1
 36 500 l 1
 36 464 l 1
 -71 464 l 1
-71 429 m 1
 -71 464 l 1
 36 464 l 1
 36 429 l 1
 -71 429 l 1
0 393 m 1
 0 429 l 1
 71 429 l 1
 71 393 l 1
 0 393 l 1
0 357 m 1
 0 393 l 1
 71 393 l 1
 71 357 l 1
 0 357 l 1
-107 321 m 1
 -107 357 l 1
 71 357 l 1
 71 321 l 1
 -107 321 l 1
-107 286 m 1
 -107 321 l 1
 36 321 l 1
 36 286 l 1
 -107 286 l 1
EndSplineSet
EndChar

StartChar: acute
Encoding: 180 180 116
Width: 500
Flags: HW
LayerCount: 2
Back
Fore
SplineSet
214 607 m 1
 214 643 l 1
 357 643 l 1
 357 607 l 1
 214 607 l 1
179 571 m 1
 179 607 l 1
 286 607 l 1
 286 571 l 1
 179 571 l 1
143 536 m 1
 143 571 l 1
 250 571 l 1
 250 536 l 1
 143 536 l 1
EndSplineSet
EndChar

StartChar: paragraph
Encoding: 182 182 118
Width: 500
Flags: HW
LayerCount: 2
Back
Fore
SplineSet
107 571 m 1
 107 607 l 1
 393 607 l 1
 393 571 l 1
 107 571 l 1
71 536 m 1
 71 571 l 1
 393 571 l 1
 393 536 l 1
 71 536 l 1
71 500 m 1
 71 536 l 1
 286 536 l 1
 286 500 l 1
 71 500 l 1
321 500 m 1
 321 536 l 1
 393 536 l 1
 393 500 l 1
 321 500 l 1
71 464 m 1
 71 500 l 1
 286 500 l 1
 286 464 l 1
 71 464 l 1
321 464 m 1
 321 500 l 1
 393 500 l 1
 393 464 l 1
 321 464 l 1
71 429 m 1
 71 464 l 1
 286 464 l 1
 286 429 l 1
 71 429 l 1
321 429 m 1
 321 464 l 1
 393 464 l 1
 393 429 l 1
 321 429 l 1
71 393 m 1
 71 429 l 1
 286 429 l 1
 286 393 l 1
 71 393 l 1
321 393 m 1
 321 429 l 1
 393 429 l 1
 393 393 l 1
 321 393 l 1
107 357 m 1
 107 393 l 1
 286 393 l 1
 286 357 l 1
 107 357 l 1
321 357 m 1
 321 393 l 1
 393 393 l 1
 393 357 l 1
 321 357 l 1
107 321 m 1
 107 357 l 1
 286 357 l 1
 286 321 l 1
 107 321 l 1
321 321 m 1
 321 357 l 1
 393 357 l 1
 393 321 l 1
 321 321 l 1
179 286 m 1
 179 321 l 1
 286 321 l 1
 286 286 l 1
 179 286 l 1
321 286 m 1
 321 321 l 1
 393 321 l 1
 393 286 l 1
 321 286 l 1
214 250 m 1
 214 286 l 1
 286 286 l 1
 286 250 l 1
 214 250 l 1
321 250 m 1
 321 286 l 1
 393 286 l 1
 393 250 l 1
 321 250 l 1
214 214 m 1
 214 250 l 1
 286 250 l 1
 286 214 l 1
 214 214 l 1
321 214 m 1
 321 250 l 1
 393 250 l 1
 393 214 l 1
 321 214 l 1
214 179 m 1
 214 214 l 1
 286 214 l 1
 286 179 l 1
 214 179 l 1
321 179 m 1
 321 214 l 1
 393 214 l 1
 393 179 l 1
 321 179 l 1
214 143 m 1
 214 179 l 1
 286 179 l 1
 286 143 l 1
 214 143 l 1
321 143 m 1
 321 179 l 1
 393 179 l 1
 393 143 l 1
 321 143 l 1
214 107 m 1
 214 143 l 1
 286 143 l 1
 286 107 l 1
 214 107 l 1
321 107 m 1
 321 143 l 1
 393 143 l 1
 393 107 l 1
 321 107 l 1
214 71 m 1
 214 107 l 1
 286 107 l 1
 286 71 l 1
 214 71 l 1
321 71 m 1
 321 107 l 1
 393 107 l 1
 393 71 l 1
 321 71 l 1
214 36 m 1
 214 71 l 1
 286 71 l 1
 286 36 l 1
 214 36 l 1
321 36 m 1
 321 71 l 1
 393 71 l 1
 393 36 l 1
 321 36 l 1
214 0 m 1
 214 36 l 1
 286 36 l 1
 286 0 l 1
 214 0 l 1
321 0 m 1
 321 36 l 1
 393 36 l 1
 393 0 l 1
 321 0 l 1
214 -36 m 1
 214 0 l 1
 286 0 l 1
 286 -36 l 1
 214 -36 l 1
321 -36 m 1
 321 0 l 1
 393 0 l 1
 393 -36 l 1
 321 -36 l 1
214 -71 m 1
 214 -36 l 1
 286 -36 l 1
 286 -71 l 1
 214 -71 l 1
321 -71 m 1
 321 -36 l 1
 393 -36 l 1
 393 -71 l 1
 321 -71 l 1
214 -107 m 1
 214 -71 l 1
 286 -71 l 1
 286 -107 l 1
 214 -107 l 1
321 -107 m 1
 321 -71 l 1
 393 -71 l 1
 393 -107 l 1
 321 -107 l 1
214 -143 m 1
 214 -107 l 1
 286 -107 l 1
 286 -143 l 1
 214 -143 l 1
321 -143 m 1
 321 -107 l 1
 393 -107 l 1
 393 -143 l 1
 321 -143 l 1
EndSplineSet
EndChar

StartChar: cedilla
Encoding: 184 184 120
Width: 500
Flags: HW
LayerCount: 2
Back
Fore
SplineSet
214 0 m 1
 214 36 l 1
 286 36 l 1
 286 0 l 1
 214 0 l 1
214 -36 m 1
 214 0 l 1
 286 0 l 1
 286 -36 l 1
 214 -36 l 1
179 -71 m 1
 179 -36 l 1
 321 -36 l 1
 321 -71 l 1
 179 -71 l 1
250 -107 m 1
 250 -71 l 1
 357 -71 l 1
 357 -107 l 1
 250 -107 l 1
286 -143 m 1
 286 -107 l 1
 357 -107 l 1
 357 -143 l 1
 286 -143 l 1
179 -179 m 1
 179 -143 l 1
 321 -143 l 1
 321 -179 l 1
 179 -179 l 1
EndSplineSet
EndChar

StartChar: onesuperior
Encoding: 185 185 121
Width: 500
Flags: HW
LayerCount: 2
Back
Fore
SplineSet
-71 571 m 1
 -71 607 l 1
 71 607 l 1
 71 571 l 1
 -71 571 l 1
-71 536 m 1
 -71 571 l 1
 71 571 l 1
 71 536 l 1
 -71 536 l 1
0 500 m 1
 0 536 l 1
 71 536 l 1
 71 500 l 1
 0 500 l 1
0 464 m 1
 0 500 l 1
 71 500 l 1
 71 464 l 1
 0 464 l 1
0 429 m 1
 0 464 l 1
 71 464 l 1
 71 429 l 1
 0 429 l 1
0 393 m 1
 0 429 l 1
 71 429 l 1
 71 393 l 1
 0 393 l 1
0 357 m 1
 0 393 l 1
 71 393 l 1
 71 357 l 1
 0 357 l 1
-71 321 m 1
 -71 357 l 1
 143 357 l 1
 143 321 l 1
 -71 321 l 1
-71 286 m 1
 -71 321 l 1
 143 321 l 1
 143 286 l 1
 -71 286 l 1
EndSplineSet
EndChar

StartChar: ordmasculine
Encoding: 186 186 122
Width: 500
Flags: HW
LayerCount: 2
Back
Fore
SplineSet
179 571 m 1
 179 607 l 1
 357 607 l 1
 357 571 l 1
 179 571 l 1
107 536 m 1
 107 571 l 1
 429 571 l 1
 429 536 l 1
 107 536 l 1
71 500 m 1
 71 536 l 1
 179 536 l 1
 179 500 l 1
 71 500 l 1
357 500 m 1
 357 536 l 1
 464 536 l 1
 464 500 l 1
 357 500 l 1
71 464 m 1
 71 500 l 1
 143 500 l 1
 143 464 l 1
 71 464 l 1
393 464 m 1
 393 500 l 1
 464 500 l 1
 464 464 l 1
 393 464 l 1
71 429 m 1
 71 464 l 1
 143 464 l 1
 143 429 l 1
 71 429 l 1
393 429 m 1
 393 464 l 1
 464 464 l 1
 464 429 l 1
 393 429 l 1
71 393 m 1
 71 429 l 1
 143 429 l 1
 143 393 l 1
 71 393 l 1
393 393 m 1
 393 429 l 1
 464 429 l 1
 464 393 l 1
 393 393 l 1
71 357 m 1
 71 393 l 1
 179 393 l 1
 179 357 l 1
 71 357 l 1
357 357 m 1
 357 393 l 1
 464 393 l 1
 464 357 l 1
 357 357 l 1
107 321 m 1
 107 357 l 1
 429 357 l 1
 429 321 l 1
 107 321 l 1
179 286 m 1
 179 321 l 1
 357 321 l 1
 357 286 l 1
 179 286 l 1
EndSplineSet
EndChar

StartChar: guillemotright
Encoding: 187 187 123
Width: 500
Flags: HW
LayerCount: 2
Back
Fore
SplineSet
71 393 m 1
 71 429 l 1
 107 429 l 1
 107 393 l 1
 71 393 l 1
286 393 m 1
 286 429 l 1
 321 429 l 1
 321 393 l 1
 286 393 l 1
36 357 m 1
 36 393 l 1
 143 393 l 1
 143 357 l 1
 36 357 l 1
250 357 m 1
 250 393 l 1
 357 393 l 1
 357 357 l 1
 250 357 l 1
71 321 m 1
 71 357 l 1
 179 357 l 1
 179 321 l 1
 71 321 l 1
286 321 m 1
 286 357 l 1
 393 357 l 1
 393 321 l 1
 286 321 l 1
71 286 m 1
 71 321 l 1
 214 321 l 1
 214 286 l 1
 71 286 l 1
286 286 m 1
 286 321 l 1
 429 321 l 1
 429 286 l 1
 286 286 l 1
107 250 m 1
 107 286 l 1
 250 286 l 1
 250 250 l 1
 107 250 l 1
321 250 m 1
 321 286 l 1
 464 286 l 1
 464 250 l 1
 321 250 l 1
143 214 m 1
 143 250 l 1
 286 250 l 1
 286 214 l 1
 143 214 l 1
357 214 m 1
 357 250 l 1
 500 250 l 1
 500 214 l 1
 357 214 l 1
143 179 m 1
 143 214 l 1
 214 214 l 1
 214 179 l 1
 143 179 l 1
321 179 m 1
 321 214 l 1
 429 214 l 1
 429 179 l 1
 321 179 l 1
107 143 m 1
 107 179 l 1
 214 179 l 1
 214 143 l 1
 107 143 l 1
321 143 m 1
 321 179 l 1
 393 179 l 1
 393 143 l 1
 321 143 l 1
71 107 m 1
 71 143 l 1
 179 143 l 1
 179 107 l 1
 71 107 l 1
286 107 m 1
 286 143 l 1
 393 143 l 1
 393 107 l 1
 286 107 l 1
36 71 m 1
 36 107 l 1
 143 107 l 1
 143 71 l 1
 36 71 l 1
250 71 m 1
 250 107 l 1
 357 107 l 1
 357 71 l 1
 250 71 l 1
71 36 m 1
 71 71 l 1
 107 71 l 1
 107 36 l 1
 71 36 l 1
286 36 m 1
 286 71 l 1
 321 71 l 1
 321 36 l 1
 286 36 l 1
EndSplineSet
EndChar

StartChar: onequarter
Encoding: 188 188 124
Width: 500
Flags: HW
LayerCount: 2
Back
Fore
SplineSet
36 571 m 1
 36 607 l 1
 179 607 l 1
 179 571 l 1
 36 571 l 1
429 571 m 1
 429 607 l 1
 536 607 l 1
 536 571 l 1
 429 571 l 1
36 536 m 1
 36 571 l 1
 179 571 l 1
 179 536 l 1
 36 536 l 1
429 536 m 1
 429 571 l 1
 500 571 l 1
 500 536 l 1
 429 536 l 1
107 500 m 1
 107 536 l 1
 179 536 l 1
 179 500 l 1
 107 500 l 1
393 500 m 1
 393 536 l 1
 464 536 l 1
 464 500 l 1
 393 500 l 1
107 464 m 1
 107 500 l 1
 179 500 l 1
 179 464 l 1
 107 464 l 1
357 464 m 1
 357 500 l 1
 464 500 l 1
 464 464 l 1
 357 464 l 1
107 429 m 1
 107 464 l 1
 179 464 l 1
 179 429 l 1
 107 429 l 1
357 429 m 1
 357 464 l 1
 429 464 l 1
 429 429 l 1
 357 429 l 1
107 393 m 1
 107 429 l 1
 179 429 l 1
 179 393 l 1
 107 393 l 1
321 393 m 1
 321 429 l 1
 393 429 l 1
 393 393 l 1
 321 393 l 1
107 357 m 1
 107 393 l 1
 179 393 l 1
 179 357 l 1
 107 357 l 1
286 357 m 1
 286 393 l 1
 393 393 l 1
 393 357 l 1
 286 357 l 1
36 321 m 1
 36 357 l 1
 357 357 l 1
 357 321 l 1
 36 321 l 1
36 286 m 1
 36 321 l 1
 321 321 l 1
 321 286 l 1
 36 286 l 1
393 286 m 1
 393 321 l 1
 500 321 l 1
 500 286 l 1
 393 286 l 1
214 250 m 1
 214 286 l 1
 321 286 l 1
 321 250 l 1
 214 250 l 1
393 250 m 1
 393 286 l 1
 500 286 l 1
 500 250 l 1
 393 250 l 1
179 214 m 1
 179 250 l 1
 286 250 l 1
 286 214 l 1
 179 214 l 1
357 214 m 1
 357 250 l 1
 500 250 l 1
 500 214 l 1
 357 214 l 1
179 179 m 1
 179 214 l 1
 250 214 l 1
 250 179 l 1
 179 179 l 1
357 179 m 1
 357 214 l 1
 500 214 l 1
 500 179 l 1
 357 179 l 1
143 143 m 1
 143 179 l 1
 214 179 l 1
 214 143 l 1
 143 143 l 1
321 143 m 1
 321 179 l 1
 393 179 l 1
 393 143 l 1
 321 143 l 1
429 143 m 1
 429 179 l 1
 500 179 l 1
 500 143 l 1
 429 143 l 1
107 107 m 1
 107 143 l 1
 214 143 l 1
 214 107 l 1
 107 107 l 1
321 107 m 1
 321 143 l 1
 536 143 l 1
 536 107 l 1
 321 107 l 1
107 71 m 1
 107 107 l 1
 179 107 l 1
 179 71 l 1
 107 71 l 1
321 71 m 1
 321 107 l 1
 536 107 l 1
 536 71 l 1
 321 71 l 1
71 36 m 1
 71 71 l 1
 143 71 l 1
 143 36 l 1
 71 36 l 1
429 36 m 1
 429 71 l 1
 500 71 l 1
 500 36 l 1
 429 36 l 1
36 0 m 1
 36 36 l 1
 143 36 l 1
 143 0 l 1
 36 0 l 1
429 0 m 1
 429 36 l 1
 500 36 l 1
 500 0 l 1
 429 0 l 1
EndSplineSet
EndChar

StartChar: onehalf
Encoding: 189 189 125
Width: 500
Flags: HW
LayerCount: 2
Back
Fore
SplineSet
36 571 m 1
 36 607 l 1
 179 607 l 1
 179 571 l 1
 36 571 l 1
429 571 m 1
 429 607 l 1
 536 607 l 1
 536 571 l 1
 429 571 l 1
36 536 m 1
 36 571 l 1
 179 571 l 1
 179 536 l 1
 36 536 l 1
429 536 m 1
 429 571 l 1
 500 571 l 1
 500 536 l 1
 429 536 l 1
107 500 m 1
 107 536 l 1
 179 536 l 1
 179 500 l 1
 107 500 l 1
393 500 m 1
 393 536 l 1
 464 536 l 1
 464 500 l 1
 393 500 l 1
107 464 m 1
 107 500 l 1
 179 500 l 1
 179 464 l 1
 107 464 l 1
357 464 m 1
 357 500 l 1
 464 500 l 1
 464 464 l 1
 357 464 l 1
107 429 m 1
 107 464 l 1
 179 464 l 1
 179 429 l 1
 107 429 l 1
357 429 m 1
 357 464 l 1
 429 464 l 1
 429 429 l 1
 357 429 l 1
107 393 m 1
 107 429 l 1
 179 429 l 1
 179 393 l 1
 107 393 l 1
321 393 m 1
 321 429 l 1
 393 429 l 1
 393 393 l 1
 321 393 l 1
107 357 m 1
 107 393 l 1
 179 393 l 1
 179 357 l 1
 107 357 l 1
286 357 m 1
 286 393 l 1
 393 393 l 1
 393 357 l 1
 286 357 l 1
36 321 m 1
 36 357 l 1
 357 357 l 1
 357 321 l 1
 36 321 l 1
36 286 m 1
 36 321 l 1
 321 321 l 1
 321 286 l 1
 36 286 l 1
357 286 m 1
 357 321 l 1
 500 321 l 1
 500 286 l 1
 357 286 l 1
214 250 m 1
 214 286 l 1
 321 286 l 1
 321 250 l 1
 214 250 l 1
357 250 m 1
 357 286 l 1
 536 286 l 1
 536 250 l 1
 357 250 l 1
179 214 m 1
 179 250 l 1
 286 250 l 1
 286 214 l 1
 179 214 l 1
464 214 m 1
 464 250 l 1
 536 250 l 1
 536 214 l 1
 464 214 l 1
179 179 m 1
 179 214 l 1
 250 214 l 1
 250 179 l 1
 179 179 l 1
464 179 m 1
 464 214 l 1
 536 214 l 1
 536 179 l 1
 464 179 l 1
143 143 m 1
 143 179 l 1
 214 179 l 1
 214 143 l 1
 143 143 l 1
429 143 m 1
 429 179 l 1
 536 179 l 1
 536 143 l 1
 429 143 l 1
107 107 m 1
 107 143 l 1
 214 143 l 1
 214 107 l 1
 107 107 l 1
393 107 m 1
 393 143 l 1
 500 143 l 1
 500 107 l 1
 393 107 l 1
107 71 m 1
 107 107 l 1
 179 107 l 1
 179 71 l 1
 107 71 l 1
357 71 m 1
 357 107 l 1
 464 107 l 1
 464 71 l 1
 357 71 l 1
71 36 m 1
 71 71 l 1
 143 71 l 1
 143 36 l 1
 71 36 l 1
357 36 m 1
 357 71 l 1
 536 71 l 1
 536 36 l 1
 357 36 l 1
36 0 m 1
 36 36 l 1
 143 36 l 1
 143 0 l 1
 36 0 l 1
357 0 m 1
 357 36 l 1
 536 36 l 1
 536 0 l 1
 357 0 l 1
EndSplineSet
EndChar

StartChar: threequarters
Encoding: 190 190 126
Width: 500
Flags: HW
LayerCount: 2
Back
Fore
SplineSet
36 571 m 1
 36 607 l 1
 179 607 l 1
 179 571 l 1
 36 571 l 1
429 571 m 1
 429 607 l 1
 536 607 l 1
 536 571 l 1
 429 571 l 1
36 536 m 1
 36 571 l 1
 214 571 l 1
 214 536 l 1
 36 536 l 1
429 536 m 1
 429 571 l 1
 500 571 l 1
 500 536 l 1
 429 536 l 1
143 500 m 1
 143 536 l 1
 214 536 l 1
 214 500 l 1
 143 500 l 1
393 500 m 1
 393 536 l 1
 464 536 l 1
 464 500 l 1
 393 500 l 1
71 464 m 1
 71 500 l 1
 179 500 l 1
 179 464 l 1
 71 464 l 1
357 464 m 1
 357 500 l 1
 464 500 l 1
 464 464 l 1
 357 464 l 1
71 429 m 1
 71 464 l 1
 179 464 l 1
 179 429 l 1
 71 429 l 1
357 429 m 1
 357 464 l 1
 429 464 l 1
 429 429 l 1
 357 429 l 1
143 393 m 1
 143 429 l 1
 214 429 l 1
 214 393 l 1
 143 393 l 1
321 393 m 1
 321 429 l 1
 393 429 l 1
 393 393 l 1
 321 393 l 1
143 357 m 1
 143 393 l 1
 214 393 l 1
 214 357 l 1
 143 357 l 1
286 357 m 1
 286 393 l 1
 393 393 l 1
 393 357 l 1
 286 357 l 1
36 321 m 1
 36 357 l 1
 214 357 l 1
 214 321 l 1
 36 321 l 1
250 321 m 1
 250 357 l 1
 357 357 l 1
 357 321 l 1
 250 321 l 1
36 286 m 1
 36 321 l 1
 179 321 l 1
 179 286 l 1
 36 286 l 1
250 286 m 1
 250 321 l 1
 321 321 l 1
 321 286 l 1
 250 286 l 1
393 286 m 1
 393 321 l 1
 500 321 l 1
 500 286 l 1
 393 286 l 1
214 250 m 1
 214 286 l 1
 321 286 l 1
 321 250 l 1
 214 250 l 1
393 250 m 1
 393 286 l 1
 500 286 l 1
 500 250 l 1
 393 250 l 1
179 214 m 1
 179 250 l 1
 286 250 l 1
 286 214 l 1
 179 214 l 1
357 214 m 1
 357 250 l 1
 500 250 l 1
 500 214 l 1
 357 214 l 1
179 179 m 1
 179 214 l 1
 250 214 l 1
 250 179 l 1
 179 179 l 1
357 179 m 1
 357 214 l 1
 500 214 l 1
 500 179 l 1
 357 179 l 1
143 143 m 1
 143 179 l 1
 214 179 l 1
 214 143 l 1
 143 143 l 1
321 143 m 1
 321 179 l 1
 393 179 l 1
 393 143 l 1
 321 143 l 1
429 143 m 1
 429 179 l 1
 500 179 l 1
 500 143 l 1
 429 143 l 1
107 107 m 1
 107 143 l 1
 214 143 l 1
 214 107 l 1
 107 107 l 1
321 107 m 1
 321 143 l 1
 536 143 l 1
 536 107 l 1
 321 107 l 1
107 71 m 1
 107 107 l 1
 179 107 l 1
 179 71 l 1
 107 71 l 1
321 71 m 1
 321 107 l 1
 536 107 l 1
 536 71 l 1
 321 71 l 1
71 36 m 1
 71 71 l 1
 143 71 l 1
 143 36 l 1
 71 36 l 1
429 36 m 1
 429 71 l 1
 500 71 l 1
 500 36 l 1
 429 36 l 1
36 0 m 1
 36 36 l 1
 143 36 l 1
 143 0 l 1
 36 0 l 1
429 0 m 1
 429 36 l 1
 500 36 l 1
 500 0 l 1
 429 0 l 1
EndSplineSet
EndChar

StartChar: questiondown
Encoding: 191 191 127
Width: 500
Flags: HW
LayerCount: 2
Back
Fore
SplineSet
250 429 m 1
 250 464 l 1
 357 464 l 1
 357 429 l 1
 250 429 l 1
250 393 m 1
 250 429 l 1
 357 429 l 1
 357 393 l 1
 250 393 l 1
250 357 m 1
 250 393 l 1
 357 393 l 1
 357 357 l 1
 250 357 l 1
250 250 m 1
 250 286 l 1
 357 286 l 1
 357 250 l 1
 250 250 l 1
250 214 m 1
 250 250 l 1
 357 250 l 1
 357 214 l 1
 250 214 l 1
250 179 m 1
 250 214 l 1
 357 214 l 1
 357 179 l 1
 250 179 l 1
214 143 m 1
 214 179 l 1
 321 179 l 1
 321 143 l 1
 214 143 l 1
143 107 m 1
 143 143 l 1
 286 143 l 1
 286 107 l 1
 143 107 l 1
107 71 m 1
 107 107 l 1
 214 107 l 1
 214 71 l 1
 107 71 l 1
71 36 m 1
 71 71 l 1
 179 71 l 1
 179 36 l 1
 71 36 l 1
36 0 m 1
 36 36 l 1
 143 36 l 1
 143 0 l 1
 36 0 l 1
36 -36 m 1
 36 0 l 1
 143 0 l 1
 143 -36 l 1
 36 -36 l 1
357 -36 m 1
 357 0 l 1
 429 0 l 1
 429 -36 l 1
 357 -36 l 1
36 -71 m 1
 36 -36 l 1
 143 -36 l 1
 143 -71 l 1
 36 -71 l 1
357 -71 m 1
 357 -36 l 1
 429 -36 l 1
 429 -71 l 1
 357 -71 l 1
36 -107 m 1
 36 -71 l 1
 179 -71 l 1
 179 -107 l 1
 36 -107 l 1
357 -107 m 1
 357 -71 l 1
 429 -71 l 1
 429 -107 l 1
 357 -107 l 1
71 -143 m 1
 71 -107 l 1
 429 -107 l 1
 429 -143 l 1
 71 -143 l 1
143 -179 m 1
 143 -143 l 1
 393 -143 l 1
 393 -179 l 1
 143 -179 l 1
EndSplineSet
EndChar

StartChar: Agrave
Encoding: 192 192 128
Width: 500
Flags: HW
LayerCount: 2
Back
Fore
SplineSet
143 714 m 1
 143 750 l 1
 286 750 l 1
 286 714 l 1
 143 714 l 1
214 679 m 1
 214 714 l 1
 321 714 l 1
 321 679 l 1
 214 679 l 1
250 643 m 1
 250 679 l 1
 357 679 l 1
 357 643 l 1
 250 643 l 1
214 571 m 1
 214 607 l 1
 321 607 l 1
 321 571 l 1
 214 571 l 1
179 536 m 1
 179 571 l 1
 321 571 l 1
 321 536 l 1
 179 536 l 1
179 500 m 1
 179 536 l 1
 357 536 l 1
 357 500 l 1
 179 500 l 1
179 464 m 1
 179 500 l 1
 357 500 l 1
 357 464 l 1
 179 464 l 1
143 429 m 1
 143 464 l 1
 214 464 l 1
 214 429 l 1
 143 429 l 1
250 429 m 1
 250 464 l 1
 357 464 l 1
 357 429 l 1
 250 429 l 1
143 393 m 1
 143 429 l 1
 214 429 l 1
 214 393 l 1
 143 393 l 1
250 393 m 1
 250 429 l 1
 357 429 l 1
 357 393 l 1
 250 393 l 1
143 357 m 1
 143 393 l 1
 214 393 l 1
 214 357 l 1
 143 357 l 1
286 357 m 1
 286 393 l 1
 393 393 l 1
 393 357 l 1
 286 357 l 1
107 321 m 1
 107 357 l 1
 179 357 l 1
 179 321 l 1
 107 321 l 1
286 321 m 1
 286 357 l 1
 393 357 l 1
 393 321 l 1
 286 321 l 1
107 286 m 1
 107 321 l 1
 179 321 l 1
 179 286 l 1
 107 286 l 1
286 286 m 1
 286 321 l 1
 393 321 l 1
 393 286 l 1
 286 286 l 1
107 250 m 1
 107 286 l 1
 179 286 l 1
 179 250 l 1
 107 250 l 1
286 250 m 1
 286 286 l 1
 429 286 l 1
 429 250 l 1
 286 250 l 1
71 214 m 1
 71 250 l 1
 143 250 l 1
 143 214 l 1
 71 214 l 1
321 214 m 1
 321 250 l 1
 429 250 l 1
 429 214 l 1
 321 214 l 1
71 179 m 1
 71 214 l 1
 429 214 l 1
 429 179 l 1
 71 179 l 1
71 143 m 1
 71 179 l 1
 429 179 l 1
 429 143 l 1
 71 143 l 1
36 107 m 1
 36 143 l 1
 107 143 l 1
 107 107 l 1
 36 107 l 1
357 107 m 1
 357 143 l 1
 464 143 l 1
 464 107 l 1
 357 107 l 1
36 71 m 1
 36 107 l 1
 107 107 l 1
 107 71 l 1
 36 71 l 1
357 71 m 1
 357 107 l 1
 464 107 l 1
 464 71 l 1
 357 71 l 1
36 36 m 1
 36 71 l 1
 107 71 l 1
 107 36 l 1
 36 36 l 1
357 36 m 1
 357 71 l 1
 464 71 l 1
 464 36 l 1
 357 36 l 1
0 0 m 1
 0 36 l 1
 71 36 l 1
 71 0 l 1
 0 0 l 1
393 0 m 1
 393 36 l 1
 500 36 l 1
 500 0 l 1
 393 0 l 1
EndSplineSet
EndChar

StartChar: Aacute
Encoding: 193 193 129
Width: 500
Flags: HW
LayerCount: 2
Back
Fore
SplineSet
214 714 m 1
 214 750 l 1
 357 750 l 1
 357 714 l 1
 214 714 l 1
179 679 m 1
 179 714 l 1
 286 714 l 1
 286 679 l 1
 179 679 l 1
143 643 m 1
 143 679 l 1
 250 679 l 1
 250 643 l 1
 143 643 l 1
214 571 m 1
 214 607 l 1
 321 607 l 1
 321 571 l 1
 214 571 l 1
179 536 m 1
 179 571 l 1
 321 571 l 1
 321 536 l 1
 179 536 l 1
179 500 m 1
 179 536 l 1
 357 536 l 1
 357 500 l 1
 179 500 l 1
179 464 m 1
 179 500 l 1
 357 500 l 1
 357 464 l 1
 179 464 l 1
143 429 m 1
 143 464 l 1
 214 464 l 1
 214 429 l 1
 143 429 l 1
250 429 m 1
 250 464 l 1
 357 464 l 1
 357 429 l 1
 250 429 l 1
143 393 m 1
 143 429 l 1
 214 429 l 1
 214 393 l 1
 143 393 l 1
250 393 m 1
 250 429 l 1
 357 429 l 1
 357 393 l 1
 250 393 l 1
143 357 m 1
 143 393 l 1
 214 393 l 1
 214 357 l 1
 143 357 l 1
286 357 m 1
 286 393 l 1
 393 393 l 1
 393 357 l 1
 286 357 l 1
107 321 m 1
 107 357 l 1
 179 357 l 1
 179 321 l 1
 107 321 l 1
286 321 m 1
 286 357 l 1
 393 357 l 1
 393 321 l 1
 286 321 l 1
107 286 m 1
 107 321 l 1
 179 321 l 1
 179 286 l 1
 107 286 l 1
286 286 m 1
 286 321 l 1
 393 321 l 1
 393 286 l 1
 286 286 l 1
107 250 m 1
 107 286 l 1
 179 286 l 1
 179 250 l 1
 107 250 l 1
286 250 m 1
 286 286 l 1
 429 286 l 1
 429 250 l 1
 286 250 l 1
71 214 m 1
 71 250 l 1
 143 250 l 1
 143 214 l 1
 71 214 l 1
321 214 m 1
 321 250 l 1
 429 250 l 1
 429 214 l 1
 321 214 l 1
71 179 m 1
 71 214 l 1
 429 214 l 1
 429 179 l 1
 71 179 l 1
71 143 m 1
 71 179 l 1
 429 179 l 1
 429 143 l 1
 71 143 l 1
36 107 m 1
 36 143 l 1
 107 143 l 1
 107 107 l 1
 36 107 l 1
357 107 m 1
 357 143 l 1
 464 143 l 1
 464 107 l 1
 357 107 l 1
36 71 m 1
 36 107 l 1
 107 107 l 1
 107 71 l 1
 36 71 l 1
357 71 m 1
 357 107 l 1
 464 107 l 1
 464 71 l 1
 357 71 l 1
36 36 m 1
 36 71 l 1
 107 71 l 1
 107 36 l 1
 36 36 l 1
357 36 m 1
 357 71 l 1
 464 71 l 1
 464 36 l 1
 357 36 l 1
0 0 m 1
 0 36 l 1
 71 36 l 1
 71 0 l 1
 0 0 l 1
393 0 m 1
 393 36 l 1
 500 36 l 1
 500 0 l 1
 393 0 l 1
EndSplineSet
EndChar

StartChar: Acircumflex
Encoding: 194 194 130
Width: 500
Flags: HW
LayerCount: 2
Back
Fore
SplineSet
179 714 m 1
 179 750 l 1
 286 750 l 1
 286 714 l 1
 179 714 l 1
143 679 m 1
 143 714 l 1
 214 714 l 1
 214 679 l 1
 143 679 l 1
250 679 m 1
 250 714 l 1
 321 714 l 1
 321 679 l 1
 250 679 l 1
107 643 m 1
 107 679 l 1
 214 679 l 1
 214 643 l 1
 107 643 l 1
250 643 m 1
 250 679 l 1
 357 679 l 1
 357 643 l 1
 250 643 l 1
214 571 m 1
 214 607 l 1
 321 607 l 1
 321 571 l 1
 214 571 l 1
179 536 m 1
 179 571 l 1
 321 571 l 1
 321 536 l 1
 179 536 l 1
179 500 m 1
 179 536 l 1
 357 536 l 1
 357 500 l 1
 179 500 l 1
179 464 m 1
 179 500 l 1
 357 500 l 1
 357 464 l 1
 179 464 l 1
143 429 m 1
 143 464 l 1
 214 464 l 1
 214 429 l 1
 143 429 l 1
250 429 m 1
 250 464 l 1
 357 464 l 1
 357 429 l 1
 250 429 l 1
143 393 m 1
 143 429 l 1
 214 429 l 1
 214 393 l 1
 143 393 l 1
250 393 m 1
 250 429 l 1
 357 429 l 1
 357 393 l 1
 250 393 l 1
143 357 m 1
 143 393 l 1
 214 393 l 1
 214 357 l 1
 143 357 l 1
286 357 m 1
 286 393 l 1
 393 393 l 1
 393 357 l 1
 286 357 l 1
107 321 m 1
 107 357 l 1
 179 357 l 1
 179 321 l 1
 107 321 l 1
286 321 m 1
 286 357 l 1
 393 357 l 1
 393 321 l 1
 286 321 l 1
107 286 m 1
 107 321 l 1
 179 321 l 1
 179 286 l 1
 107 286 l 1
286 286 m 1
 286 321 l 1
 393 321 l 1
 393 286 l 1
 286 286 l 1
107 250 m 1
 107 286 l 1
 179 286 l 1
 179 250 l 1
 107 250 l 1
286 250 m 1
 286 286 l 1
 429 286 l 1
 429 250 l 1
 286 250 l 1
71 214 m 1
 71 250 l 1
 143 250 l 1
 143 214 l 1
 71 214 l 1
321 214 m 1
 321 250 l 1
 429 250 l 1
 429 214 l 1
 321 214 l 1
71 179 m 1
 71 214 l 1
 429 214 l 1
 429 179 l 1
 71 179 l 1
71 143 m 1
 71 179 l 1
 429 179 l 1
 429 143 l 1
 71 143 l 1
36 107 m 1
 36 143 l 1
 107 143 l 1
 107 107 l 1
 36 107 l 1
357 107 m 1
 357 143 l 1
 464 143 l 1
 464 107 l 1
 357 107 l 1
36 71 m 1
 36 107 l 1
 107 107 l 1
 107 71 l 1
 36 71 l 1
357 71 m 1
 357 107 l 1
 464 107 l 1
 464 71 l 1
 357 71 l 1
36 36 m 1
 36 71 l 1
 107 71 l 1
 107 36 l 1
 36 36 l 1
357 36 m 1
 357 71 l 1
 464 71 l 1
 464 36 l 1
 357 36 l 1
0 0 m 1
 0 36 l 1
 71 36 l 1
 71 0 l 1
 0 0 l 1
393 0 m 1
 393 36 l 1
 500 36 l 1
 500 0 l 1
 393 0 l 1
EndSplineSet
EndChar

StartChar: Atilde
Encoding: 195 195 131
Width: 500
Flags: HW
LayerCount: 2
Back
Fore
SplineSet
179 714 m 1
 179 750 l 1
 286 750 l 1
 286 714 l 1
 179 714 l 1
321 714 m 1
 321 750 l 1
 393 750 l 1
 393 714 l 1
 321 714 l 1
143 679 m 1
 143 714 l 1
 393 714 l 1
 393 679 l 1
 143 679 l 1
143 643 m 1
 143 679 l 1
 214 679 l 1
 214 643 l 1
 143 643 l 1
250 643 m 1
 250 679 l 1
 357 679 l 1
 357 643 l 1
 250 643 l 1
214 571 m 1
 214 607 l 1
 321 607 l 1
 321 571 l 1
 214 571 l 1
179 536 m 1
 179 571 l 1
 321 571 l 1
 321 536 l 1
 179 536 l 1
179 500 m 1
 179 536 l 1
 357 536 l 1
 357 500 l 1
 179 500 l 1
179 464 m 1
 179 500 l 1
 357 500 l 1
 357 464 l 1
 179 464 l 1
143 429 m 1
 143 464 l 1
 214 464 l 1
 214 429 l 1
 143 429 l 1
250 429 m 1
 250 464 l 1
 357 464 l 1
 357 429 l 1
 250 429 l 1
143 393 m 1
 143 429 l 1
 214 429 l 1
 214 393 l 1
 143 393 l 1
250 393 m 1
 250 429 l 1
 357 429 l 1
 357 393 l 1
 250 393 l 1
143 357 m 1
 143 393 l 1
 214 393 l 1
 214 357 l 1
 143 357 l 1
286 357 m 1
 286 393 l 1
 393 393 l 1
 393 357 l 1
 286 357 l 1
107 321 m 1
 107 357 l 1
 179 357 l 1
 179 321 l 1
 107 321 l 1
286 321 m 1
 286 357 l 1
 393 357 l 1
 393 321 l 1
 286 321 l 1
107 286 m 1
 107 321 l 1
 179 321 l 1
 179 286 l 1
 107 286 l 1
286 286 m 1
 286 321 l 1
 393 321 l 1
 393 286 l 1
 286 286 l 1
107 250 m 1
 107 286 l 1
 179 286 l 1
 179 250 l 1
 107 250 l 1
286 250 m 1
 286 286 l 1
 429 286 l 1
 429 250 l 1
 286 250 l 1
71 214 m 1
 71 250 l 1
 143 250 l 1
 143 214 l 1
 71 214 l 1
321 214 m 1
 321 250 l 1
 429 250 l 1
 429 214 l 1
 321 214 l 1
71 179 m 1
 71 214 l 1
 429 214 l 1
 429 179 l 1
 71 179 l 1
71 143 m 1
 71 179 l 1
 429 179 l 1
 429 143 l 1
 71 143 l 1
36 107 m 1
 36 143 l 1
 107 143 l 1
 107 107 l 1
 36 107 l 1
357 107 m 1
 357 143 l 1
 464 143 l 1
 464 107 l 1
 357 107 l 1
36 71 m 1
 36 107 l 1
 107 107 l 1
 107 71 l 1
 36 71 l 1
357 71 m 1
 357 107 l 1
 464 107 l 1
 464 71 l 1
 357 71 l 1
36 36 m 1
 36 71 l 1
 107 71 l 1
 107 36 l 1
 36 36 l 1
357 36 m 1
 357 71 l 1
 464 71 l 1
 464 36 l 1
 357 36 l 1
0 0 m 1
 0 36 l 1
 71 36 l 1
 71 0 l 1
 0 0 l 1
393 0 m 1
 393 36 l 1
 500 36 l 1
 500 0 l 1
 393 0 l 1
EndSplineSet
EndChar

StartChar: Adieresis
Encoding: 196 196 132
Width: 500
Flags: HW
LayerCount: 2
Back
Fore
SplineSet
107 679 m 1
 107 714 l 1
 214 714 l 1
 214 679 l 1
 107 679 l 1
250 679 m 1
 250 714 l 1
 357 714 l 1
 357 679 l 1
 250 679 l 1
107 643 m 1
 107 679 l 1
 214 679 l 1
 214 643 l 1
 107 643 l 1
250 643 m 1
 250 679 l 1
 357 679 l 1
 357 643 l 1
 250 643 l 1
214 571 m 1
 214 607 l 1
 321 607 l 1
 321 571 l 1
 214 571 l 1
179 536 m 1
 179 571 l 1
 321 571 l 1
 321 536 l 1
 179 536 l 1
179 500 m 1
 179 536 l 1
 357 536 l 1
 357 500 l 1
 179 500 l 1
179 464 m 1
 179 500 l 1
 357 500 l 1
 357 464 l 1
 179 464 l 1
143 429 m 1
 143 464 l 1
 214 464 l 1
 214 429 l 1
 143 429 l 1
250 429 m 1
 250 464 l 1
 357 464 l 1
 357 429 l 1
 250 429 l 1
143 393 m 1
 143 429 l 1
 214 429 l 1
 214 393 l 1
 143 393 l 1
250 393 m 1
 250 429 l 1
 357 429 l 1
 357 393 l 1
 250 393 l 1
143 357 m 1
 143 393 l 1
 214 393 l 1
 214 357 l 1
 143 357 l 1
286 357 m 1
 286 393 l 1
 393 393 l 1
 393 357 l 1
 286 357 l 1
107 321 m 1
 107 357 l 1
 179 357 l 1
 179 321 l 1
 107 321 l 1
286 321 m 1
 286 357 l 1
 393 357 l 1
 393 321 l 1
 286 321 l 1
107 286 m 1
 107 321 l 1
 179 321 l 1
 179 286 l 1
 107 286 l 1
286 286 m 1
 286 321 l 1
 393 321 l 1
 393 286 l 1
 286 286 l 1
107 250 m 1
 107 286 l 1
 179 286 l 1
 179 250 l 1
 107 250 l 1
286 250 m 1
 286 286 l 1
 429 286 l 1
 429 250 l 1
 286 250 l 1
71 214 m 1
 71 250 l 1
 143 250 l 1
 143 214 l 1
 71 214 l 1
321 214 m 1
 321 250 l 1
 429 250 l 1
 429 214 l 1
 321 214 l 1
71 179 m 1
 71 214 l 1
 429 214 l 1
 429 179 l 1
 71 179 l 1
71 143 m 1
 71 179 l 1
 429 179 l 1
 429 143 l 1
 71 143 l 1
36 107 m 1
 36 143 l 1
 107 143 l 1
 107 107 l 1
 36 107 l 1
357 107 m 1
 357 143 l 1
 464 143 l 1
 464 107 l 1
 357 107 l 1
36 71 m 1
 36 107 l 1
 107 107 l 1
 107 71 l 1
 36 71 l 1
357 71 m 1
 357 107 l 1
 464 107 l 1
 464 71 l 1
 357 71 l 1
36 36 m 1
 36 71 l 1
 107 71 l 1
 107 36 l 1
 36 36 l 1
357 36 m 1
 357 71 l 1
 464 71 l 1
 464 36 l 1
 357 36 l 1
0 0 m 1
 0 36 l 1
 71 36 l 1
 71 0 l 1
 0 0 l 1
393 0 m 1
 393 36 l 1
 500 36 l 1
 500 0 l 1
 393 0 l 1
EndSplineSet
EndChar

StartChar: Aring
Encoding: 197 197 133
Width: 500
Flags: HW
LayerCount: 2
Back
Fore
SplineSet
214 714 m 1
 214 750 l 1
 286 750 l 1
 286 714 l 1
 214 714 l 1
179 679 m 1
 179 714 l 1
 214 714 l 1
 214 679 l 1
 179 679 l 1
286 679 m 1
 286 714 l 1
 321 714 l 1
 321 679 l 1
 286 679 l 1
214 643 m 1
 214 679 l 1
 286 679 l 1
 286 643 l 1
 214 643 l 1
214 571 m 1
 214 607 l 1
 321 607 l 1
 321 571 l 1
 214 571 l 1
179 536 m 1
 179 571 l 1
 321 571 l 1
 321 536 l 1
 179 536 l 1
179 500 m 1
 179 536 l 1
 357 536 l 1
 357 500 l 1
 179 500 l 1
179 464 m 1
 179 500 l 1
 357 500 l 1
 357 464 l 1
 179 464 l 1
143 429 m 1
 143 464 l 1
 214 464 l 1
 214 429 l 1
 143 429 l 1
250 429 m 1
 250 464 l 1
 357 464 l 1
 357 429 l 1
 250 429 l 1
143 393 m 1
 143 429 l 1
 214 429 l 1
 214 393 l 1
 143 393 l 1
250 393 m 1
 250 429 l 1
 357 429 l 1
 357 393 l 1
 250 393 l 1
143 357 m 1
 143 393 l 1
 214 393 l 1
 214 357 l 1
 143 357 l 1
286 357 m 1
 286 393 l 1
 393 393 l 1
 393 357 l 1
 286 357 l 1
107 321 m 1
 107 357 l 1
 179 357 l 1
 179 321 l 1
 107 321 l 1
286 321 m 1
 286 357 l 1
 393 357 l 1
 393 321 l 1
 286 321 l 1
107 286 m 1
 107 321 l 1
 179 321 l 1
 179 286 l 1
 107 286 l 1
286 286 m 1
 286 321 l 1
 393 321 l 1
 393 286 l 1
 286 286 l 1
107 250 m 1
 107 286 l 1
 179 286 l 1
 179 250 l 1
 107 250 l 1
286 250 m 1
 286 286 l 1
 429 286 l 1
 429 250 l 1
 286 250 l 1
71 214 m 1
 71 250 l 1
 143 250 l 1
 143 214 l 1
 71 214 l 1
321 214 m 1
 321 250 l 1
 429 250 l 1
 429 214 l 1
 321 214 l 1
71 179 m 1
 71 214 l 1
 429 214 l 1
 429 179 l 1
 71 179 l 1
71 143 m 1
 71 179 l 1
 429 179 l 1
 429 143 l 1
 71 143 l 1
36 107 m 1
 36 143 l 1
 107 143 l 1
 107 107 l 1
 36 107 l 1
357 107 m 1
 357 143 l 1
 464 143 l 1
 464 107 l 1
 357 107 l 1
36 71 m 1
 36 107 l 1
 107 107 l 1
 107 71 l 1
 36 71 l 1
357 71 m 1
 357 107 l 1
 464 107 l 1
 464 71 l 1
 357 71 l 1
36 36 m 1
 36 71 l 1
 107 71 l 1
 107 36 l 1
 36 36 l 1
357 36 m 1
 357 71 l 1
 464 71 l 1
 464 36 l 1
 357 36 l 1
0 0 m 1
 0 36 l 1
 71 36 l 1
 71 0 l 1
 0 0 l 1
393 0 m 1
 393 36 l 1
 500 36 l 1
 500 0 l 1
 393 0 l 1
EndSplineSet
EndChar

StartChar: AE
Encoding: 198 198 134
Width: 500
Flags: HW
LayerCount: 2
Back
Fore
SplineSet
250 571 m 1
 250 607 l 1
 500 607 l 1
 500 571 l 1
 250 571 l 1
214 536 m 1
 214 571 l 1
 500 571 l 1
 500 536 l 1
 214 536 l 1
214 500 m 1
 214 536 l 1
 357 536 l 1
 357 500 l 1
 214 500 l 1
179 464 m 1
 179 500 l 1
 357 500 l 1
 357 464 l 1
 179 464 l 1
179 429 m 1
 179 464 l 1
 357 464 l 1
 357 429 l 1
 179 429 l 1
179 393 m 1
 179 429 l 1
 357 429 l 1
 357 393 l 1
 179 393 l 1
143 357 m 1
 143 393 l 1
 214 393 l 1
 214 357 l 1
 143 357 l 1
250 357 m 1
 250 393 l 1
 357 393 l 1
 357 357 l 1
 250 357 l 1
143 321 m 1
 143 357 l 1
 214 357 l 1
 214 321 l 1
 143 321 l 1
250 321 m 1
 250 357 l 1
 464 357 l 1
 464 321 l 1
 250 321 l 1
107 286 m 1
 107 321 l 1
 214 321 l 1
 214 286 l 1
 107 286 l 1
250 286 m 1
 250 321 l 1
 464 321 l 1
 464 286 l 1
 250 286 l 1
107 250 m 1
 107 286 l 1
 179 286 l 1
 179 250 l 1
 107 250 l 1
250 250 m 1
 250 286 l 1
 357 286 l 1
 357 250 l 1
 250 250 l 1
107 214 m 1
 107 250 l 1
 179 250 l 1
 179 214 l 1
 107 214 l 1
250 214 m 1
 250 250 l 1
 357 250 l 1
 357 214 l 1
 250 214 l 1
71 179 m 1
 71 214 l 1
 143 214 l 1
 143 179 l 1
 71 179 l 1
250 179 m 1
 250 214 l 1
 357 214 l 1
 357 179 l 1
 250 179 l 1
71 143 m 1
 71 179 l 1
 357 179 l 1
 357 143 l 1
 71 143 l 1
36 107 m 1
 36 143 l 1
 357 143 l 1
 357 107 l 1
 36 107 l 1
36 71 m 1
 36 107 l 1
 107 107 l 1
 107 71 l 1
 36 71 l 1
250 71 m 1
 250 107 l 1
 357 107 l 1
 357 71 l 1
 250 71 l 1
36 36 m 1
 36 71 l 1
 107 71 l 1
 107 36 l 1
 36 36 l 1
250 36 m 1
 250 71 l 1
 500 71 l 1
 500 36 l 1
 250 36 l 1
0 0 m 1
 0 36 l 1
 71 36 l 1
 71 0 l 1
 0 0 l 1
250 0 m 1
 250 36 l 1
 500 36 l 1
 500 0 l 1
 250 0 l 1
EndSplineSet
EndChar

StartChar: Ccedilla
Encoding: 199 199 135
Width: 500
Flags: HW
LayerCount: 2
Back
Fore
SplineSet
214 571 m 1
 214 607 l 1
 500 607 l 1
 500 571 l 1
 214 571 l 1
143 536 m 1
 143 571 l 1
 500 571 l 1
 500 536 l 1
 143 536 l 1
107 500 m 1
 107 536 l 1
 250 536 l 1
 250 500 l 1
 107 500 l 1
429 500 m 1
 429 536 l 1
 500 536 l 1
 500 500 l 1
 429 500 l 1
71 464 m 1
 71 500 l 1
 214 500 l 1
 214 464 l 1
 71 464 l 1
71 429 m 1
 71 464 l 1
 179 464 l 1
 179 429 l 1
 71 429 l 1
36 393 m 1
 36 429 l 1
 143 429 l 1
 143 393 l 1
 36 393 l 1
36 357 m 1
 36 393 l 1
 143 393 l 1
 143 357 l 1
 36 357 l 1
36 321 m 1
 36 357 l 1
 143 357 l 1
 143 321 l 1
 36 321 l 1
36 286 m 1
 36 321 l 1
 143 321 l 1
 143 286 l 1
 36 286 l 1
36 250 m 1
 36 286 l 1
 143 286 l 1
 143 250 l 1
 36 250 l 1
36 214 m 1
 36 250 l 1
 143 250 l 1
 143 214 l 1
 36 214 l 1
36 179 m 1
 36 214 l 1
 143 214 l 1
 143 179 l 1
 36 179 l 1
71 143 m 1
 71 179 l 1
 179 179 l 1
 179 143 l 1
 71 143 l 1
71 107 m 1
 71 143 l 1
 214 143 l 1
 214 107 l 1
 71 107 l 1
107 71 m 1
 107 107 l 1
 250 107 l 1
 250 71 l 1
 107 71 l 1
464 71 m 1
 464 107 l 1
 500 107 l 1
 500 71 l 1
 464 71 l 1
143 36 m 1
 143 71 l 1
 500 71 l 1
 500 36 l 1
 143 36 l 1
214 0 m 1
 214 36 l 1
 464 36 l 1
 464 0 l 1
 214 0 l 1
250 -36 m 1
 250 0 l 1
 321 0 l 1
 321 -36 l 1
 250 -36 l 1
214 -71 m 1
 214 -36 l 1
 357 -36 l 1
 357 -71 l 1
 214 -71 l 1
286 -107 m 1
 286 -71 l 1
 393 -71 l 1
 393 -107 l 1
 286 -107 l 1
321 -143 m 1
 321 -107 l 1
 393 -107 l 1
 393 -143 l 1
 321 -143 l 1
214 -179 m 1
 214 -143 l 1
 357 -143 l 1
 357 -179 l 1
 214 -179 l 1
EndSplineSet
EndChar

StartChar: Egrave
Encoding: 200 200 136
Width: 500
Flags: HW
LayerCount: 2
Back
Fore
SplineSet
143 714 m 1
 143 750 l 1
 286 750 l 1
 286 714 l 1
 143 714 l 1
214 679 m 1
 214 714 l 1
 321 714 l 1
 321 679 l 1
 214 679 l 1
250 643 m 1
 250 679 l 1
 357 679 l 1
 357 643 l 1
 250 643 l 1
71 571 m 1
 71 607 l 1
 429 607 l 1
 429 571 l 1
 71 571 l 1
71 536 m 1
 71 571 l 1
 429 571 l 1
 429 536 l 1
 71 536 l 1
71 500 m 1
 71 536 l 1
 179 536 l 1
 179 500 l 1
 71 500 l 1
71 464 m 1
 71 500 l 1
 179 500 l 1
 179 464 l 1
 71 464 l 1
71 429 m 1
 71 464 l 1
 179 464 l 1
 179 429 l 1
 71 429 l 1
71 393 m 1
 71 429 l 1
 179 429 l 1
 179 393 l 1
 71 393 l 1
71 357 m 1
 71 393 l 1
 179 393 l 1
 179 357 l 1
 71 357 l 1
71 321 m 1
 71 357 l 1
 393 357 l 1
 393 321 l 1
 71 321 l 1
71 286 m 1
 71 321 l 1
 393 321 l 1
 393 286 l 1
 71 286 l 1
71 250 m 1
 71 286 l 1
 179 286 l 1
 179 250 l 1
 71 250 l 1
71 214 m 1
 71 250 l 1
 179 250 l 1
 179 214 l 1
 71 214 l 1
71 179 m 1
 71 214 l 1
 179 214 l 1
 179 179 l 1
 71 179 l 1
71 143 m 1
 71 179 l 1
 179 179 l 1
 179 143 l 1
 71 143 l 1
71 107 m 1
 71 143 l 1
 179 143 l 1
 179 107 l 1
 71 107 l 1
71 71 m 1
 71 107 l 1
 179 107 l 1
 179 71 l 1
 71 71 l 1
71 36 m 1
 71 71 l 1
 464 71 l 1
 464 36 l 1
 71 36 l 1
71 0 m 1
 71 36 l 1
 464 36 l 1
 464 0 l 1
 71 0 l 1
EndSplineSet
EndChar

StartChar: Eacute
Encoding: 201 201 137
Width: 500
Flags: HW
LayerCount: 2
Back
Fore
SplineSet
214 714 m 1
 214 750 l 1
 357 750 l 1
 357 714 l 1
 214 714 l 1
179 679 m 1
 179 714 l 1
 286 714 l 1
 286 679 l 1
 179 679 l 1
143 643 m 1
 143 679 l 1
 250 679 l 1
 250 643 l 1
 143 643 l 1
71 571 m 1
 71 607 l 1
 429 607 l 1
 429 571 l 1
 71 571 l 1
71 536 m 1
 71 571 l 1
 429 571 l 1
 429 536 l 1
 71 536 l 1
71 500 m 1
 71 536 l 1
 179 536 l 1
 179 500 l 1
 71 500 l 1
71 464 m 1
 71 500 l 1
 179 500 l 1
 179 464 l 1
 71 464 l 1
71 429 m 1
 71 464 l 1
 179 464 l 1
 179 429 l 1
 71 429 l 1
71 393 m 1
 71 429 l 1
 179 429 l 1
 179 393 l 1
 71 393 l 1
71 357 m 1
 71 393 l 1
 179 393 l 1
 179 357 l 1
 71 357 l 1
71 321 m 1
 71 357 l 1
 393 357 l 1
 393 321 l 1
 71 321 l 1
71 286 m 1
 71 321 l 1
 393 321 l 1
 393 286 l 1
 71 286 l 1
71 250 m 1
 71 286 l 1
 179 286 l 1
 179 250 l 1
 71 250 l 1
71 214 m 1
 71 250 l 1
 179 250 l 1
 179 214 l 1
 71 214 l 1
71 179 m 1
 71 214 l 1
 179 214 l 1
 179 179 l 1
 71 179 l 1
71 143 m 1
 71 179 l 1
 179 179 l 1
 179 143 l 1
 71 143 l 1
71 107 m 1
 71 143 l 1
 179 143 l 1
 179 107 l 1
 71 107 l 1
71 71 m 1
 71 107 l 1
 179 107 l 1
 179 71 l 1
 71 71 l 1
71 36 m 1
 71 71 l 1
 464 71 l 1
 464 36 l 1
 71 36 l 1
71 0 m 1
 71 36 l 1
 464 36 l 1
 464 0 l 1
 71 0 l 1
EndSplineSet
EndChar

StartChar: Ecircumflex
Encoding: 202 202 138
Width: 500
Flags: HW
LayerCount: 2
Back
Fore
SplineSet
214 714 m 1
 214 750 l 1
 321 750 l 1
 321 714 l 1
 214 714 l 1
179 679 m 1
 179 714 l 1
 250 714 l 1
 250 679 l 1
 179 679 l 1
286 679 m 1
 286 714 l 1
 357 714 l 1
 357 679 l 1
 286 679 l 1
143 643 m 1
 143 679 l 1
 250 679 l 1
 250 643 l 1
 143 643 l 1
286 643 m 1
 286 679 l 1
 393 679 l 1
 393 643 l 1
 286 643 l 1
71 571 m 1
 71 607 l 1
 429 607 l 1
 429 571 l 1
 71 571 l 1
71 536 m 1
 71 571 l 1
 429 571 l 1
 429 536 l 1
 71 536 l 1
71 500 m 1
 71 536 l 1
 179 536 l 1
 179 500 l 1
 71 500 l 1
71 464 m 1
 71 500 l 1
 179 500 l 1
 179 464 l 1
 71 464 l 1
71 429 m 1
 71 464 l 1
 179 464 l 1
 179 429 l 1
 71 429 l 1
71 393 m 1
 71 429 l 1
 179 429 l 1
 179 393 l 1
 71 393 l 1
71 357 m 1
 71 393 l 1
 179 393 l 1
 179 357 l 1
 71 357 l 1
71 321 m 1
 71 357 l 1
 393 357 l 1
 393 321 l 1
 71 321 l 1
71 286 m 1
 71 321 l 1
 393 321 l 1
 393 286 l 1
 71 286 l 1
71 250 m 1
 71 286 l 1
 179 286 l 1
 179 250 l 1
 71 250 l 1
71 214 m 1
 71 250 l 1
 179 250 l 1
 179 214 l 1
 71 214 l 1
71 179 m 1
 71 214 l 1
 179 214 l 1
 179 179 l 1
 71 179 l 1
71 143 m 1
 71 179 l 1
 179 179 l 1
 179 143 l 1
 71 143 l 1
71 107 m 1
 71 143 l 1
 179 143 l 1
 179 107 l 1
 71 107 l 1
71 71 m 1
 71 107 l 1
 179 107 l 1
 179 71 l 1
 71 71 l 1
71 36 m 1
 71 71 l 1
 464 71 l 1
 464 36 l 1
 71 36 l 1
71 0 m 1
 71 36 l 1
 464 36 l 1
 464 0 l 1
 71 0 l 1
EndSplineSet
EndChar

StartChar: Edieresis
Encoding: 203 203 139
Width: 500
Flags: HW
LayerCount: 2
Back
Fore
SplineSet
143 679 m 1
 143 714 l 1
 250 714 l 1
 250 679 l 1
 143 679 l 1
286 679 m 1
 286 714 l 1
 393 714 l 1
 393 679 l 1
 286 679 l 1
143 643 m 1
 143 679 l 1
 250 679 l 1
 250 643 l 1
 143 643 l 1
286 643 m 1
 286 679 l 1
 393 679 l 1
 393 643 l 1
 286 643 l 1
71 571 m 1
 71 607 l 1
 429 607 l 1
 429 571 l 1
 71 571 l 1
71 536 m 1
 71 571 l 1
 429 571 l 1
 429 536 l 1
 71 536 l 1
71 500 m 1
 71 536 l 1
 179 536 l 1
 179 500 l 1
 71 500 l 1
71 464 m 1
 71 500 l 1
 179 500 l 1
 179 464 l 1
 71 464 l 1
71 429 m 1
 71 464 l 1
 179 464 l 1
 179 429 l 1
 71 429 l 1
71 393 m 1
 71 429 l 1
 179 429 l 1
 179 393 l 1
 71 393 l 1
71 357 m 1
 71 393 l 1
 179 393 l 1
 179 357 l 1
 71 357 l 1
71 321 m 1
 71 357 l 1
 393 357 l 1
 393 321 l 1
 71 321 l 1
71 286 m 1
 71 321 l 1
 393 321 l 1
 393 286 l 1
 71 286 l 1
71 250 m 1
 71 286 l 1
 179 286 l 1
 179 250 l 1
 71 250 l 1
71 214 m 1
 71 250 l 1
 179 250 l 1
 179 214 l 1
 71 214 l 1
71 179 m 1
 71 214 l 1
 179 214 l 1
 179 179 l 1
 71 179 l 1
71 143 m 1
 71 179 l 1
 179 179 l 1
 179 143 l 1
 71 143 l 1
71 107 m 1
 71 143 l 1
 179 143 l 1
 179 107 l 1
 71 107 l 1
71 71 m 1
 71 107 l 1
 179 107 l 1
 179 71 l 1
 71 71 l 1
71 36 m 1
 71 71 l 1
 464 71 l 1
 464 36 l 1
 71 36 l 1
71 0 m 1
 71 36 l 1
 464 36 l 1
 464 0 l 1
 71 0 l 1
EndSplineSet
EndChar

